<?plantuml 1.2026.2?><svg xmlns="http://www.w3.org/2000/svg" xmlns:xlink="http://www.w3.org/1999/xlink" contentStyleType="text/css" data-diagram-type="ACTIVITY" height="459px" preserveAspectRatio="none" style="width:418px;height:459px;background:#FFFFFF;" version="1.1" viewBox="0 0 418 459" width="418px" zoomAndPan="magnify"><defs/><g><rect fill="none" height="437.1406" style="stroke:#000000;stroke-width:1.5;" width="396.0117" x="11" y="11"/><path d="M312.8467,11 L312.8467,20.2969 L302.8467,30.2969 L11,30.2969" fill="none" style="stroke:#000000;stroke-width:1.5;"/><text fill="#000000" font-family="sans-serif" font-size="14" lengthAdjust="spacing" textLength="291.8467" x="14" y="24.9951">BP01 - SI03-Confirm Account Registration</text><ellipse cx="211.6689" cy="50.2969" fill="#222222" rx="10" ry="10" style="stroke:#222222;stroke-width:1;"/><rect fill="#F1F1F1" height="33.9688" rx="12.5" ry="12.5" style="stroke:#181818;stroke-width:0.5;" width="334.918" x="44.21" y="80.2969"/><text fill="#000000" font-family="sans-serif" font-size="12" lengthAdjust="spacing" textLength="314.918" x="54.21" y="101.4355">Receive activation request with token and password</text><rect fill="#F1F1F1" height="33.9688" rx="12.5" ry="12.5" style="stroke:#181818;stroke-width:0.5;" width="180.4004" x="121.4688" y="134.2656"/><text fill="#000000" font-family="sans-serif" font-size="12" lengthAdjust="spacing" textLength="160.4004" x="131.4688" y="155.4043">Validate registration token</text><rect fill="#F1F1F1" height="33.9688" rx="12.5" ry="12.5" style="stroke:#181818;stroke-width:0.5;" width="163.6074" x="129.8652" y="188.2344"/><text fill="#000000" font-family="sans-serif" font-size="12" lengthAdjust="spacing" textLength="143.6074" x="139.8652" y="209.373">Validate password rules</text><polygon fill="#F1F1F1" points="152.0605,242.2031,271.2773,242.2031,283.2773,254.2031,271.2773,266.2031,152.0605,266.2031,140.0605,254.2031,152.0605,242.2031" style="stroke:#181818;stroke-width:0.5;"/><text fill="#000000" font-family="sans-serif" font-size="11" lengthAdjust="spacing" textLength="119.2168" x="152.0605" y="258.0112">Activation data valid?</text><text fill="#000000" font-family="sans-serif" font-size="11" lengthAdjust="spacing" textLength="19.0083" x="121.0522" y="251.6089">yes</text><text fill="#000000" font-family="sans-serif" font-size="11" lengthAdjust="spacing" textLength="13.7017" x="283.2773" y="251.6089">no</text><rect fill="#F1F1F1" height="33.9688" rx="12.5" ry="12.5" style="stroke:#181818;stroke-width:0.5;" width="181.332" x="23" y="276.2031"/><text fill="#000000" font-family="sans-serif" font-size="12" lengthAdjust="spacing" textLength="161.332" x="33" y="297.3418">Activate customer account</text><rect fill="#F1F1F1" height="33.9688" rx="12.5" ry="12.5" style="stroke:#181818;stroke-width:0.5;" width="176.6973" x="25.3174" y="330.1719"/><text fill="#000000" font-family="sans-serif" font-size="12" lengthAdjust="spacing" textLength="156.6973" x="35.3174" y="351.3105">Store credentials securely</text><rect fill="#F1F1F1" height="33.9688" rx="12.5" ry="12.5" style="stroke:#181818;stroke-width:0.5;" width="170.6797" x="224.332" y="276.2031"/><text fill="#000000" font-family="sans-serif" font-size="12" lengthAdjust="spacing" textLength="150.6797" x="234.332" y="297.3418">Reject activation request</text><polygon fill="#F1F1F1" points="211.6689,370.1406,223.6689,382.1406,211.6689,394.1406,199.6689,382.1406,211.6689,370.1406" style="stroke:#181818;stroke-width:0.5;"/><ellipse cx="211.6689" cy="425.1406" fill="none" rx="11" ry="11" style="stroke:#222222;stroke-width:1;"/><ellipse cx="211.6689" cy="425.1406" fill="#222222" rx="6" ry="6" style="stroke:#222222;stroke-width:1;"/><line style="stroke:#181818;stroke-width:1;" x1="211.6689" x2="211.6689" y1="60.2969" y2="80.2969"/><polygon fill="#181818" points="207.6689,70.2969,211.6689,80.2969,215.6689,70.2969,211.6689,74.2969" style="stroke:#181818;stroke-width:1;"/><line style="stroke:#181818;stroke-width:1;" x1="211.6689" x2="211.6689" y1="114.2656" y2="134.2656"/><polygon fill="#181818" points="207.6689,124.2656,211.6689,134.2656,215.6689,124.2656,211.6689,128.2656" style="stroke:#181818;stroke-width:1;"/><line style="stroke:#181818;stroke-width:1;" x1="211.6689" x2="211.6689" y1="168.2344" y2="188.2344"/><polygon fill="#181818" points="207.6689,178.2344,211.6689,188.2344,215.6689,178.2344,211.6689,182.2344" style="stroke:#181818;stroke-width:1;"/><line style="stroke:#181818;stroke-width:1;" x1="113.666" x2="113.666" y1="310.1719" y2="330.1719"/><polygon fill="#181818" points="109.666,320.1719,113.666,330.1719,117.666,320.1719,113.666,324.1719" style="stroke:#181818;stroke-width:1;"/><line style="stroke:#181818;stroke-width:1;" x1="140.0605" x2="113.666" y1="254.2031" y2="254.2031"/><line style="stroke:#181818;stroke-width:1;" x1="113.666" x2="113.666" y1="254.2031" y2="276.2031"/><polygon fill="#181818" points="109.666,266.2031,113.666,276.2031,117.666,266.2031,113.666,270.2031" style="stroke:#181818;stroke-width:1;"/><line style="stroke:#181818;stroke-width:1;" x1="283.2773" x2="309.6719" y1="254.2031" y2="254.2031"/><line style="stroke:#181818;stroke-width:1;" x1="309.6719" x2="309.6719" y1="254.2031" y2="276.2031"/><polygon fill="#181818" points="305.6719,266.2031,309.6719,276.2031,313.6719,266.2031,309.6719,270.2031" style="stroke:#181818;stroke-width:1;"/><line style="stroke:#181818;stroke-width:1;" x1="113.666" x2="113.666" y1="364.1406" y2="382.1406"/><line style="stroke:#181818;stroke-width:1;" x1="113.666" x2="199.6689" y1="382.1406" y2="382.1406"/><polygon fill="#181818" points="189.6689,378.1406,199.6689,382.1406,189.6689,386.1406,193.6689,382.1406" style="stroke:#181818;stroke-width:1;"/><line style="stroke:#181818;stroke-width:1;" x1="309.6719" x2="309.6719" y1="310.1719" y2="382.1406"/><line style="stroke:#181818;stroke-width:1;" x1="309.6719" x2="223.6689" y1="382.1406" y2="382.1406"/><polygon fill="#181818" points="233.6689,378.1406,223.6689,382.1406,233.6689,386.1406,229.6689,382.1406" style="stroke:#181818;stroke-width:1;"/><line style="stroke:#181818;stroke-width:1;" x1="211.6689" x2="211.6689" y1="222.2031" y2="242.2031"/><polygon fill="#181818" points="207.6689,232.2031,211.6689,242.2031,215.6689,232.2031,211.6689,236.2031" style="stroke:#181818;stroke-width:1;"/><line style="stroke:#181818;stroke-width:1;" x1="211.6689" x2="211.6689" y1="394.1406" y2="414.1406"/><polygon fill="#181818" points="207.6689,404.1406,211.6689,414.1406,215.6689,404.1406,211.6689,408.1406" style="stroke:#181818;stroke-width:1;"/><?plantuml-src RP2nJWD134Jx-ufHgaiHAOYE52XGfKCNYNwrwoE6o-vXUo-A4F_ExYKeGg9oCM_67ezEZ8rJnEBfPNs75VQxzVtgESMUvOYjzob7GqTlh2QkaWjyDO1QSPRvq94ddWZE6qyp0A7FJ6euiHrWwOCYN0mOdUefITXKswiRE3YZ0j-YB_1V_TS5oGDfrRX7kxrjAvJ3LF779UnGbhLdqcK1IyoL8_YibeuavSwvqkQYxor94OK2HMCtA9Hy5XhE5Q112MrCrx2EtidRFqrdDWRkvyUaiVbkVW00?></g></svg>