<?plantuml 1.2026.2?><svg xmlns="http://www.w3.org/2000/svg" xmlns:xlink="http://www.w3.org/1999/xlink" contentStyleType="text/css" data-diagram-type="ACTIVITY" height="513px" preserveAspectRatio="none" style="width:500px;height:513px;background:#FFFFFF;" version="1.1" viewBox="0 0 500 513" width="500px" zoomAndPan="magnify"><defs/><g><rect fill="none" height="491.1094" style="stroke:#000000;stroke-width:1.5;" width="478.2598" x="11" y="11"/><path d="M306.373,11 L306.373,20.2969 L296.373,30.2969 L11,30.2969" fill="none" style="stroke:#000000;stroke-width:1.5;"/><text fill="#000000" font-family="sans-serif" font-size="14" lengthAdjust="spacing" textLength="285.373" x="14" y="24.9951">BP01 - SI01-Initiate Account Registration</text><ellipse cx="275.0835" cy="50.2969" fill="#222222" rx="10" ry="10" style="stroke:#222222;stroke-width:1;"/><rect fill="#F1F1F1" height="33.9688" rx="12.5" ry="12.5" style="stroke:#181818;stroke-width:0.5;" width="215.9727" x="167.0972" y="80.2969"/><text fill="#000000" font-family="sans-serif" font-size="12" lengthAdjust="spacing" textLength="195.9727" x="177.0972" y="101.4355">Receive customer email address</text><rect fill="#F1F1F1" height="33.9688" rx="12.5" ry="12.5" style="stroke:#181818;stroke-width:0.5;" width="150.2598" x="199.9536" y="134.2656"/><text fill="#000000" font-family="sans-serif" font-size="12" lengthAdjust="spacing" textLength="130.2598" x="209.9536" y="155.4043">Validate email format</text><rect fill="#F1F1F1" height="33.9688" rx="12.5" ry="12.5" style="stroke:#181818;stroke-width:0.5;" width="249.5117" x="150.3276" y="188.2344"/><text fill="#000000" font-family="sans-serif" font-size="12" lengthAdjust="spacing" textLength="229.5117" x="160.3276" y="209.373">Check whether account already exists</text><polygon fill="#F1F1F1" points="206.79,242.2031,343.377,242.2031,355.377,254.2031,343.377,266.2031,206.79,266.2031,194.79,254.2031,206.79,242.2031" style="stroke:#181818;stroke-width:0.5;"/><text fill="#000000" font-family="sans-serif" font-size="11" lengthAdjust="spacing" textLength="136.5869" x="206.79" y="258.0112">Account can be created?</text><text fill="#000000" font-family="sans-serif" font-size="11" lengthAdjust="spacing" textLength="19.0083" x="175.7817" y="251.6089">yes</text><text fill="#000000" font-family="sans-serif" font-size="11" lengthAdjust="spacing" textLength="13.7017" x="355.377" y="251.6089">no</text><rect fill="#F1F1F1" height="33.9688" rx="12.5" ry="12.5" style="stroke:#181818;stroke-width:0.5;" width="237.6641" x="37.6865" y="276.2031"/><text fill="#000000" font-family="sans-serif" font-size="12" lengthAdjust="spacing" textLength="217.6641" x="47.6865" y="297.3418">Create pending account registration</text><rect fill="#F1F1F1" height="33.9688" rx="12.5" ry="12.5" style="stroke:#181818;stroke-width:0.5;" width="267.0371" x="23" y="330.1719"/><text fill="#000000" font-family="sans-serif" font-size="12" lengthAdjust="spacing" textLength="247.0371" x="33" y="351.3105">Generate registration confirmation token</text><rect fill="#F1F1F1" height="33.9688" rx="12.5" ry="12.5" style="stroke:#181818;stroke-width:0.5;" width="239.6152" x="36.7109" y="384.1406"/><text fill="#000000" font-family="sans-serif" font-size="12" lengthAdjust="spacing" textLength="219.6152" x="46.7109" y="405.2793">Broadcast Account Registered event</text><rect fill="#F1F1F1" height="33.9688" rx="12.5" ry="12.5" style="stroke:#181818;stroke-width:0.5;" width="167.2227" x="310.0371" y="276.2031"/><text fill="#000000" font-family="sans-serif" font-size="12" lengthAdjust="spacing" textLength="147.2227" x="320.0371" y="297.3418">Return registration error</text><polygon fill="#F1F1F1" points="275.0835,424.1094,287.0835,436.1094,275.0835,448.1094,263.0835,436.1094,275.0835,424.1094" style="stroke:#181818;stroke-width:0.5;"/><ellipse cx="275.0835" cy="479.1094" fill="none" rx="11" ry="11" style="stroke:#222222;stroke-width:1;"/><ellipse cx="275.0835" cy="479.1094" fill="#222222" rx="6" ry="6" style="stroke:#222222;stroke-width:1;"/><line style="stroke:#181818;stroke-width:1;" x1="275.0835" x2="275.0835" y1="60.2969" y2="80.2969"/><polygon fill="#181818" points="271.0835,70.2969,275.0835,80.2969,279.0835,70.2969,275.0835,74.2969" style="stroke:#181818;stroke-width:1;"/><line style="stroke:#181818;stroke-width:1;" x1="275.0835" x2="275.0835" y1="114.2656" y2="134.2656"/><polygon fill="#181818" points="271.0835,124.2656,275.0835,134.2656,279.0835,124.2656,275.0835,128.2656" style="stroke:#181818;stroke-width:1;"/><line style="stroke:#181818;stroke-width:1;" x1="275.0835" x2="275.0835" y1="168.2344" y2="188.2344"/><polygon fill="#181818" points="271.0835,178.2344,275.0835,188.2344,279.0835,178.2344,275.0835,182.2344" style="stroke:#181818;stroke-width:1;"/><line style="stroke:#181818;stroke-width:1;" x1="156.5186" x2="156.5186" y1="310.1719" y2="330.1719"/><polygon fill="#181818" points="152.5186,320.1719,156.5186,330.1719,160.5186,320.1719,156.5186,324.1719" style="stroke:#181818;stroke-width:1;"/><line style="stroke:#181818;stroke-width:1;" x1="156.5186" x2="156.5186" y1="364.1406" y2="384.1406"/><polygon fill="#181818" points="152.5186,374.1406,156.5186,384.1406,160.5186,374.1406,156.5186,378.1406" style="stroke:#181818;stroke-width:1;"/><line style="stroke:#181818;stroke-width:1;" x1="194.79" x2="156.5186" y1="254.2031" y2="254.2031"/><line style="stroke:#181818;stroke-width:1;" x1="156.5186" x2="156.5186" y1="254.2031" y2="276.2031"/><polygon fill="#181818" points="152.5186,266.2031,156.5186,276.2031,160.5186,266.2031,156.5186,270.2031" style="stroke:#181818;stroke-width:1;"/><line style="stroke:#181818;stroke-width:1;" x1="355.377" x2="393.6484" y1="254.2031" y2="254.2031"/><line style="stroke:#181818;stroke-width:1;" x1="393.6484" x2="393.6484" y1="254.2031" y2="276.2031"/><polygon fill="#181818" points="389.6484,266.2031,393.6484,276.2031,397.6484,266.2031,393.6484,270.2031" style="stroke:#181818;stroke-width:1;"/><line style="stroke:#181818;stroke-width:1;" x1="156.5186" x2="156.5186" y1="418.1094" y2="436.1094"/><line style="stroke:#181818;stroke-width:1;" x1="156.5186" x2="263.0835" y1="436.1094" y2="436.1094"/><polygon fill="#181818" points="253.0835,432.1094,263.0835,436.1094,253.0835,440.1094,257.0835,436.1094" style="stroke:#181818;stroke-width:1;"/><line style="stroke:#181818;stroke-width:1;" x1="393.6484" x2="393.6484" y1="310.1719" y2="436.1094"/><line style="stroke:#181818;stroke-width:1;" x1="393.6484" x2="287.0835" y1="436.1094" y2="436.1094"/><polygon fill="#181818" points="297.0835,432.1094,287.0835,436.1094,297.0835,440.1094,293.0835,436.1094" style="stroke:#181818;stroke-width:1;"/><line style="stroke:#181818;stroke-width:1;" x1="275.0835" x2="275.0835" y1="222.2031" y2="242.2031"/><polygon fill="#181818" points="271.0835,232.2031,275.0835,242.2031,279.0835,232.2031,275.0835,236.2031" style="stroke:#181818;stroke-width:1;"/><line style="stroke:#181818;stroke-width:1;" x1="275.0835" x2="275.0835" y1="448.1094" y2="468.1094"/><polygon fill="#181818" points="271.0835,458.1094,275.0835,468.1094,279.0835,458.1094,275.0835,462.1094" style="stroke:#181818;stroke-width:1;"/><?plantuml-src NP0nRy8m48Nt_8eJKnYGO2r3LJfKR2YLkb_j5x18pj7vGekg_lVQ0IhQoRBVT--zyy1gmK8KccrsonKjw7MxN2ssaX_PG4_EnL6C6kn3CkM2pkYh8agMH_FvqC0Xd41kJ1PxAA7dq15xhqXfNP0txe8lTXUfZTgpJShp0Uv87mVO8K_oDOqx1VipuJE7JXQXfVhMnR7GUyxBZC4_pYdF2jLdf7acY-caq03nGVQ_hdgtm_f2la2WXRtNo4LfGwbOBXQFkE4RZUmT9_ltBr1umWaoBOKkWMg9rpODR5Jvcm3Lg1ERAxRJRyQX-gv-0000?></g></svg>