<?plantuml 1.2026.2?><svg xmlns="http://www.w3.org/2000/svg" xmlns:xlink="http://www.w3.org/1999/xlink" contentStyleType="text/css" data-diagram-type="ACTIVITY" height="405px" preserveAspectRatio="none" style="width:486px;height:405px;background:#FFFFFF;" version="1.1" viewBox="0 0 486 405" width="486px" zoomAndPan="magnify"><defs/><g><rect fill="none" height="383.1719" style="stroke:#000000;stroke-width:1.5;" width="464.583" x="11" y="11"/><path d="M377.46,11 L377.46,20.2969 L367.46,30.2969 L11,30.2969" fill="none" style="stroke:#000000;stroke-width:1.5;"/><text fill="#000000" font-family="sans-serif" font-size="14" lengthAdjust="spacing" textLength="356.46" x="14" y="24.9951">BP01 - SI02-Send Account Registration Notification</text><ellipse cx="236.9043" cy="50.2969" fill="#222222" rx="10" ry="10" style="stroke:#222222;stroke-width:1;"/><rect fill="#F1F1F1" height="33.9688" rx="12.5" ry="12.5" style="stroke:#181818;stroke-width:0.5;" width="245.0469" x="114.3809" y="80.2969"/><text fill="#000000" font-family="sans-serif" font-size="12" lengthAdjust="spacing" textLength="225.0469" x="124.3809" y="101.4355">Receive pending account registration</text><rect fill="#F1F1F1" height="33.9688" rx="12.5" ry="12.5" style="stroke:#181818;stroke-width:0.5;" width="431.8086" x="21" y="134.2656"/><text fill="#000000" font-family="sans-serif" font-size="12" lengthAdjust="spacing" textLength="411.8086" x="31" y="155.4043">Build registration email with activation link using confirmation token</text><rect fill="#F1F1F1" height="33.9688" rx="12.5" ry="12.5" style="stroke:#181818;stroke-width:0.5;" width="246.4531" x="113.6777" y="188.2344"/><text fill="#000000" font-family="sans-serif" font-size="12" lengthAdjust="spacing" textLength="226.4531" x="123.6777" y="209.373">Send account registration notification</text><polygon fill="#F1F1F1" points="205.0859,242.2031,268.7227,242.2031,280.7227,254.2031,268.7227,266.2031,205.0859,266.2031,193.0859,254.2031,205.0859,242.2031" style="stroke:#181818;stroke-width:0.5;"/><text fill="#000000" font-family="sans-serif" font-size="11" lengthAdjust="spacing" textLength="63.6367" x="205.0859" y="258.0112">Email sent?</text><text fill="#000000" font-family="sans-serif" font-size="11" lengthAdjust="spacing" textLength="19.0083" x="174.0776" y="251.6089">yes</text><text fill="#000000" font-family="sans-serif" font-size="11" lengthAdjust="spacing" textLength="13.7017" x="280.7227" y="251.6089">no</text><rect fill="#F1F1F1" height="33.9688" rx="12.5" ry="12.5" style="stroke:#181818;stroke-width:0.5;" width="180.6875" x="34.2197" y="276.2031"/><text fill="#000000" font-family="sans-serif" font-size="12" lengthAdjust="spacing" textLength="160.6875" x="44.2197" y="297.3418">Record notification as sent</text><rect fill="#F1F1F1" height="33.9688" rx="12.5" ry="12.5" style="stroke:#181818;stroke-width:0.5;" width="228.6758" x="234.9072" y="276.2031"/><text fill="#000000" font-family="sans-serif" font-size="12" lengthAdjust="spacing" textLength="208.6758" x="244.9072" y="297.3418">Record notification failure for retry</text><polygon fill="#F1F1F1" points="236.9043,316.1719,248.9043,328.1719,236.9043,340.1719,224.9043,328.1719,236.9043,316.1719" style="stroke:#181818;stroke-width:0.5;"/><ellipse cx="236.9043" cy="371.1719" fill="none" rx="11" ry="11" style="stroke:#222222;stroke-width:1;"/><ellipse cx="236.9043" cy="371.1719" fill="#222222" rx="6" ry="6" style="stroke:#222222;stroke-width:1;"/><line style="stroke:#181818;stroke-width:1;" x1="236.9043" x2="236.9043" y1="60.2969" y2="80.2969"/><polygon fill="#181818" points="232.9043,70.2969,236.9043,80.2969,240.9043,70.2969,236.9043,74.2969" style="stroke:#181818;stroke-width:1;"/><line style="stroke:#181818;stroke-width:1;" x1="236.9043" x2="236.9043" y1="114.2656" y2="134.2656"/><polygon fill="#181818" points="232.9043,124.2656,236.9043,134.2656,240.9043,124.2656,236.9043,128.2656" style="stroke:#181818;stroke-width:1;"/><line style="stroke:#181818;stroke-width:1;" x1="236.9043" x2="236.9043" y1="168.2344" y2="188.2344"/><polygon fill="#181818" points="232.9043,178.2344,236.9043,188.2344,240.9043,178.2344,236.9043,182.2344" style="stroke:#181818;stroke-width:1;"/><line style="stroke:#181818;stroke-width:1;" x1="193.0859" x2="124.5635" y1="254.2031" y2="254.2031"/><line style="stroke:#181818;stroke-width:1;" x1="124.5635" x2="124.5635" y1="254.2031" y2="276.2031"/><polygon fill="#181818" points="120.5635,266.2031,124.5635,276.2031,128.5635,266.2031,124.5635,270.2031" style="stroke:#181818;stroke-width:1;"/><line style="stroke:#181818;stroke-width:1;" x1="280.7227" x2="349.2451" y1="254.2031" y2="254.2031"/><line style="stroke:#181818;stroke-width:1;" x1="349.2451" x2="349.2451" y1="254.2031" y2="276.2031"/><polygon fill="#181818" points="345.2451,266.2031,349.2451,276.2031,353.2451,266.2031,349.2451,270.2031" style="stroke:#181818;stroke-width:1;"/><line style="stroke:#181818;stroke-width:1;" x1="124.5635" x2="124.5635" y1="310.1719" y2="328.1719"/><line style="stroke:#181818;stroke-width:1;" x1="124.5635" x2="224.9043" y1="328.1719" y2="328.1719"/><polygon fill="#181818" points="214.9043,324.1719,224.9043,328.1719,214.9043,332.1719,218.9043,328.1719" style="stroke:#181818;stroke-width:1;"/><line style="stroke:#181818;stroke-width:1;" x1="349.2451" x2="349.2451" y1="310.1719" y2="328.1719"/><line style="stroke:#181818;stroke-width:1;" x1="349.2451" x2="248.9043" y1="328.1719" y2="328.1719"/><polygon fill="#181818" points="258.9043,324.1719,248.9043,328.1719,258.9043,332.1719,254.9043,328.1719" style="stroke:#181818;stroke-width:1;"/><line style="stroke:#181818;stroke-width:1;" x1="236.9043" x2="236.9043" y1="222.2031" y2="242.2031"/><polygon fill="#181818" points="232.9043,232.2031,236.9043,242.2031,240.9043,232.2031,236.9043,236.2031" style="stroke:#181818;stroke-width:1;"/><line style="stroke:#181818;stroke-width:1;" x1="236.9043" x2="236.9043" y1="340.1719" y2="360.1719"/><polygon fill="#181818" points="232.9043,350.1719,236.9043,360.1719,240.9043,350.1719,236.9043,354.1719" style="stroke:#181818;stroke-width:1;"/><?plantuml-src VP31YW8n44JlynM5f_4Wk1xNmxB27hmiebyGCXrj7Bk7f4SHsNytazc3WdWAgQvNNNJdeh6n2YQhpVm3C-pMyyLiHzBWstljnR2bFIUBhjX-rJYmBvy9RXMGB6VaztDBdlXCw3BCieVxv-C3lnoCgvxRvaa6dHotkB0TCcPy7jMMvOW-3M5U9N0yZRhfaSQeKlJL8iX3qS7A0VLFsP98x6iAEv2WlbAQvkbONsFpnC6buXvuQXEX5dtZ3ZczZuIWCNUnU2rSFaOePzAk-glk?></g></svg>