<?plantuml 1.2026.2?><svg xmlns="http://www.w3.org/2000/svg" xmlns:xlink="http://www.w3.org/1999/xlink" contentStyleType="text/css" data-diagram-type="ACTIVITY" height="405px" preserveAspectRatio="none" style="width:643px;height:405px;background:#FFFFFF;" version="1.1" viewBox="0 0 643 405" width="643px" zoomAndPan="magnify"><defs/><g><rect fill="none" height="383.1719" style="stroke:#000000;stroke-width:1.5;" width="621.1699" x="11" y="11"/><path d="M299.7559,11 L299.7559,20.2969 L289.7559,30.2969 L11,30.2969" fill="none" style="stroke:#000000;stroke-width:1.5;"/><text fill="#000000" font-family="sans-serif" font-size="14" lengthAdjust="spacing" textLength="278.7559" x="14" y="24.9951">BP02 - SI05-Add equipment information</text><ellipse cx="330.9468" cy="50.2969" fill="#222222" rx="10" ry="10" style="stroke:#222222;stroke-width:1;"/><rect fill="#F1F1F1" height="33.9688" rx="12.5" ry="12.5" style="stroke:#181818;stroke-width:0.5;" width="337.6602" x="162.1167" y="80.2969"/><text fill="#000000" font-family="sans-serif" font-size="12" lengthAdjust="spacing" textLength="317.6602" x="172.1167" y="101.4355">Receive requested additional equipment information</text><rect fill="#F1F1F1" height="33.9688" rx="12.5" ry="12.5" style="stroke:#181818;stroke-width:0.5;" width="207.2949" x="227.2993" y="134.2656"/><text fill="#000000" font-family="sans-serif" font-size="12" lengthAdjust="spacing" textLength="187.2949" x="237.2993" y="155.4043">Validate submitted information</text><polygon fill="#F1F1F1" points="265.4329,188.2344,396.4607,188.2344,408.4607,200.2344,396.4607,212.2344,265.4329,212.2344,253.4329,200.2344,265.4329,188.2344" style="stroke:#181818;stroke-width:0.5;"/><text fill="#000000" font-family="sans-serif" font-size="11" lengthAdjust="spacing" textLength="131.0278" x="265.4329" y="204.0425">Information is complete</text><text fill="#000000" font-family="sans-serif" font-size="11" lengthAdjust="spacing" textLength="19.0083" x="234.4246" y="197.6401">yes</text><text fill="#000000" font-family="sans-serif" font-size="11" lengthAdjust="spacing" textLength="13.7017" x="408.4607" y="197.6401">no</text><rect fill="#F1F1F1" height="33.9688" rx="12.5" ry="12.5" style="stroke:#181818;stroke-width:0.5;" width="258.1191" x="47.5947" y="222.2344"/><text fill="#000000" font-family="sans-serif" font-size="12" lengthAdjust="spacing" textLength="238.1191" x="57.5947" y="243.373">Update pending equipment registration</text><rect fill="#F1F1F1" height="33.9688" rx="12.5" ry="12.5" style="stroke:#181818;stroke-width:0.5;" width="307.3086" x="23" y="276.2031"/><text fill="#000000" font-family="sans-serif" font-size="12" lengthAdjust="spacing" textLength="287.3086" x="33" y="297.3418">Send updated registration for approval decision</text><rect fill="#F1F1F1" height="33.9688" rx="12.5" ry="12.5" style="stroke:#181818;stroke-width:0.5;" width="269.8613" x="350.3086" y="222.2344"/><text fill="#000000" font-family="sans-serif" font-size="12" lengthAdjust="spacing" textLength="249.8613" x="360.3086" y="243.373">Request missing or corrected information</text><polygon fill="#F1F1F1" points="330.9468,316.1719,342.9468,328.1719,330.9468,340.1719,318.9468,328.1719,330.9468,316.1719" style="stroke:#181818;stroke-width:0.5;"/><ellipse cx="330.9468" cy="371.1719" fill="none" rx="11" ry="11" style="stroke:#222222;stroke-width:1;"/><ellipse cx="330.9468" cy="371.1719" fill="#222222" rx="6" ry="6" style="stroke:#222222;stroke-width:1;"/><line style="stroke:#181818;stroke-width:1;" x1="330.9468" x2="330.9468" y1="60.2969" y2="80.2969"/><polygon fill="#181818" points="326.9468,70.2969,330.9468,80.2969,334.9468,70.2969,330.9468,74.2969" style="stroke:#181818;stroke-width:1;"/><line style="stroke:#181818;stroke-width:1;" x1="330.9468" x2="330.9468" y1="114.2656" y2="134.2656"/><polygon fill="#181818" points="326.9468,124.2656,330.9468,134.2656,334.9468,124.2656,330.9468,128.2656" style="stroke:#181818;stroke-width:1;"/><line style="stroke:#181818;stroke-width:1;" x1="176.6543" x2="176.6543" y1="256.2031" y2="276.2031"/><polygon fill="#181818" points="172.6543,266.2031,176.6543,276.2031,180.6543,266.2031,176.6543,270.2031" style="stroke:#181818;stroke-width:1;"/><line style="stroke:#181818;stroke-width:1;" x1="253.4329" x2="176.6543" y1="200.2344" y2="200.2344"/><line style="stroke:#181818;stroke-width:1;" x1="176.6543" x2="176.6543" y1="200.2344" y2="222.2344"/><polygon fill="#181818" points="172.6543,212.2344,176.6543,222.2344,180.6543,212.2344,176.6543,216.2344" style="stroke:#181818;stroke-width:1;"/><line style="stroke:#181818;stroke-width:1;" x1="408.4607" x2="485.2393" y1="200.2344" y2="200.2344"/><line style="stroke:#181818;stroke-width:1;" x1="485.2393" x2="485.2393" y1="200.2344" y2="222.2344"/><polygon fill="#181818" points="481.2393,212.2344,485.2393,222.2344,489.2393,212.2344,485.2393,216.2344" style="stroke:#181818;stroke-width:1;"/><line style="stroke:#181818;stroke-width:1;" x1="176.6543" x2="176.6543" y1="310.1719" y2="328.1719"/><line style="stroke:#181818;stroke-width:1;" x1="176.6543" x2="318.9468" y1="328.1719" y2="328.1719"/><polygon fill="#181818" points="308.9468,324.1719,318.9468,328.1719,308.9468,332.1719,312.9468,328.1719" style="stroke:#181818;stroke-width:1;"/><line style="stroke:#181818;stroke-width:1;" x1="485.2393" x2="485.2393" y1="256.2031" y2="328.1719"/><line style="stroke:#181818;stroke-width:1;" x1="485.2393" x2="342.9468" y1="328.1719" y2="328.1719"/><polygon fill="#181818" points="352.9468,324.1719,342.9468,328.1719,352.9468,332.1719,348.9468,328.1719" style="stroke:#181818;stroke-width:1;"/><line style="stroke:#181818;stroke-width:1;" x1="330.9468" x2="330.9468" y1="168.2344" y2="188.2344"/><polygon fill="#181818" points="326.9468,178.2344,330.9468,188.2344,334.9468,178.2344,330.9468,182.2344" style="stroke:#181818;stroke-width:1;"/><line style="stroke:#181818;stroke-width:1;" x1="330.9468" x2="330.9468" y1="340.1719" y2="360.1719"/><polygon fill="#181818" points="326.9468,350.1719,330.9468,360.1719,334.9468,350.1719,330.9468,354.1719" style="stroke:#181818;stroke-width:1;"/><?plantuml-src RP1DImCn48Rl-ojUUjeU2aNmOazwwqrQz1wJsNPWys5cjY3YVtUobggbfq3oFEyxa-Agid9EM3mzh--mmdwxlbyzXW1wdxX4IWfEGwxHDMo1pmuGDStEXnrvuXEX6aoY5E12cFFSU3jWqxHNDt9mIf3fBR8sxmhX0Vtszmeiy3cMaPIMq2Cbz1yaIoCjxgNCOOLIu7JuqrlfmABrachitY1Cin3-lSFAu4gf-MIp1_8iPuj68VGfdzjsFxiYiaYhCytdMidVMADDDCmVbaltrNq3?></g></svg>