<?plantuml 1.2026.2?><svg xmlns="http://www.w3.org/2000/svg" xmlns:xlink="http://www.w3.org/1999/xlink" contentStyleType="text/css" data-diagram-type="ACTIVITY" height="405px" preserveAspectRatio="none" style="width:500px;height:405px;background:#FFFFFF;" version="1.1" viewBox="0 0 500 405" width="500px" zoomAndPan="magnify"><defs/><g><rect fill="none" height="383.1719" style="stroke:#000000;stroke-width:1.5;" width="478.2949" x="11" y="11"/><path d="M245.4102,11 L245.4102,20.2969 L235.4102,30.2969 L11,30.2969" fill="none" style="stroke:#000000;stroke-width:1.5;"/><text fill="#000000" font-family="sans-serif" font-size="14" lengthAdjust="spacing" textLength="224.4102" x="14" y="24.9951">BP02 - SI03-Register Equipment</text><ellipse cx="277.1929" cy="50.2969" fill="#222222" rx="10" ry="10" style="stroke:#222222;stroke-width:1;"/><rect fill="#F1F1F1" height="33.9688" rx="12.5" ry="12.5" style="stroke:#181818;stroke-width:0.5;" width="309.0723" x="122.6567" y="80.2969"/><text fill="#000000" font-family="sans-serif" font-size="12" lengthAdjust="spacing" textLength="289.0723" x="132.6567" y="101.4355">Receive completed equipment registration form</text><rect fill="#F1F1F1" height="33.9688" rx="12.5" ry="12.5" style="stroke:#181818;stroke-width:0.5;" width="265.9473" x="144.2192" y="134.2656"/><text fill="#000000" font-family="sans-serif" font-size="12" lengthAdjust="spacing" textLength="245.9473" x="154.2192" y="155.4043">Validate required equipment information</text><polygon fill="#F1F1F1" points="211.8025,188.2344,342.5833,188.2344,354.5833,200.2344,342.5833,212.2344,211.8025,212.2344,199.8025,200.2344,211.8025,188.2344" style="stroke:#181818;stroke-width:0.5;"/><text fill="#000000" font-family="sans-serif" font-size="11" lengthAdjust="spacing" textLength="130.7808" x="211.8025" y="204.0425">Registration data valid?</text><text fill="#000000" font-family="sans-serif" font-size="11" lengthAdjust="spacing" textLength="19.0083" x="180.7942" y="197.6401">yes</text><text fill="#000000" font-family="sans-serif" font-size="11" lengthAdjust="spacing" textLength="13.7017" x="354.5833" y="197.6401">no</text><rect fill="#F1F1F1" height="33.9688" rx="12.5" ry="12.5" style="stroke:#181818;stroke-width:0.5;" width="254.7969" x="31.2207" y="222.2344"/><text fill="#000000" font-family="sans-serif" font-size="12" lengthAdjust="spacing" textLength="234.7969" x="41.2207" y="243.373">Create pending equipment registration</text><rect fill="#F1F1F1" height="33.9688" rx="12.5" ry="12.5" style="stroke:#181818;stroke-width:0.5;" width="271.2383" x="23" y="276.2031"/><text fill="#000000" font-family="sans-serif" font-size="12" lengthAdjust="spacing" textLength="251.2383" x="33" y="297.3418">Forward registration for back-office check</text><rect fill="#F1F1F1" height="33.9688" rx="12.5" ry="12.5" style="stroke:#181818;stroke-width:0.5;" width="163.0566" x="314.2383" y="222.2344"/><text fill="#000000" font-family="sans-serif" font-size="12" lengthAdjust="spacing" textLength="143.0566" x="324.2383" y="243.373">Return validation errors</text><polygon fill="#F1F1F1" points="277.1929,316.1719,289.1929,328.1719,277.1929,340.1719,265.1929,328.1719,277.1929,316.1719" style="stroke:#181818;stroke-width:0.5;"/><ellipse cx="277.1929" cy="371.1719" fill="none" rx="11" ry="11" style="stroke:#222222;stroke-width:1;"/><ellipse cx="277.1929" cy="371.1719" fill="#222222" rx="6" ry="6" style="stroke:#222222;stroke-width:1;"/><line style="stroke:#181818;stroke-width:1;" x1="277.1929" x2="277.1929" y1="60.2969" y2="80.2969"/><polygon fill="#181818" points="273.1929,70.2969,277.1929,80.2969,281.1929,70.2969,277.1929,74.2969" style="stroke:#181818;stroke-width:1;"/><line style="stroke:#181818;stroke-width:1;" x1="277.1929" x2="277.1929" y1="114.2656" y2="134.2656"/><polygon fill="#181818" points="273.1929,124.2656,277.1929,134.2656,281.1929,124.2656,277.1929,128.2656" style="stroke:#181818;stroke-width:1;"/><line style="stroke:#181818;stroke-width:1;" x1="158.6191" x2="158.6191" y1="256.2031" y2="276.2031"/><polygon fill="#181818" points="154.6191,266.2031,158.6191,276.2031,162.6191,266.2031,158.6191,270.2031" style="stroke:#181818;stroke-width:1;"/><line style="stroke:#181818;stroke-width:1;" x1="199.8025" x2="158.6191" y1="200.2344" y2="200.2344"/><line style="stroke:#181818;stroke-width:1;" x1="158.6191" x2="158.6191" y1="200.2344" y2="222.2344"/><polygon fill="#181818" points="154.6191,212.2344,158.6191,222.2344,162.6191,212.2344,158.6191,216.2344" style="stroke:#181818;stroke-width:1;"/><line style="stroke:#181818;stroke-width:1;" x1="354.5833" x2="395.7666" y1="200.2344" y2="200.2344"/><line style="stroke:#181818;stroke-width:1;" x1="395.7666" x2="395.7666" y1="200.2344" y2="222.2344"/><polygon fill="#181818" points="391.7666,212.2344,395.7666,222.2344,399.7666,212.2344,395.7666,216.2344" style="stroke:#181818;stroke-width:1;"/><line style="stroke:#181818;stroke-width:1;" x1="158.6191" x2="158.6191" y1="310.1719" y2="328.1719"/><line style="stroke:#181818;stroke-width:1;" x1="158.6191" x2="265.1929" y1="328.1719" y2="328.1719"/><polygon fill="#181818" points="255.1929,324.1719,265.1929,328.1719,255.1929,332.1719,259.1929,328.1719" style="stroke:#181818;stroke-width:1;"/><line style="stroke:#181818;stroke-width:1;" x1="395.7666" x2="395.7666" y1="256.2031" y2="328.1719"/><line style="stroke:#181818;stroke-width:1;" x1="395.7666" x2="289.1929" y1="328.1719" y2="328.1719"/><polygon fill="#181818" points="299.1929,324.1719,289.1929,328.1719,299.1929,332.1719,295.1929,328.1719" style="stroke:#181818;stroke-width:1;"/><line style="stroke:#181818;stroke-width:1;" x1="277.1929" x2="277.1929" y1="168.2344" y2="188.2344"/><polygon fill="#181818" points="273.1929,178.2344,277.1929,188.2344,281.1929,178.2344,277.1929,182.2344" style="stroke:#181818;stroke-width:1;"/><line style="stroke:#181818;stroke-width:1;" x1="277.1929" x2="277.1929" y1="340.1719" y2="360.1719"/><polygon fill="#181818" points="273.1929,350.1719,277.1929,360.1719,281.1929,350.1719,277.1929,354.1719" style="stroke:#181818;stroke-width:1;"/><?plantuml-src TP11ImCn48Nl-ok6dhQ7XQ8tUoWe5hp92jvZzgKTkfl4ILgHql_k95j14KzpcEzxyv9e97Fcu6bn_xoweOvUdbQtNOyTfmoXn_SZnma-B-ZS4AMilCwx7XPy0jamnH4P0-6R9Acoc1hhWaphOhoQaGUJeMibvPV1lc1LA2mxQlkV8UePEfM0pPBo7fxQJwIbeXhy82Yn4NvWl_kdntfcjq4-Z0n_AjARiOSkECTMtxI7FHG1OmArFbmFzSX7yNEFsOH8a5HHFUxg1uNON9el?></g></svg>