<?plantuml 1.2026.2?><svg xmlns="http://www.w3.org/2000/svg" xmlns:xlink="http://www.w3.org/1999/xlink" contentStyleType="text/css" data-diagram-type="ACTIVITY" height="405px" preserveAspectRatio="none" style="width:609px;height:405px;background:#FFFFFF;" version="1.1" viewBox="0 0 609 405" width="609px" zoomAndPan="magnify"><defs/><g><rect fill="none" height="383.1719" style="stroke:#000000;stroke-width:1.5;" width="587.1621" x="11" y="11"/><path d="M292.209,11 L292.209,20.2969 L282.209,30.2969 L11,30.2969" fill="none" style="stroke:#000000;stroke-width:1.5;"/><text fill="#000000" font-family="sans-serif" font-size="14" lengthAdjust="spacing" textLength="271.209" x="14" y="24.9951">BP02 - SI01-Retrieve Equipment Types</text><ellipse cx="326.3589" cy="50.2969" fill="#222222" rx="10" ry="10" style="stroke:#222222;stroke-width:1;"/><rect fill="#F1F1F1" height="33.9688" rx="12.5" ry="12.5" style="stroke:#181818;stroke-width:0.5;" width="280.8008" x="185.9585" y="80.2969"/><text fill="#000000" font-family="sans-serif" font-size="12" lengthAdjust="spacing" textLength="260.8008" x="195.9585" y="101.4355">Receive request to register new equipment</text><rect fill="#F1F1F1" height="33.9688" rx="12.5" ry="12.5" style="stroke:#181818;stroke-width:0.5;" width="175.0859" x="238.8159" y="134.2656"/><text fill="#000000" font-family="sans-serif" font-size="12" lengthAdjust="spacing" textLength="155.0859" x="248.8159" y="155.4043">Identify customer context</text><rect fill="#F1F1F1" height="33.9688" rx="12.5" ry="12.5" style="stroke:#181818;stroke-width:0.5;" width="234.166" x="209.2759" y="188.2344"/><text fill="#000000" font-family="sans-serif" font-size="12" lengthAdjust="spacing" textLength="214.166" x="219.2759" y="209.373">Retrieve available equipment types</text><polygon fill="#F1F1F1" points="259.1719,242.2031,393.5459,242.2031,405.5459,254.2031,393.5459,266.2031,259.1719,266.2031,247.1719,254.2031,259.1719,242.2031" style="stroke:#181818;stroke-width:0.5;"/><text fill="#000000" font-family="sans-serif" font-size="11" lengthAdjust="spacing" textLength="134.374" x="259.1719" y="258.0112">Equipment types found?</text><text fill="#000000" font-family="sans-serif" font-size="11" lengthAdjust="spacing" textLength="19.0083" x="228.1636" y="251.6089">yes</text><text fill="#000000" font-family="sans-serif" font-size="11" lengthAdjust="spacing" textLength="13.7017" x="405.5459" y="251.6089">no</text><rect fill="#F1F1F1" height="33.9688" rx="12.5" ry="12.5" style="stroke:#181818;stroke-width:0.5;" width="315.1367" x="23" y="276.2031"/><text fill="#000000" font-family="sans-serif" font-size="12" lengthAdjust="spacing" textLength="295.1367" x="33" y="297.3418">Return equipment type list to customer workflow</text><rect fill="#F1F1F1" height="33.9688" rx="12.5" ry="12.5" style="stroke:#181818;stroke-width:0.5;" width="228.0254" x="358.1367" y="276.2031"/><text fill="#000000" font-family="sans-serif" font-size="12" lengthAdjust="spacing" textLength="208.0254" x="368.1367" y="297.3418">Return empty list or retrieval error</text><polygon fill="#F1F1F1" points="326.3589,316.1719,338.3589,328.1719,326.3589,340.1719,314.3589,328.1719,326.3589,316.1719" style="stroke:#181818;stroke-width:0.5;"/><ellipse cx="326.3589" cy="371.1719" fill="none" rx="11" ry="11" style="stroke:#222222;stroke-width:1;"/><ellipse cx="326.3589" cy="371.1719" fill="#222222" rx="6" ry="6" style="stroke:#222222;stroke-width:1;"/><line style="stroke:#181818;stroke-width:1;" x1="326.3589" x2="326.3589" y1="60.2969" y2="80.2969"/><polygon fill="#181818" points="322.3589,70.2969,326.3589,80.2969,330.3589,70.2969,326.3589,74.2969" style="stroke:#181818;stroke-width:1;"/><line style="stroke:#181818;stroke-width:1;" x1="326.3589" x2="326.3589" y1="114.2656" y2="134.2656"/><polygon fill="#181818" points="322.3589,124.2656,326.3589,134.2656,330.3589,124.2656,326.3589,128.2656" style="stroke:#181818;stroke-width:1;"/><line style="stroke:#181818;stroke-width:1;" x1="326.3589" x2="326.3589" y1="168.2344" y2="188.2344"/><polygon fill="#181818" points="322.3589,178.2344,326.3589,188.2344,330.3589,178.2344,326.3589,182.2344" style="stroke:#181818;stroke-width:1;"/><line style="stroke:#181818;stroke-width:1;" x1="247.1719" x2="180.5684" y1="254.2031" y2="254.2031"/><line style="stroke:#181818;stroke-width:1;" x1="180.5684" x2="180.5684" y1="254.2031" y2="276.2031"/><polygon fill="#181818" points="176.5684,266.2031,180.5684,276.2031,184.5684,266.2031,180.5684,270.2031" style="stroke:#181818;stroke-width:1;"/><line style="stroke:#181818;stroke-width:1;" x1="405.5459" x2="472.1494" y1="254.2031" y2="254.2031"/><line style="stroke:#181818;stroke-width:1;" x1="472.1494" x2="472.1494" y1="254.2031" y2="276.2031"/><polygon fill="#181818" points="468.1494,266.2031,472.1494,276.2031,476.1494,266.2031,472.1494,270.2031" style="stroke:#181818;stroke-width:1;"/><line style="stroke:#181818;stroke-width:1;" x1="180.5684" x2="180.5684" y1="310.1719" y2="328.1719"/><line style="stroke:#181818;stroke-width:1;" x1="180.5684" x2="314.3589" y1="328.1719" y2="328.1719"/><polygon fill="#181818" points="304.3589,324.1719,314.3589,328.1719,304.3589,332.1719,308.3589,328.1719" style="stroke:#181818;stroke-width:1;"/><line style="stroke:#181818;stroke-width:1;" x1="472.1494" x2="472.1494" y1="310.1719" y2="328.1719"/><line style="stroke:#181818;stroke-width:1;" x1="472.1494" x2="338.3589" y1="328.1719" y2="328.1719"/><polygon fill="#181818" points="348.3589,324.1719,338.3589,328.1719,348.3589,332.1719,344.3589,328.1719" style="stroke:#181818;stroke-width:1;"/><line style="stroke:#181818;stroke-width:1;" x1="326.3589" x2="326.3589" y1="222.2031" y2="242.2031"/><polygon fill="#181818" points="322.3589,232.2031,326.3589,242.2031,330.3589,232.2031,326.3589,236.2031" style="stroke:#181818;stroke-width:1;"/><line style="stroke:#181818;stroke-width:1;" x1="326.3589" x2="326.3589" y1="340.1719" y2="360.1719"/><polygon fill="#181818" points="322.3589,350.1719,326.3589,360.1719,330.3589,350.1719,326.3589,354.1719" style="stroke:#181818;stroke-width:1;"/><?plantuml-src NP11JyCm38Nl_HLFEtM7IMD7E20XxR0R6lo1q3fWaSQTuwoh4F-Tj1L3x6JB_jxpItgdniOIiNfwtkwmmSjXUxSvaYdJcR0_PUuxYeRNiQUqmbS592kgKk-Fr10NIkcKAHbCIllEoKWHQG3zgXyc-j2MZls89YUJhZ2DHAFBihsUT6V7mRq5-fF3fkCJnXxr_lyONd9i7zUm3ugeHqhh0YwEMUED2m8lGQyX1j5F7sIOx2aaGXtbng7hRLo4ekM5Sr0NGAgYioosxEUFaRxwhdu0?></g></svg>