<?plantuml 1.2026.2?><svg xmlns="http://www.w3.org/2000/svg" xmlns:xlink="http://www.w3.org/1999/xlink" contentStyleType="text/css" data-diagram-type="ACTIVITY" height="341px" preserveAspectRatio="none" style="width:372px;height:341px;background:#FFFFFF;" version="1.1" viewBox="0 0 372 341" width="372px" zoomAndPan="magnify"><defs/><g><rect fill="none" height="319.1719" style="stroke:#000000;stroke-width:1.5;" width="350.6875" x="11" y="11"/><path d="M279.5693,11 L279.5693,20.2969 L269.5693,30.2969 L11,30.2969" fill="none" style="stroke:#000000;stroke-width:1.5;"/><text fill="#000000" font-family="sans-serif" font-size="14" lengthAdjust="spacing" textLength="258.5693" x="14" y="24.9951">BP03 - SI05-Reject Maintenance Plan</text><ellipse cx="186.3438" cy="50.2969" fill="#222222" rx="10" ry="10" style="stroke:#222222;stroke-width:1;"/><rect fill="#F1F1F1" height="33.9688" rx="12.5" ry="12.5" style="stroke:#181818;stroke-width:0.5;" width="177.2305" x="97.7285" y="80.2969"/><text fill="#000000" font-family="sans-serif" font-size="12" lengthAdjust="spacing" textLength="157.2305" x="107.7285" y="101.4355">Receive rejection decision</text><rect fill="#F1F1F1" height="33.9688" rx="12.5" ry="12.5" style="stroke:#181818;stroke-width:0.5;" width="330.6875" x="21" y="134.2656"/><text fill="#000000" font-family="sans-serif" font-size="12" lengthAdjust="spacing" textLength="310.6875" x="31" y="155.4043">Set maintenance plan enrollment status to rejected</text><rect fill="#F1F1F1" height="33.9688" rx="12.5" ry="12.5" style="stroke:#181818;stroke-width:0.5;" width="153.0957" x="109.7959" y="188.2344"/><text fill="#000000" font-family="sans-serif" font-size="12" lengthAdjust="spacing" textLength="133.0957" x="119.7959" y="209.373">Store rejection reason</text><rect fill="#F1F1F1" height="33.9688" rx="12.5" ry="12.5" style="stroke:#181818;stroke-width:0.5;" width="190.877" x="90.9053" y="242.2031"/><text fill="#000000" font-family="sans-serif" font-size="12" lengthAdjust="spacing" textLength="170.877" x="100.9053" y="263.3418">Trigger rejection notification</text><ellipse cx="186.3438" cy="307.1719" fill="none" rx="11" ry="11" style="stroke:#222222;stroke-width:1;"/><ellipse cx="186.3438" cy="307.1719" fill="#222222" rx="6" ry="6" style="stroke:#222222;stroke-width:1;"/><line style="stroke:#181818;stroke-width:1;" x1="186.3438" x2="186.3438" y1="60.2969" y2="80.2969"/><polygon fill="#181818" points="182.3438,70.2969,186.3438,80.2969,190.3438,70.2969,186.3438,74.2969" style="stroke:#181818;stroke-width:1;"/><line style="stroke:#181818;stroke-width:1;" x1="186.3438" x2="186.3438" y1="114.2656" y2="134.2656"/><polygon fill="#181818" points="182.3438,124.2656,186.3438,134.2656,190.3438,124.2656,186.3438,128.2656" style="stroke:#181818;stroke-width:1;"/><line style="stroke:#181818;stroke-width:1;" x1="186.3438" x2="186.3438" y1="168.2344" y2="188.2344"/><polygon fill="#181818" points="182.3438,178.2344,186.3438,188.2344,190.3438,178.2344,186.3438,182.2344" style="stroke:#181818;stroke-width:1;"/><line style="stroke:#181818;stroke-width:1;" x1="186.3438" x2="186.3438" y1="222.2031" y2="242.2031"/><polygon fill="#181818" points="182.3438,232.2031,186.3438,242.2031,190.3438,232.2031,186.3438,236.2031" style="stroke:#181818;stroke-width:1;"/><line style="stroke:#181818;stroke-width:1;" x1="186.3438" x2="186.3438" y1="276.1719" y2="296.1719"/><polygon fill="#181818" points="182.3438,286.1719,186.3438,296.1719,190.3438,286.1719,186.3438,290.1719" style="stroke:#181818;stroke-width:1;"/><?plantuml-src JSsn2i9030RW_PuYT2yKn4KtDmUXjBx0SVqjaMkkv58NyTszQeTE2VpvlynUZOsJK7LfcmFLr5-ROztXYM1qyom6yH90RVHIqTiHPIkbCayT0lW5qj_rYWm8dCjoNkCUHjDEc8j044qnJX1R7LioMTe03F-Q9TsR2fytyQuyZj1TACdumS7RzZHRcjt7VG40?></g></svg>