<?plantuml 1.2026.2?><svg xmlns="http://www.w3.org/2000/svg" xmlns:xlink="http://www.w3.org/1999/xlink" contentStyleType="text/css" data-diagram-type="ACTIVITY" height="405px" preserveAspectRatio="none" style="width:486px;height:405px;background:#FFFFFF;" version="1.1" viewBox="0 0 486 405" width="486px" zoomAndPan="magnify"><defs/><g><rect fill="none" height="383.1719" style="stroke:#000000;stroke-width:1.5;" width="464.3848" x="11" y="11"/><path d="M219.3516,11 L219.3516,20.2969 L209.3516,30.2969 L11,30.2969" fill="none" style="stroke:#000000;stroke-width:1.5;"/><text fill="#000000" font-family="sans-serif" font-size="14" lengthAdjust="spacing" textLength="198.3516" x="14" y="24.9951">BP03 - SI02-Match Providers</text><ellipse cx="219.4253" cy="50.2969" fill="#222222" rx="10" ry="10" style="stroke:#222222;stroke-width:1;"/><rect fill="#F1F1F1" height="33.9688" rx="12.5" ry="12.5" style="stroke:#181818;stroke-width:0.5;" width="190.7422" x="124.0542" y="80.2969"/><text fill="#000000" font-family="sans-serif" font-size="12" lengthAdjust="spacing" textLength="170.7422" x="134.0542" y="101.4355">Receive selected equipment</text><rect fill="#F1F1F1" height="33.9688" rx="12.5" ry="12.5" style="stroke:#181818;stroke-width:0.5;" width="263.3105" x="87.77" y="134.2656"/><text fill="#000000" font-family="sans-serif" font-size="12" lengthAdjust="spacing" textLength="243.3105" x="97.77" y="155.4043">Read equipment type and service needs</text><rect fill="#F1F1F1" height="33.9688" rx="12.5" ry="12.5" style="stroke:#181818;stroke-width:0.5;" width="312.6816" x="63.0845" y="188.2344"/><text fill="#000000" font-family="sans-serif" font-size="12" lengthAdjust="spacing" textLength="292.6816" x="73.0845" y="209.373">Find providers matching equipment and location</text><polygon fill="#F1F1F1" points="173.2661,242.2031,265.5845,242.2031,277.5845,254.2031,265.5845,266.2031,173.2661,266.2031,161.2661,254.2031,173.2661,242.2031" style="stroke:#181818;stroke-width:0.5;"/><text fill="#000000" font-family="sans-serif" font-size="11" lengthAdjust="spacing" textLength="92.3184" x="173.2661" y="258.0112">Providers found?</text><text fill="#000000" font-family="sans-serif" font-size="11" lengthAdjust="spacing" textLength="19.0083" x="142.2578" y="251.6089">yes</text><text fill="#000000" font-family="sans-serif" font-size="11" lengthAdjust="spacing" textLength="13.7017" x="277.5845" y="251.6089">no</text><rect fill="#F1F1F1" height="33.9688" rx="12.5" ry="12.5" style="stroke:#181818;stroke-width:0.5;" width="162.6582" x="23" y="276.2031"/><text fill="#000000" font-family="sans-serif" font-size="12" lengthAdjust="spacing" textLength="142.6582" x="33" y="297.3418">Return provider options</text><rect fill="#F1F1F1" height="33.9688" rx="12.5" ry="12.5" style="stroke:#181818;stroke-width:0.5;" width="257.7266" x="205.6582" y="276.2031"/><text fill="#000000" font-family="sans-serif" font-size="12" lengthAdjust="spacing" textLength="237.7266" x="215.6582" y="297.3418">Return no matching providers message</text><polygon fill="#F1F1F1" points="219.4253,316.1719,231.4253,328.1719,219.4253,340.1719,207.4253,328.1719,219.4253,316.1719" style="stroke:#181818;stroke-width:0.5;"/><ellipse cx="219.4253" cy="371.1719" fill="none" rx="11" ry="11" style="stroke:#222222;stroke-width:1;"/><ellipse cx="219.4253" cy="371.1719" fill="#222222" rx="6" ry="6" style="stroke:#222222;stroke-width:1;"/><line style="stroke:#181818;stroke-width:1;" x1="219.4253" x2="219.4253" y1="60.2969" y2="80.2969"/><polygon fill="#181818" points="215.4253,70.2969,219.4253,80.2969,223.4253,70.2969,219.4253,74.2969" style="stroke:#181818;stroke-width:1;"/><line style="stroke:#181818;stroke-width:1;" x1="219.4253" x2="219.4253" y1="114.2656" y2="134.2656"/><polygon fill="#181818" points="215.4253,124.2656,219.4253,134.2656,223.4253,124.2656,219.4253,128.2656" style="stroke:#181818;stroke-width:1;"/><line style="stroke:#181818;stroke-width:1;" x1="219.4253" x2="219.4253" y1="168.2344" y2="188.2344"/><polygon fill="#181818" points="215.4253,178.2344,219.4253,188.2344,223.4253,178.2344,219.4253,182.2344" style="stroke:#181818;stroke-width:1;"/><line style="stroke:#181818;stroke-width:1;" x1="161.2661" x2="104.3291" y1="254.2031" y2="254.2031"/><line style="stroke:#181818;stroke-width:1;" x1="104.3291" x2="104.3291" y1="254.2031" y2="276.2031"/><polygon fill="#181818" points="100.3291,266.2031,104.3291,276.2031,108.3291,266.2031,104.3291,270.2031" style="stroke:#181818;stroke-width:1;"/><line style="stroke:#181818;stroke-width:1;" x1="277.5845" x2="334.5215" y1="254.2031" y2="254.2031"/><line style="stroke:#181818;stroke-width:1;" x1="334.5215" x2="334.5215" y1="254.2031" y2="276.2031"/><polygon fill="#181818" points="330.5215,266.2031,334.5215,276.2031,338.5215,266.2031,334.5215,270.2031" style="stroke:#181818;stroke-width:1;"/><line style="stroke:#181818;stroke-width:1;" x1="104.3291" x2="104.3291" y1="310.1719" y2="328.1719"/><line style="stroke:#181818;stroke-width:1;" x1="104.3291" x2="207.4253" y1="328.1719" y2="328.1719"/><polygon fill="#181818" points="197.4253,324.1719,207.4253,328.1719,197.4253,332.1719,201.4253,328.1719" style="stroke:#181818;stroke-width:1;"/><line style="stroke:#181818;stroke-width:1;" x1="334.5215" x2="334.5215" y1="310.1719" y2="328.1719"/><line style="stroke:#181818;stroke-width:1;" x1="334.5215" x2="231.4253" y1="328.1719" y2="328.1719"/><polygon fill="#181818" points="241.4253,324.1719,231.4253,328.1719,241.4253,332.1719,237.4253,328.1719" style="stroke:#181818;stroke-width:1;"/><line style="stroke:#181818;stroke-width:1;" x1="219.4253" x2="219.4253" y1="222.2031" y2="242.2031"/><polygon fill="#181818" points="215.4253,232.2031,219.4253,242.2031,223.4253,232.2031,219.4253,236.2031" style="stroke:#181818;stroke-width:1;"/><line style="stroke:#181818;stroke-width:1;" x1="219.4253" x2="219.4253" y1="340.1719" y2="360.1719"/><polygon fill="#181818" points="215.4253,350.1719,219.4253,360.1719,223.4253,350.1719,219.4253,354.1719" style="stroke:#181818;stroke-width:1;"/><?plantuml-src LP2nQWCn44Jx-uh1rRamcAHpYa0AWuk0IRv0I7FsmdabIxe34_BlaMJYN2h1whsTOOE9MR9unUhjk7t61f-7xTFctMHxnZ7wMHnZMk6h0r8kS7bt7xIKcKWSQJCTU9qaNAZvvVvj5YFaMo2CkeB7MIoXf4kDt4iPXzyKN6ggw6aXLs_qrjIALP41_QCM1Z-fUrqZdwdeRqphWhG6UOhws0mVgjyoEIQYL_-VLFyNlkZ3bCo9JLCdGxk13zrtzmC0?></g></svg>