<?plantuml 1.2026.2?><svg xmlns="http://www.w3.org/2000/svg" xmlns:xlink="http://www.w3.org/1999/xlink" contentStyleType="text/css" data-diagram-type="ACTIVITY" height="341px" preserveAspectRatio="none" style="width:380px;height:341px;background:#FFFFFF;" version="1.1" viewBox="0 0 380 341" width="380px" zoomAndPan="magnify"><defs/><g><rect fill="none" height="319.1719" style="stroke:#000000;stroke-width:1.5;" width="358.3164" x="11" y="11"/><path d="M294.1094,11 L294.1094,20.2969 L284.1094,30.2969 L11,30.2969" fill="none" style="stroke:#000000;stroke-width:1.5;"/><text fill="#000000" font-family="sans-serif" font-size="14" lengthAdjust="spacing" textLength="273.1094" x="14" y="24.9951">BP03 - SI06-Approve Maintenance Plan</text><ellipse cx="190.1582" cy="50.2969" fill="#222222" rx="10" ry="10" style="stroke:#222222;stroke-width:1;"/><rect fill="#F1F1F1" height="33.9688" rx="12.5" ry="12.5" style="stroke:#181818;stroke-width:0.5;" width="177.2656" x="101.5254" y="80.2969"/><text fill="#000000" font-family="sans-serif" font-size="12" lengthAdjust="spacing" textLength="157.2656" x="111.5254" y="101.4355">Receive approval decision</text><rect fill="#F1F1F1" height="33.9688" rx="12.5" ry="12.5" style="stroke:#181818;stroke-width:0.5;" width="338.3164" x="21" y="134.2656"/><text fill="#000000" font-family="sans-serif" font-size="12" lengthAdjust="spacing" textLength="318.3164" x="31" y="155.4043">Set maintenance plan enrollment status to approved</text><rect fill="#F1F1F1" height="33.9688" rx="12.5" ry="12.5" style="stroke:#181818;stroke-width:0.5;" width="241.0684" x="69.624" y="188.2344"/><text fill="#000000" font-family="sans-serif" font-size="12" lengthAdjust="spacing" textLength="221.0684" x="79.624" y="209.373">Activate maintenance plan coverage</text><rect fill="#F1F1F1" height="33.9688" rx="12.5" ry="12.5" style="stroke:#181818;stroke-width:0.5;" width="190.9121" x="94.7021" y="242.2031"/><text fill="#000000" font-family="sans-serif" font-size="12" lengthAdjust="spacing" textLength="170.9121" x="104.7021" y="263.3418">Trigger approval notification</text><ellipse cx="190.1582" cy="307.1719" fill="none" rx="11" ry="11" style="stroke:#222222;stroke-width:1;"/><ellipse cx="190.1582" cy="307.1719" fill="#222222" rx="6" ry="6" style="stroke:#222222;stroke-width:1;"/><line style="stroke:#181818;stroke-width:1;" x1="190.1582" x2="190.1582" y1="60.2969" y2="80.2969"/><polygon fill="#181818" points="186.1582,70.2969,190.1582,80.2969,194.1582,70.2969,190.1582,74.2969" style="stroke:#181818;stroke-width:1;"/><line style="stroke:#181818;stroke-width:1;" x1="190.1582" x2="190.1582" y1="114.2656" y2="134.2656"/><polygon fill="#181818" points="186.1582,124.2656,190.1582,134.2656,194.1582,124.2656,190.1582,128.2656" style="stroke:#181818;stroke-width:1;"/><line style="stroke:#181818;stroke-width:1;" x1="190.1582" x2="190.1582" y1="168.2344" y2="188.2344"/><polygon fill="#181818" points="186.1582,178.2344,190.1582,188.2344,194.1582,178.2344,190.1582,182.2344" style="stroke:#181818;stroke-width:1;"/><line style="stroke:#181818;stroke-width:1;" x1="190.1582" x2="190.1582" y1="222.2031" y2="242.2031"/><polygon fill="#181818" points="186.1582,232.2031,190.1582,242.2031,194.1582,232.2031,190.1582,236.2031" style="stroke:#181818;stroke-width:1;"/><line style="stroke:#181818;stroke-width:1;" x1="190.1582" x2="190.1582" y1="276.1719" y2="296.1719"/><polygon fill="#181818" points="186.1582,286.1719,190.1582,296.1719,194.1582,286.1719,190.1582,290.1719" style="stroke:#181818;stroke-width:1;"/><?plantuml-src POqn2i9044Nxd6Am3mG42wrYPo44umM6pHW6DhFBxZUDU7St8Q1WDSMyztxa18K6ezsvQ_PKKtzf3dKROmgpq9NL8CRcX3hFjgDNHPHHh7AFDt6Y1UCLPq-3ECsbTbg-lO2cdq0i0H9BmVj934i6pqm8co_3ghKEEZFattM5IJpAYjsJZgEaxxO5w4CTOzlF2B5wLny0?></g></svg>