<?plantuml 1.2026.2?><svg xmlns="http://www.w3.org/2000/svg" xmlns:xlink="http://www.w3.org/1999/xlink" contentStyleType="text/css" data-diagram-type="ACTIVITY" height="341px" preserveAspectRatio="none" style="width:430px;height:341px;background:#FFFFFF;" version="1.1" viewBox="0 0 430 341" width="430px" zoomAndPan="magnify"><defs/><g><rect fill="none" height="319.1719" style="stroke:#000000;stroke-width:1.5;" width="408.4629" x="11" y="11"/><path d="M414.4629,11 L414.4629,20.2969 L404.4629,30.2969 L11,30.2969" fill="none" style="stroke:#000000;stroke-width:1.5;"/><text fill="#000000" font-family="sans-serif" font-size="14" lengthAdjust="spacing" textLength="393.4629" x="14" y="24.9951">BP03 - SI04-Add Information To Enroll Maintenance Plan</text><ellipse cx="217.7314" cy="50.2969" fill="#222222" rx="10" ry="10" style="stroke:#222222;stroke-width:1;"/><rect fill="#F1F1F1" height="33.9688" rx="12.5" ry="12.5" style="stroke:#181818;stroke-width:0.5;" width="312.5703" x="61.4463" y="80.2969"/><text fill="#000000" font-family="sans-serif" font-size="12" lengthAdjust="spacing" textLength="292.5703" x="71.4463" y="101.4355">Receive validated maintenance plan information</text><rect fill="#F1F1F1" height="33.9688" rx="12.5" ry="12.5" style="stroke:#181818;stroke-width:0.5;" width="226.0742" x="104.6943" y="134.2656"/><text fill="#000000" font-family="sans-serif" font-size="12" lengthAdjust="spacing" textLength="206.0742" x="114.6943" y="155.4043">Update enrollment request details</text><rect fill="#F1F1F1" height="33.9688" rx="12.5" ry="12.5" style="stroke:#181818;stroke-width:0.5;" width="221.7441" x="106.8594" y="188.2344"/><text fill="#000000" font-family="sans-serif" font-size="12" lengthAdjust="spacing" textLength="201.7441" x="116.8594" y="209.373">Store back-office validation notes</text><rect fill="#F1F1F1" height="33.9688" rx="12.5" ry="12.5" style="stroke:#181818;stroke-width:0.5;" width="367.7598" x="33.8516" y="242.2031"/><text fill="#000000" font-family="sans-serif" font-size="12" lengthAdjust="spacing" textLength="347.7598" x="43.8516" y="263.3418">Evaluate whether request should be approved or rejected</text><ellipse cx="217.7314" cy="307.1719" fill="none" rx="11" ry="11" style="stroke:#222222;stroke-width:1;"/><ellipse cx="217.7314" cy="307.1719" fill="#222222" rx="6" ry="6" style="stroke:#222222;stroke-width:1;"/><line style="stroke:#181818;stroke-width:1;" x1="217.7314" x2="217.7314" y1="60.2969" y2="80.2969"/><polygon fill="#181818" points="213.7314,70.2969,217.7314,80.2969,221.7314,70.2969,217.7314,74.2969" style="stroke:#181818;stroke-width:1;"/><line style="stroke:#181818;stroke-width:1;" x1="217.7314" x2="217.7314" y1="114.2656" y2="134.2656"/><polygon fill="#181818" points="213.7314,124.2656,217.7314,134.2656,221.7314,124.2656,217.7314,128.2656" style="stroke:#181818;stroke-width:1;"/><line style="stroke:#181818;stroke-width:1;" x1="217.7314" x2="217.7314" y1="168.2344" y2="188.2344"/><polygon fill="#181818" points="213.7314,178.2344,217.7314,188.2344,221.7314,178.2344,217.7314,182.2344" style="stroke:#181818;stroke-width:1;"/><line style="stroke:#181818;stroke-width:1;" x1="217.7314" x2="217.7314" y1="222.2031" y2="242.2031"/><polygon fill="#181818" points="213.7314,232.2031,217.7314,242.2031,221.7314,232.2031,217.7314,236.2031" style="stroke:#181818;stroke-width:1;"/><line style="stroke:#181818;stroke-width:1;" x1="217.7314" x2="217.7314" y1="276.1719" y2="296.1719"/><polygon fill="#181818" points="213.7314,286.1719,217.7314,296.1719,221.7314,286.1719,217.7314,290.1719" style="stroke:#181818;stroke-width:1;"/><?plantuml-src JO-nRiCm34HtVyKXku40xPHCBP0XGu4WQJ-0aMXOhKmgCkqCGV-zaWCadGZmxXwFYR852ofOlH_MBsXnsgzVspVliPTEyq2B-AdOITOOyK51Z8N4CGwHP8LR0unME6LkZkmup8oPOl1ax37y2wGIG7XojpNobQeHlF075aFcoyIZmRDHYEFYEfbcnfdSJwjT5zpZHAqdQdotxSfsghXhpzPpVh36NgVeSMPGIbddqaoh-iskjDmkFsXgVfi_?></g></svg>