<?plantuml 1.2026.2?><svg xmlns="http://www.w3.org/2000/svg" xmlns:xlink="http://www.w3.org/1999/xlink" contentStyleType="text/css" data-diagram-type="ACTIVITY" height="395px" preserveAspectRatio="none" style="width:338px;height:395px;background:#FFFFFF;" version="1.1" viewBox="0 0 338 395" width="338px" zoomAndPan="magnify"><defs/><g><rect fill="none" height="373.1406" style="stroke:#000000;stroke-width:1.5;" width="316.8945" x="11" y="11"/><path d="M319.6758,11 L319.6758,20.2969 L309.6758,30.2969 L11,30.2969" fill="none" style="stroke:#000000;stroke-width:1.5;"/><text fill="#000000" font-family="sans-serif" font-size="14" lengthAdjust="spacing" textLength="298.6758" x="14" y="24.9951">BP03 - SI03-Begin Enroll Maintenance Plan</text><ellipse cx="170.3379" cy="50.2969" fill="#222222" rx="10" ry="10" style="stroke:#222222;stroke-width:1;"/><rect fill="#F1F1F1" height="33.9688" rx="12.5" ry="12.5" style="stroke:#181818;stroke-width:0.5;" width="271.209" x="34.7334" y="80.2969"/><text fill="#000000" font-family="sans-serif" font-size="12" lengthAdjust="spacing" textLength="251.209" x="44.7334" y="101.4355">Receive selected equipment and provider</text><rect fill="#F1F1F1" height="33.9688" rx="12.5" ry="12.5" style="stroke:#181818;stroke-width:0.5;" width="203.7441" x="68.4658" y="134.2656"/><text fill="#000000" font-family="sans-serif" font-size="12" lengthAdjust="spacing" textLength="183.7441" x="78.4658" y="155.4043">Validate equipment ownership</text><rect fill="#F1F1F1" height="33.9688" rx="12.5" ry="12.5" style="stroke:#181818;stroke-width:0.5;" width="291.1133" x="24.7813" y="188.2344"/><text fill="#000000" font-family="sans-serif" font-size="12" lengthAdjust="spacing" textLength="271.1133" x="34.7813" y="209.373">Create maintenance plan enrollment request</text><rect fill="#F1F1F1" height="33.9688" rx="12.5" ry="12.5" style="stroke:#181818;stroke-width:0.5;" width="261.4355" x="39.6201" y="242.2031"/><text fill="#000000" font-family="sans-serif" font-size="12" lengthAdjust="spacing" textLength="241.4355" x="49.6201" y="263.3418">Set request status to pending validation</text><rect fill="#F1F1F1" height="33.9688" rx="12.5" ry="12.5" style="stroke:#181818;stroke-width:0.5;" width="203.7031" x="68.4863" y="296.1719"/><text fill="#000000" font-family="sans-serif" font-size="12" lengthAdjust="spacing" textLength="183.7031" x="78.4863" y="317.3105">Forward request to back office</text><ellipse cx="170.3379" cy="361.1406" fill="none" rx="11" ry="11" style="stroke:#222222;stroke-width:1;"/><ellipse cx="170.3379" cy="361.1406" fill="#222222" rx="6" ry="6" style="stroke:#222222;stroke-width:1;"/><line style="stroke:#181818;stroke-width:1;" x1="170.3379" x2="170.3379" y1="60.2969" y2="80.2969"/><polygon fill="#181818" points="166.3379,70.2969,170.3379,80.2969,174.3379,70.2969,170.3379,74.2969" style="stroke:#181818;stroke-width:1;"/><line style="stroke:#181818;stroke-width:1;" x1="170.3379" x2="170.3379" y1="114.2656" y2="134.2656"/><polygon fill="#181818" points="166.3379,124.2656,170.3379,134.2656,174.3379,124.2656,170.3379,128.2656" style="stroke:#181818;stroke-width:1;"/><line style="stroke:#181818;stroke-width:1;" x1="170.3379" x2="170.3379" y1="168.2344" y2="188.2344"/><polygon fill="#181818" points="166.3379,178.2344,170.3379,188.2344,174.3379,178.2344,170.3379,182.2344" style="stroke:#181818;stroke-width:1;"/><line style="stroke:#181818;stroke-width:1;" x1="170.3379" x2="170.3379" y1="222.2031" y2="242.2031"/><polygon fill="#181818" points="166.3379,232.2031,170.3379,242.2031,174.3379,232.2031,170.3379,236.2031" style="stroke:#181818;stroke-width:1;"/><line style="stroke:#181818;stroke-width:1;" x1="170.3379" x2="170.3379" y1="276.1719" y2="296.1719"/><polygon fill="#181818" points="166.3379,286.1719,170.3379,296.1719,174.3379,286.1719,170.3379,290.1719" style="stroke:#181818;stroke-width:1;"/><line style="stroke:#181818;stroke-width:1;" x1="170.3379" x2="170.3379" y1="330.1406" y2="350.1406"/><polygon fill="#181818" points="166.3379,340.1406,170.3379,350.1406,174.3379,340.1406,170.3379,344.1406" style="stroke:#181818;stroke-width:1;"/><?plantuml-src JO_1Qa9134Ntxok2Uq5mfpjBXIu4gT1zdBbgw9YPPk9pKVptpfk2k0eXvt1p2vkBIrQQRVQB9StfyB5OpZSuYzAxMaw9TYpgKDO0sYVM6VqEHDMRskRg4m4oWYeIWYCIVcvIhb0draZ5yYWHjfxOBquIsV72vBl2waLA1zuCq_dw4bbQ9A6_qWLhBgft_83dFZtajqgUgK2Zw9d6_xJMhiFRR7Us-1GQUUJmJVbqae1rxvJBy1Z-0000?></g></svg>