<?plantuml 1.2026.2?><svg xmlns="http://www.w3.org/2000/svg" xmlns:xlink="http://www.w3.org/1999/xlink" contentStyleType="text/css" data-diagram-type="ACTIVITY" height="459px" preserveAspectRatio="none" style="width:475px;height:459px;background:#FFFFFF;" version="1.1" viewBox="0 0 475 459" width="475px" zoomAndPan="magnify"><defs/><g><rect fill="none" height="437.1406" style="stroke:#000000;stroke-width:1.5;" width="453.3633" x="11" y="11"/><path d="M340.1904,11 L340.1904,20.2969 L330.1904,30.2969 L11,30.2969" fill="none" style="stroke:#000000;stroke-width:1.5;"/><text fill="#000000" font-family="sans-serif" font-size="14" lengthAdjust="spacing" textLength="319.1904" x="14" y="24.9951">BP03 - SI07-Notify Approve Maintenance Plan</text><ellipse cx="225.6846" cy="50.2969" fill="#222222" rx="10" ry="10" style="stroke:#222222;stroke-width:1;"/><rect fill="#F1F1F1" height="33.9688" rx="12.5" ry="12.5" style="stroke:#181818;stroke-width:0.5;" width="357.1309" x="47.1191" y="80.2969"/><text fill="#000000" font-family="sans-serif" font-size="12" lengthAdjust="spacing" textLength="337.1309" x="57.1191" y="101.4355">Receive maintenance plan approval notification request</text><rect fill="#F1F1F1" height="33.9688" rx="12.5" ry="12.5" style="stroke:#181818;stroke-width:0.5;" width="201.834" x="124.7676" y="134.2656"/><text fill="#000000" font-family="sans-serif" font-size="12" lengthAdjust="spacing" textLength="181.834" x="134.7676" y="155.4043">Load customer contact details</text><rect fill="#F1F1F1" height="33.9688" rx="12.5" ry="12.5" style="stroke:#181818;stroke-width:0.5;" width="308.6973" x="71.3359" y="188.2344"/><text fill="#000000" font-family="sans-serif" font-size="12" lengthAdjust="spacing" textLength="288.6973" x="81.3359" y="209.373">Build notification message with approval details</text><rect fill="#F1F1F1" height="33.9688" rx="12.5" ry="12.5" style="stroke:#181818;stroke-width:0.5;" width="158.4277" x="146.4707" y="242.2031"/><text fill="#000000" font-family="sans-serif" font-size="12" lengthAdjust="spacing" textLength="138.4277" x="156.4707" y="263.3418">Send notification email</text><polygon fill="#F1F1F1" points="193.8662,296.1719,257.5029,296.1719,269.5029,308.1719,257.5029,320.1719,193.8662,320.1719,181.8662,308.1719,193.8662,296.1719" style="stroke:#181818;stroke-width:0.5;"/><text fill="#000000" font-family="sans-serif" font-size="11" lengthAdjust="spacing" textLength="63.6367" x="193.8662" y="311.98">Email sent?</text><text fill="#000000" font-family="sans-serif" font-size="11" lengthAdjust="spacing" textLength="19.0083" x="162.8579" y="305.5776">yes</text><text fill="#000000" font-family="sans-serif" font-size="11" lengthAdjust="spacing" textLength="13.7017" x="269.5029" y="305.5776">no</text><rect fill="#F1F1F1" height="33.9688" rx="12.5" ry="12.5" style="stroke:#181818;stroke-width:0.5;" width="180.6875" x="23" y="330.1719"/><text fill="#000000" font-family="sans-serif" font-size="12" lengthAdjust="spacing" textLength="160.6875" x="33" y="351.3105">Record notification as sent</text><rect fill="#F1F1F1" height="33.9688" rx="12.5" ry="12.5" style="stroke:#181818;stroke-width:0.5;" width="228.6758" x="223.6875" y="330.1719"/><text fill="#000000" font-family="sans-serif" font-size="12" lengthAdjust="spacing" textLength="208.6758" x="233.6875" y="351.3105">Record notification failure for retry</text><polygon fill="#F1F1F1" points="225.6846,370.1406,237.6846,382.1406,225.6846,394.1406,213.6846,382.1406,225.6846,370.1406" style="stroke:#181818;stroke-width:0.5;"/><ellipse cx="225.6846" cy="425.1406" fill="none" rx="11" ry="11" style="stroke:#222222;stroke-width:1;"/><ellipse cx="225.6846" cy="425.1406" fill="#222222" rx="6" ry="6" style="stroke:#222222;stroke-width:1;"/><line style="stroke:#181818;stroke-width:1;" x1="225.6846" x2="225.6846" y1="60.2969" y2="80.2969"/><polygon fill="#181818" points="221.6846,70.2969,225.6846,80.2969,229.6846,70.2969,225.6846,74.2969" style="stroke:#181818;stroke-width:1;"/><line style="stroke:#181818;stroke-width:1;" x1="225.6846" x2="225.6846" y1="114.2656" y2="134.2656"/><polygon fill="#181818" points="221.6846,124.2656,225.6846,134.2656,229.6846,124.2656,225.6846,128.2656" style="stroke:#181818;stroke-width:1;"/><line style="stroke:#181818;stroke-width:1;" x1="225.6846" x2="225.6846" y1="168.2344" y2="188.2344"/><polygon fill="#181818" points="221.6846,178.2344,225.6846,188.2344,229.6846,178.2344,225.6846,182.2344" style="stroke:#181818;stroke-width:1;"/><line style="stroke:#181818;stroke-width:1;" x1="225.6846" x2="225.6846" y1="222.2031" y2="242.2031"/><polygon fill="#181818" points="221.6846,232.2031,225.6846,242.2031,229.6846,232.2031,225.6846,236.2031" style="stroke:#181818;stroke-width:1;"/><line style="stroke:#181818;stroke-width:1;" x1="181.8662" x2="113.3438" y1="308.1719" y2="308.1719"/><line style="stroke:#181818;stroke-width:1;" x1="113.3438" x2="113.3438" y1="308.1719" y2="330.1719"/><polygon fill="#181818" points="109.3438,320.1719,113.3438,330.1719,117.3438,320.1719,113.3438,324.1719" style="stroke:#181818;stroke-width:1;"/><line style="stroke:#181818;stroke-width:1;" x1="269.5029" x2="338.0254" y1="308.1719" y2="308.1719"/><line style="stroke:#181818;stroke-width:1;" x1="338.0254" x2="338.0254" y1="308.1719" y2="330.1719"/><polygon fill="#181818" points="334.0254,320.1719,338.0254,330.1719,342.0254,320.1719,338.0254,324.1719" style="stroke:#181818;stroke-width:1;"/><line style="stroke:#181818;stroke-width:1;" x1="113.3438" x2="113.3438" y1="364.1406" y2="382.1406"/><line style="stroke:#181818;stroke-width:1;" x1="113.3438" x2="213.6846" y1="382.1406" y2="382.1406"/><polygon fill="#181818" points="203.6846,378.1406,213.6846,382.1406,203.6846,386.1406,207.6846,382.1406" style="stroke:#181818;stroke-width:1;"/><line style="stroke:#181818;stroke-width:1;" x1="338.0254" x2="338.0254" y1="364.1406" y2="382.1406"/><line style="stroke:#181818;stroke-width:1;" x1="338.0254" x2="237.6846" y1="382.1406" y2="382.1406"/><polygon fill="#181818" points="247.6846,378.1406,237.6846,382.1406,247.6846,386.1406,243.6846,382.1406" style="stroke:#181818;stroke-width:1;"/><line style="stroke:#181818;stroke-width:1;" x1="225.6846" x2="225.6846" y1="276.1719" y2="296.1719"/><polygon fill="#181818" points="221.6846,286.1719,225.6846,296.1719,229.6846,286.1719,225.6846,290.1719" style="stroke:#181818;stroke-width:1;"/><line style="stroke:#181818;stroke-width:1;" x1="225.6846" x2="225.6846" y1="394.1406" y2="414.1406"/><polygon fill="#181818" points="221.6846,404.1406,225.6846,414.1406,229.6846,404.1406,225.6846,408.1406" style="stroke:#181818;stroke-width:1;"/><?plantuml-src VP31IWCn48Rl-nG_FMqFXO87GGzYmKD1fTWd6BApTY0xYSciieZlRX8FrXuy3SDytp-PH4ec9a6nsXssLzZWkDzURvw3oRZWFiOKtXbF96gif8vnyAGhV7P0jYANUlF2ZgLWqnaM2mPgFdbepHD7RLFYjvcptLRrCT00DsSB4oUue4RECB2H-Do8tIn--1imSSxqolWGE_tkE9UEh1SEbyVvEfCH_KDja5djRWqxiQ9VEA_BzEUQa2vioeskFllCw3NyGuybVKwCCQHohAMbUJh8s7ujnEwh-mO0?></g></svg>