<?plantuml 1.2026.2?><svg xmlns="http://www.w3.org/2000/svg" xmlns:xlink="http://www.w3.org/1999/xlink" contentStyleType="text/css" data-diagram-type="ACTIVITY" height="341px" preserveAspectRatio="none" style="width:364px;height:341px;background:#FFFFFF;" version="1.1" viewBox="0 0 364 341" width="364px" zoomAndPan="magnify"><defs/><g><rect fill="none" height="319.1719" style="stroke:#000000;stroke-width:1.5;" width="342.7891" x="11" y="11"/><path d="M294.7178,11 L294.7178,20.2969 L284.7178,30.2969 L11,30.2969" fill="none" style="stroke:#000000;stroke-width:1.5;"/><text fill="#000000" font-family="sans-serif" font-size="14" lengthAdjust="spacing" textLength="273.7178" x="14" y="24.9951">BP04 - SI02-Set Maintenance Slot Time</text><ellipse cx="182.3945" cy="50.2969" fill="#222222" rx="10" ry="10" style="stroke:#222222;stroke-width:1;"/><rect fill="#F1F1F1" height="33.9688" rx="12.5" ry="12.5" style="stroke:#181818;stroke-width:0.5;" width="254.1406" x="55.3242" y="80.2969"/><text fill="#000000" font-family="sans-serif" font-size="12" lengthAdjust="spacing" textLength="234.1406" x="65.3242" y="101.4355">Receive proposed slot from back office</text><rect fill="#F1F1F1" height="33.9688" rx="12.5" ry="12.5" style="stroke:#181818;stroke-width:0.5;" width="182.9258" x="90.9316" y="134.2656"/><text fill="#000000" font-family="sans-serif" font-size="12" lengthAdjust="spacing" textLength="162.9258" x="100.9316" y="155.4043">Validate slot date and time</text><rect fill="#F1F1F1" height="33.9688" rx="12.5" ry="12.5" style="stroke:#181818;stroke-width:0.5;" width="219.7754" x="72.5068" y="188.2344"/><text fill="#000000" font-family="sans-serif" font-size="12" lengthAdjust="spacing" textLength="199.7754" x="82.5068" y="209.373">Store proposed maintenance slot</text><rect fill="#F1F1F1" height="33.9688" rx="12.5" ry="12.5" style="stroke:#181818;stroke-width:0.5;" width="322.7891" x="21" y="242.2031"/><text fill="#000000" font-family="sans-serif" font-size="12" lengthAdjust="spacing" textLength="302.7891" x="31" y="263.3418">Mark slot as allocated pending customer response</text><ellipse cx="182.3945" cy="307.1719" fill="none" rx="11" ry="11" style="stroke:#222222;stroke-width:1;"/><ellipse cx="182.3945" cy="307.1719" fill="#222222" rx="6" ry="6" style="stroke:#222222;stroke-width:1;"/><line style="stroke:#181818;stroke-width:1;" x1="182.3945" x2="182.3945" y1="60.2969" y2="80.2969"/><polygon fill="#181818" points="178.3945,70.2969,182.3945,80.2969,186.3945,70.2969,182.3945,74.2969" style="stroke:#181818;stroke-width:1;"/><line style="stroke:#181818;stroke-width:1;" x1="182.3945" x2="182.3945" y1="114.2656" y2="134.2656"/><polygon fill="#181818" points="178.3945,124.2656,182.3945,134.2656,186.3945,124.2656,182.3945,128.2656" style="stroke:#181818;stroke-width:1;"/><line style="stroke:#181818;stroke-width:1;" x1="182.3945" x2="182.3945" y1="168.2344" y2="188.2344"/><polygon fill="#181818" points="178.3945,178.2344,182.3945,188.2344,186.3945,178.2344,182.3945,182.2344" style="stroke:#181818;stroke-width:1;"/><line style="stroke:#181818;stroke-width:1;" x1="182.3945" x2="182.3945" y1="222.2031" y2="242.2031"/><polygon fill="#181818" points="178.3945,232.2031,182.3945,242.2031,186.3945,232.2031,182.3945,236.2031" style="stroke:#181818;stroke-width:1;"/><line style="stroke:#181818;stroke-width:1;" x1="182.3945" x2="182.3945" y1="276.1719" y2="296.1719"/><polygon fill="#181818" points="178.3945,286.1719,182.3945,296.1719,186.3945,286.1719,182.3945,290.1719" style="stroke:#181818;stroke-width:1;"/><?plantuml-src JOsn3i8m34JtViM9lLA5c61ZOwY4A68tYOkYfd6K61R4lvEcIoTRldVFaP8wTHAmEr-x0reCbsxV3gpeoGNbGC4m1Y-AkvjvXsy3P2srCeytDkm-Z9WaIcQBl81ZaXbFCXDa79tXqu8-o3jBoYjIDmeMMgGr7rJIHZHllY-DolIKfhLF6UIzcAAnY1oi2o-OTrQPEI5nZX9o5PTJR7xD7m00?></g></svg>