<?plantuml 1.2026.2?><svg xmlns="http://www.w3.org/2000/svg" xmlns:xlink="http://www.w3.org/1999/xlink" contentStyleType="text/css" data-diagram-type="ACTIVITY" height="341px" preserveAspectRatio="none" style="width:392px;height:341px;background:#FFFFFF;" version="1.1" viewBox="0 0 392 341" width="392px" zoomAndPan="magnify"><defs/><g><rect fill="none" height="319.1719" style="stroke:#000000;stroke-width:1.5;" width="370.1992" x="11" y="11"/><path d="M335.5693,11 L335.5693,20.2969 L325.5693,30.2969 L11,30.2969" fill="none" style="stroke:#000000;stroke-width:1.5;"/><text fill="#000000" font-family="sans-serif" font-size="14" lengthAdjust="spacing" textLength="314.5693" x="14" y="24.9951">BP04 - SI01-Start Schedule Maintenance Slot</text><ellipse cx="196.0996" cy="50.2969" fill="#222222" rx="10" ry="10" style="stroke:#222222;stroke-width:1;"/><rect fill="#F1F1F1" height="33.9688" rx="12.5" ry="12.5" style="stroke:#181818;stroke-width:0.5;" width="268.4082" x="61.8955" y="80.2969"/><text fill="#000000" font-family="sans-serif" font-size="12" lengthAdjust="spacing" textLength="248.4082" x="71.8955" y="101.4355">Receive maintenance scheduling request</text><rect fill="#F1F1F1" height="33.9688" rx="12.5" ry="12.5" style="stroke:#181818;stroke-width:0.5;" width="221.7324" x="85.2334" y="134.2656"/><text fill="#000000" font-family="sans-serif" font-size="12" lengthAdjust="spacing" textLength="201.7324" x="95.2334" y="155.4043">Validate active maintenance plan</text><rect fill="#F1F1F1" height="33.9688" rx="12.5" ry="12.5" style="stroke:#181818;stroke-width:0.5;" width="178.5957" x="106.8018" y="188.2344"/><text fill="#000000" font-family="sans-serif" font-size="12" lengthAdjust="spacing" textLength="158.5957" x="116.8018" y="209.373">Create scheduling request</text><rect fill="#F1F1F1" height="33.9688" rx="12.5" ry="12.5" style="stroke:#181818;stroke-width:0.5;" width="350.1992" x="21" y="242.2031"/><text fill="#000000" font-family="sans-serif" font-size="12" lengthAdjust="spacing" textLength="330.1992" x="31" y="263.3418">Send request to back office for contractor coordination</text><ellipse cx="196.0996" cy="307.1719" fill="none" rx="11" ry="11" style="stroke:#222222;stroke-width:1;"/><ellipse cx="196.0996" cy="307.1719" fill="#222222" rx="6" ry="6" style="stroke:#222222;stroke-width:1;"/><line style="stroke:#181818;stroke-width:1;" x1="196.0996" x2="196.0996" y1="60.2969" y2="80.2969"/><polygon fill="#181818" points="192.0996,70.2969,196.0996,80.2969,200.0996,70.2969,196.0996,74.2969" style="stroke:#181818;stroke-width:1;"/><line style="stroke:#181818;stroke-width:1;" x1="196.0996" x2="196.0996" y1="114.2656" y2="134.2656"/><polygon fill="#181818" points="192.0996,124.2656,196.0996,134.2656,200.0996,124.2656,196.0996,128.2656" style="stroke:#181818;stroke-width:1;"/><line style="stroke:#181818;stroke-width:1;" x1="196.0996" x2="196.0996" y1="168.2344" y2="188.2344"/><polygon fill="#181818" points="192.0996,178.2344,196.0996,188.2344,200.0996,178.2344,196.0996,182.2344" style="stroke:#181818;stroke-width:1;"/><line style="stroke:#181818;stroke-width:1;" x1="196.0996" x2="196.0996" y1="222.2031" y2="242.2031"/><polygon fill="#181818" points="192.0996,232.2031,196.0996,242.2031,200.0996,232.2031,196.0996,236.2031" style="stroke:#181818;stroke-width:1;"/><line style="stroke:#181818;stroke-width:1;" x1="196.0996" x2="196.0996" y1="276.1719" y2="296.1719"/><polygon fill="#181818" points="192.0996,286.1719,196.0996,296.1719,200.0996,286.1719,196.0996,290.1719" style="stroke:#181818;stroke-width:1;"/><?plantuml-src TO-n2i9038RtFaLmBrHmifjE3e9uu1xlKWsUIRscBkAxUrSHH71A-Fd-ZwJ7P6oi0hFLhbb03MxJp6jdEGVdpnJ6IB155YD1yGGkgitWKG4C1SfpkITFV2UuVc73kyjoWaItaGPh2th0o06D0BtzLlg8Ca7hH0Nvet0auHE0AHpHNq2xZhEYqmHUnLBMJwkcm8BbmNQwMFlgMRq0?></g></svg>