<?plantuml 1.2026.2?><svg xmlns="http://www.w3.org/2000/svg" xmlns:xlink="http://www.w3.org/1999/xlink" contentStyleType="text/css" data-diagram-type="ACTIVITY" height="341px" preserveAspectRatio="none" style="width:355px;height:341px;background:#FFFFFF;" version="1.1" viewBox="0 0 355 341" width="355px" zoomAndPan="magnify"><defs/><g><rect fill="none" height="319.1719" style="stroke:#000000;stroke-width:1.5;" width="333.8896" x="11" y="11"/><path d="M339.8896,11 L339.8896,20.2969 L329.8896,30.2969 L11,30.2969" fill="none" style="stroke:#000000;stroke-width:1.5;"/><text fill="#000000" font-family="sans-serif" font-size="14" lengthAdjust="spacing" textLength="318.8896" x="14" y="24.9951">BP05 - SI02-Confirm Cancel Maintenance Slot</text><ellipse cx="180.4448" cy="50.2969" fill="#222222" rx="10" ry="10" style="stroke:#222222;stroke-width:1;"/><rect fill="#F1F1F1" height="33.9688" rx="12.5" ry="12.5" style="stroke:#181818;stroke-width:0.5;" width="277.8359" x="41.5269" y="80.2969"/><text fill="#000000" font-family="sans-serif" font-size="12" lengthAdjust="spacing" textLength="257.8359" x="51.5269" y="101.4355">Receive provider cancellation confirmation</text><rect fill="#F1F1F1" height="33.9688" rx="12.5" ry="12.5" style="stroke:#181818;stroke-width:0.5;" width="288.9043" x="35.9927" y="134.2656"/><text fill="#000000" font-family="sans-serif" font-size="12" lengthAdjust="spacing" textLength="268.9043" x="45.9927" y="155.4043">Update maintenance slot status to cancelled</text><rect fill="#F1F1F1" height="33.9688" rx="12.5" ry="12.5" style="stroke:#181818;stroke-width:0.5;" width="260.375" x="50.2573" y="188.2344"/><text fill="#000000" font-family="sans-serif" font-size="12" lengthAdjust="spacing" textLength="240.375" x="60.2573" y="209.373">Store cancellation timestamp and notes</text><rect fill="#F1F1F1" height="33.9688" rx="12.5" ry="12.5" style="stroke:#181818;stroke-width:0.5;" width="271.127" x="44.8813" y="242.2031"/><text fill="#000000" font-family="sans-serif" font-size="12" lengthAdjust="spacing" textLength="251.127" x="54.8813" y="263.3418">Trigger customer cancellation notification</text><ellipse cx="180.4448" cy="307.1719" fill="none" rx="11" ry="11" style="stroke:#222222;stroke-width:1;"/><ellipse cx="180.4448" cy="307.1719" fill="#222222" rx="6" ry="6" style="stroke:#222222;stroke-width:1;"/><line style="stroke:#181818;stroke-width:1;" x1="180.4448" x2="180.4448" y1="60.2969" y2="80.2969"/><polygon fill="#181818" points="176.4448,70.2969,180.4448,80.2969,184.4448,70.2969,180.4448,74.2969" style="stroke:#181818;stroke-width:1;"/><line style="stroke:#181818;stroke-width:1;" x1="180.4448" x2="180.4448" y1="114.2656" y2="134.2656"/><polygon fill="#181818" points="176.4448,124.2656,180.4448,134.2656,184.4448,124.2656,180.4448,128.2656" style="stroke:#181818;stroke-width:1;"/><line style="stroke:#181818;stroke-width:1;" x1="180.4448" x2="180.4448" y1="168.2344" y2="188.2344"/><polygon fill="#181818" points="176.4448,178.2344,180.4448,188.2344,184.4448,178.2344,180.4448,182.2344" style="stroke:#181818;stroke-width:1;"/><line style="stroke:#181818;stroke-width:1;" x1="180.4448" x2="180.4448" y1="222.2031" y2="242.2031"/><polygon fill="#181818" points="176.4448,232.2031,180.4448,242.2031,184.4448,232.2031,180.4448,236.2031" style="stroke:#181818;stroke-width:1;"/><line style="stroke:#181818;stroke-width:1;" x1="180.4448" x2="180.4448" y1="276.1719" y2="296.1719"/><polygon fill="#181818" points="176.4448,286.1719,180.4448,296.1719,184.4448,286.1719,180.4448,290.1719" style="stroke:#181818;stroke-width:1;"/><?plantuml-src NOx12i8m44Jl_Ogbzq8HlEZDdZm8OlG3Gh8j2qqs9DjUn7ytYIZgQHXuyvYWev0GUsWFvtuB7QXZl-a6zYD51uFs1cSuQVA2lXHGCqiBzmOWIHxdt5tG8Aq88V9A5YEOEfjr5PkNgvPzmM_1Qa5mNzAKfSKdImBXznvjvPLmn5-daCECkm3QM_0ic2fwZJHDvS2IXDt_aypHIERp93EXUJHF?></g></svg>