<?plantuml 1.2026.2?><svg xmlns="http://www.w3.org/2000/svg" xmlns:xlink="http://www.w3.org/1999/xlink" contentStyleType="text/css" data-diagram-type="ACTIVITY" height="341px" preserveAspectRatio="none" style="width:397px;height:341px;background:#FFFFFF;" version="1.1" viewBox="0 0 397 341" width="397px" zoomAndPan="magnify"><defs/><g><rect fill="none" height="319.1719" style="stroke:#000000;stroke-width:1.5;" width="375.6426" x="11" y="11"/><path d="M318.6641,11 L318.6641,20.2969 L308.6641,30.2969 L11,30.2969" fill="none" style="stroke:#000000;stroke-width:1.5;"/><text fill="#000000" font-family="sans-serif" font-size="14" lengthAdjust="spacing" textLength="297.6641" x="14" y="24.9951">BP05 - SI01-Start Cancel Maintenance Slot</text><ellipse cx="198.8213" cy="50.2969" fill="#222222" rx="10" ry="10" style="stroke:#222222;stroke-width:1;"/><rect fill="#F1F1F1" height="33.9688" rx="12.5" ry="12.5" style="stroke:#181818;stroke-width:0.5;" width="193.5723" x="102.0352" y="80.2969"/><text fill="#000000" font-family="sans-serif" font-size="12" lengthAdjust="spacing" textLength="173.5723" x="112.0352" y="101.4355">Receive cancellation request</text><rect fill="#F1F1F1" height="33.9688" rx="12.5" ry="12.5" style="stroke:#181818;stroke-width:0.5;" width="216.0078" x="90.8174" y="134.2656"/><text fill="#000000" font-family="sans-serif" font-size="12" lengthAdjust="spacing" textLength="196.0078" x="100.8174" y="155.4043">Validate maintenance slot exists</text><rect fill="#F1F1F1" height="33.9688" rx="12.5" ry="12.5" style="stroke:#181818;stroke-width:0.5;" width="355.6426" x="21" y="188.2344"/><text fill="#000000" font-family="sans-serif" font-size="12" lengthAdjust="spacing" textLength="335.6426" x="31" y="209.373">Set cancellation status to pending provider cancellation</text><rect fill="#F1F1F1" height="33.9688" rx="12.5" ry="12.5" style="stroke:#181818;stroke-width:0.5;" width="240.7695" x="78.4365" y="242.2031"/><text fill="#000000" font-family="sans-serif" font-size="12" lengthAdjust="spacing" textLength="220.7695" x="88.4365" y="263.3418">Send cancellation task to back office</text><ellipse cx="198.8213" cy="307.1719" fill="none" rx="11" ry="11" style="stroke:#222222;stroke-width:1;"/><ellipse cx="198.8213" cy="307.1719" fill="#222222" rx="6" ry="6" style="stroke:#222222;stroke-width:1;"/><line style="stroke:#181818;stroke-width:1;" x1="198.8213" x2="198.8213" y1="60.2969" y2="80.2969"/><polygon fill="#181818" points="194.8213,70.2969,198.8213,80.2969,202.8213,70.2969,198.8213,74.2969" style="stroke:#181818;stroke-width:1;"/><line style="stroke:#181818;stroke-width:1;" x1="198.8213" x2="198.8213" y1="114.2656" y2="134.2656"/><polygon fill="#181818" points="194.8213,124.2656,198.8213,134.2656,202.8213,124.2656,198.8213,128.2656" style="stroke:#181818;stroke-width:1;"/><line style="stroke:#181818;stroke-width:1;" x1="198.8213" x2="198.8213" y1="168.2344" y2="188.2344"/><polygon fill="#181818" points="194.8213,178.2344,198.8213,188.2344,202.8213,178.2344,198.8213,182.2344" style="stroke:#181818;stroke-width:1;"/><line style="stroke:#181818;stroke-width:1;" x1="198.8213" x2="198.8213" y1="222.2031" y2="242.2031"/><polygon fill="#181818" points="194.8213,232.2031,198.8213,242.2031,202.8213,232.2031,198.8213,236.2031" style="stroke:#181818;stroke-width:1;"/><line style="stroke:#181818;stroke-width:1;" x1="198.8213" x2="198.8213" y1="276.1719" y2="296.1719"/><polygon fill="#181818" points="194.8213,286.1719,198.8213,296.1719,202.8213,286.1719,198.8213,290.1719" style="stroke:#181818;stroke-width:1;"/><?plantuml-src LOwn2i8m443tViNHlL075xlfv2280VSpkShHcCJaMWJntqs2WvsEEzvxNC0eBEmTjFjpluKErB7VT4ho7GxeD5au8JiXLnPGraiBxmOW5IJFtOKqyKAWAssnrY8zPqeo5E2AbWqAmUClb788wCL9KeKKoRgG-p8d40-1d65tXn3zmeRYYll9pgnjmJGLzuPw0Z-Eh6ceJ_lGV9el?></g></svg>