<?plantuml 1.2026.2?><svg xmlns="http://www.w3.org/2000/svg" xmlns:xlink="http://www.w3.org/1999/xlink" contentStyleType="text/css" data-diagram-type="ACTIVITY" height="405px" preserveAspectRatio="none" style="width:597px;height:405px;background:#FFFFFF;" version="1.1" viewBox="0 0 597 405" width="597px" zoomAndPan="magnify"><defs/><g><rect fill="none" height="383.1719" style="stroke:#000000;stroke-width:1.5;" width="575.4199" x="11" y="11"/><path d="M235.293,11 L235.293,20.2969 L225.293,30.2969 L11,30.2969" fill="none" style="stroke:#000000;stroke-width:1.5;"/><text fill="#000000" font-family="sans-serif" font-size="14" lengthAdjust="spacing" textLength="214.293" x="14" y="24.9951">BP01 - SI04-Check registration</text><ellipse cx="315.0063" cy="50.2969" fill="#222222" rx="10" ry="10" style="stroke:#222222;stroke-width:1;"/><rect fill="#F1F1F1" height="33.9688" rx="12.5" ry="12.5" style="stroke:#181818;stroke-width:0.5;" width="262.1797" x="183.9165" y="80.2969"/><text fill="#000000" font-family="sans-serif" font-size="12" lengthAdjust="spacing" textLength="242.1797" x="193.9165" y="101.4355">Receive pending equipment registration</text><rect fill="#F1F1F1" height="33.9688" rx="12.5" ry="12.5" style="stroke:#181818;stroke-width:0.5;" width="240.623" x="194.6948" y="134.2656"/><text fill="#000000" font-family="sans-serif" font-size="12" lengthAdjust="spacing" textLength="220.623" x="204.6948" y="155.4043">Review submitted equipment details</text><rect fill="#F1F1F1" height="33.9688" rx="12.5" ry="12.5" style="stroke:#181818;stroke-width:0.5;" width="314.873" x="157.5698" y="188.2344"/><text fill="#000000" font-family="sans-serif" font-size="12" lengthAdjust="spacing" textLength="294.873" x="167.5698" y="209.373">Check whether additional information is required</text><polygon fill="#F1F1F1" points="225.7576,242.2031,404.2551,242.2031,416.2551,254.2031,404.2551,266.2031,225.7576,266.2031,213.7576,254.2031,225.7576,242.2031" style="stroke:#181818;stroke-width:0.5;"/><text fill="#000000" font-family="sans-serif" font-size="11" lengthAdjust="spacing" textLength="178.4976" x="225.7576" y="258.0112">Additional information required?</text><text fill="#000000" font-family="sans-serif" font-size="11" lengthAdjust="spacing" textLength="19.0083" x="194.7493" y="251.6089">yes</text><text fill="#000000" font-family="sans-serif" font-size="11" lengthAdjust="spacing" textLength="13.7017" x="416.2551" y="251.6089">no</text><rect fill="#F1F1F1" height="33.9688" rx="12.5" ry="12.5" style="stroke:#181818;stroke-width:0.5;" width="298.3027" x="23" y="276.2031"/><text fill="#000000" font-family="sans-serif" font-size="12" lengthAdjust="spacing" textLength="278.3027" x="33" y="297.3418">Request additional information from customer</text><rect fill="#F1F1F1" height="33.9688" rx="12.5" ry="12.5" style="stroke:#181818;stroke-width:0.5;" width="233.1172" x="341.3027" y="276.2031"/><text fill="#000000" font-family="sans-serif" font-size="12" lengthAdjust="spacing" textLength="213.1172" x="351.3027" y="297.3418">Prepare approval or denial decision</text><polygon fill="#F1F1F1" points="315.0063,316.1719,327.0063,328.1719,315.0063,340.1719,303.0063,328.1719,315.0063,316.1719" style="stroke:#181818;stroke-width:0.5;"/><ellipse cx="315.0063" cy="371.1719" fill="none" rx="11" ry="11" style="stroke:#222222;stroke-width:1;"/><ellipse cx="315.0063" cy="371.1719" fill="#222222" rx="6" ry="6" style="stroke:#222222;stroke-width:1;"/><line style="stroke:#181818;stroke-width:1;" x1="315.0063" x2="315.0063" y1="60.2969" y2="80.2969"/><polygon fill="#181818" points="311.0063,70.2969,315.0063,80.2969,319.0063,70.2969,315.0063,74.2969" style="stroke:#181818;stroke-width:1;"/><line style="stroke:#181818;stroke-width:1;" x1="315.0063" x2="315.0063" y1="114.2656" y2="134.2656"/><polygon fill="#181818" points="311.0063,124.2656,315.0063,134.2656,319.0063,124.2656,315.0063,128.2656" style="stroke:#181818;stroke-width:1;"/><line style="stroke:#181818;stroke-width:1;" x1="315.0063" x2="315.0063" y1="168.2344" y2="188.2344"/><polygon fill="#181818" points="311.0063,178.2344,315.0063,188.2344,319.0063,178.2344,315.0063,182.2344" style="stroke:#181818;stroke-width:1;"/><line style="stroke:#181818;stroke-width:1;" x1="213.7576" x2="172.1514" y1="254.2031" y2="254.2031"/><line style="stroke:#181818;stroke-width:1;" x1="172.1514" x2="172.1514" y1="254.2031" y2="276.2031"/><polygon fill="#181818" points="168.1514,266.2031,172.1514,276.2031,176.1514,266.2031,172.1514,270.2031" style="stroke:#181818;stroke-width:1;"/><line style="stroke:#181818;stroke-width:1;" x1="416.2551" x2="457.8613" y1="254.2031" y2="254.2031"/><line style="stroke:#181818;stroke-width:1;" x1="457.8613" x2="457.8613" y1="254.2031" y2="276.2031"/><polygon fill="#181818" points="453.8613,266.2031,457.8613,276.2031,461.8613,266.2031,457.8613,270.2031" style="stroke:#181818;stroke-width:1;"/><line style="stroke:#181818;stroke-width:1;" x1="172.1514" x2="172.1514" y1="310.1719" y2="328.1719"/><line style="stroke:#181818;stroke-width:1;" x1="172.1514" x2="303.0063" y1="328.1719" y2="328.1719"/><polygon fill="#181818" points="293.0063,324.1719,303.0063,328.1719,293.0063,332.1719,297.0063,328.1719" style="stroke:#181818;stroke-width:1;"/><line style="stroke:#181818;stroke-width:1;" x1="457.8613" x2="457.8613" y1="310.1719" y2="328.1719"/><line style="stroke:#181818;stroke-width:1;" x1="457.8613" x2="327.0063" y1="328.1719" y2="328.1719"/><polygon fill="#181818" points="337.0063,324.1719,327.0063,328.1719,337.0063,332.1719,333.0063,328.1719" style="stroke:#181818;stroke-width:1;"/><line style="stroke:#181818;stroke-width:1;" x1="315.0063" x2="315.0063" y1="222.2031" y2="242.2031"/><polygon fill="#181818" points="311.0063,232.2031,315.0063,242.2031,319.0063,232.2031,315.0063,236.2031" style="stroke:#181818;stroke-width:1;"/><line style="stroke:#181818;stroke-width:1;" x1="315.0063" x2="315.0063" y1="340.1719" y2="360.1719"/><polygon fill="#181818" points="311.0063,350.1719,315.0063,360.1719,319.0063,350.1719,315.0063,354.1719" style="stroke:#181818;stroke-width:1;"/><?plantuml-src TP2xJiD044LxVyKebLD42b8gA11GqKNm1OltEXxXVMHcx2X2_3lhJP10Wcf7sdFkFB8JO-CKQVMutzxGXbwVjxlDqu3kdGG7LXEt_A_eeo5IAtnvRr_GWMTGHlGS3uJZn3aWsY_fxeBEZ1Ffz1RO3Fu7ws6EHwtOfULfW0qGSjxNiTn87FiaeUOHQyalki0l4lVKFlnDVcFtQog1aTepT5sKEj1nWjf_FNf9WRf9BGN8qWMZWjgOhlfUa9s0NCwIvY8dAOj4BfL7nthTUpbCNq-MSlFPV040?></g></svg>