<?plantuml 1.2026.2?><svg xmlns="http://www.w3.org/2000/svg" xmlns:xlink="http://www.w3.org/1999/xlink" contentStyleType="text/css" data-diagram-type="ACTIVITY" height="400px" preserveAspectRatio="none" style="width:619px;height:400px;background:#FFFFFF;" version="1.1" viewBox="0 0 619 400" width="619px" zoomAndPan="magnify"><title>BP01 - SI05-Add equipment information</title><defs/><g><g class="title" data-source-line="1"><text fill="#000000" font-family="sans-serif" font-size="14" font-weight="bold" lengthAdjust="spacing" textLength="314.7197" x="150.7251" y="32.9951">BP01 - SI05-Add equipment information</text></g><ellipse cx="318.9468" cy="57.2969" fill="#222222" rx="10" ry="10" style="stroke:#222222;stroke-width:1;"/><rect fill="#F1F1F1" height="33.9688" rx="12.5" ry="12.5" style="stroke:#181818;stroke-width:0.5;" width="337.6602" x="150.1167" y="87.2969"/><text fill="#000000" font-family="sans-serif" font-size="12" lengthAdjust="spacing" textLength="317.6602" x="160.1167" y="108.4355">Receive requested additional equipment information</text><rect fill="#F1F1F1" height="33.9688" rx="12.5" ry="12.5" style="stroke:#181818;stroke-width:0.5;" width="207.2949" x="215.2993" y="141.2656"/><text fill="#000000" font-family="sans-serif" font-size="12" lengthAdjust="spacing" textLength="187.2949" x="225.2993" y="162.4043">Validate submitted information</text><polygon fill="#F1F1F1" points="253.4329,195.2344,384.4607,195.2344,396.4607,207.2344,384.4607,219.2344,253.4329,219.2344,241.4329,207.2344,253.4329,195.2344" style="stroke:#181818;stroke-width:0.5;"/><text fill="#000000" font-family="sans-serif" font-size="11" lengthAdjust="spacing" textLength="131.0278" x="253.4329" y="211.0425">Information is complete</text><text fill="#000000" font-family="sans-serif" font-size="11" lengthAdjust="spacing" textLength="19.0083" x="222.4246" y="204.6401">yes</text><text fill="#000000" font-family="sans-serif" font-size="11" lengthAdjust="spacing" textLength="13.7017" x="396.4607" y="204.6401">no</text><rect fill="#F1F1F1" height="33.9688" rx="12.5" ry="12.5" style="stroke:#181818;stroke-width:0.5;" width="258.1191" x="35.5947" y="229.2344"/><text fill="#000000" font-family="sans-serif" font-size="12" lengthAdjust="spacing" textLength="238.1191" x="45.5947" y="250.373">Update pending equipment registration</text><rect fill="#F1F1F1" height="33.9688" rx="12.5" ry="12.5" style="stroke:#181818;stroke-width:0.5;" width="307.3086" x="11" y="283.2031"/><text fill="#000000" font-family="sans-serif" font-size="12" lengthAdjust="spacing" textLength="287.3086" x="21" y="304.3418">Send updated registration for approval decision</text><rect fill="#F1F1F1" height="33.9688" rx="12.5" ry="12.5" style="stroke:#181818;stroke-width:0.5;" width="269.8613" x="338.3086" y="229.2344"/><text fill="#000000" font-family="sans-serif" font-size="12" lengthAdjust="spacing" textLength="249.8613" x="348.3086" y="250.373">Request missing or corrected information</text><polygon fill="#F1F1F1" points="318.9468,323.1719,330.9468,335.1719,318.9468,347.1719,306.9468,335.1719,318.9468,323.1719" style="stroke:#181818;stroke-width:0.5;"/><ellipse cx="318.9468" cy="378.1719" fill="none" rx="11" ry="11" style="stroke:#222222;stroke-width:1;"/><ellipse cx="318.9468" cy="378.1719" fill="#222222" rx="6" ry="6" style="stroke:#222222;stroke-width:1;"/><line style="stroke:#181818;stroke-width:1;" x1="318.9468" x2="318.9468" y1="67.2969" y2="87.2969"/><polygon fill="#181818" points="314.9468,77.2969,318.9468,87.2969,322.9468,77.2969,318.9468,81.2969" style="stroke:#181818;stroke-width:1;"/><line style="stroke:#181818;stroke-width:1;" x1="318.9468" x2="318.9468" y1="121.2656" y2="141.2656"/><polygon fill="#181818" points="314.9468,131.2656,318.9468,141.2656,322.9468,131.2656,318.9468,135.2656" style="stroke:#181818;stroke-width:1;"/><line style="stroke:#181818;stroke-width:1;" x1="164.6543" x2="164.6543" y1="263.2031" y2="283.2031"/><polygon fill="#181818" points="160.6543,273.2031,164.6543,283.2031,168.6543,273.2031,164.6543,277.2031" style="stroke:#181818;stroke-width:1;"/><line style="stroke:#181818;stroke-width:1;" x1="241.4329" x2="164.6543" y1="207.2344" y2="207.2344"/><line style="stroke:#181818;stroke-width:1;" x1="164.6543" x2="164.6543" y1="207.2344" y2="229.2344"/><polygon fill="#181818" points="160.6543,219.2344,164.6543,229.2344,168.6543,219.2344,164.6543,223.2344" style="stroke:#181818;stroke-width:1;"/><line style="stroke:#181818;stroke-width:1;" x1="396.4607" x2="473.2393" y1="207.2344" y2="207.2344"/><line style="stroke:#181818;stroke-width:1;" x1="473.2393" x2="473.2393" y1="207.2344" y2="229.2344"/><polygon fill="#181818" points="469.2393,219.2344,473.2393,229.2344,477.2393,219.2344,473.2393,223.2344" style="stroke:#181818;stroke-width:1;"/><line style="stroke:#181818;stroke-width:1;" x1="164.6543" x2="164.6543" y1="317.1719" y2="335.1719"/><line style="stroke:#181818;stroke-width:1;" x1="164.6543" x2="306.9468" y1="335.1719" y2="335.1719"/><polygon fill="#181818" points="296.9468,331.1719,306.9468,335.1719,296.9468,339.1719,300.9468,335.1719" style="stroke:#181818;stroke-width:1;"/><line style="stroke:#181818;stroke-width:1;" x1="473.2393" x2="473.2393" y1="263.2031" y2="335.1719"/><line style="stroke:#181818;stroke-width:1;" x1="473.2393" x2="330.9468" y1="335.1719" y2="335.1719"/><polygon fill="#181818" points="340.9468,331.1719,330.9468,335.1719,340.9468,339.1719,336.9468,335.1719" style="stroke:#181818;stroke-width:1;"/><line style="stroke:#181818;stroke-width:1;" x1="318.9468" x2="318.9468" y1="175.2344" y2="195.2344"/><polygon fill="#181818" points="314.9468,185.2344,318.9468,195.2344,322.9468,185.2344,318.9468,189.2344" style="stroke:#181818;stroke-width:1;"/><line style="stroke:#181818;stroke-width:1;" x1="318.9468" x2="318.9468" y1="347.1719" y2="367.1719"/><polygon fill="#181818" points="314.9468,357.1719,318.9468,367.1719,322.9468,357.1719,318.9468,361.1719" style="stroke:#181818;stroke-width:1;"/><?plantuml-src RP2xJWD134Nx-OfRRef8eQ1PAkZIeKIa7yRUO6bU6NiZvU-PNP0WWjO-zs6RM6IylEuUiCLnltlSFXE1BxFKnDaWUIejUPEIdLFppTnuuC1oPRIEiHeJF94iY8__Iv_SUF9Ho1j3v_SajgZk09amx7y644KegKOsti0-E6EuiMuSCBxLrQXo9iddNucDpwBMlXqxUUm8vXMdkorw47ojhLnxP-8WkceuAcF8PSqvVDs79AfBK9U4qXg7F-MN9bD_Jwdk4m00?></g></svg>