<?plantuml 1.2026.2?><svg xmlns="http://www.w3.org/2000/svg" xmlns:xlink="http://www.w3.org/1999/xlink" contentStyleType="text/css" data-diagram-type="ACTIVITY" height="400px" preserveAspectRatio="none" style="width:492px;height:400px;background:#FFFFFF;" version="1.1" viewBox="0 0 492 400" width="492px" zoomAndPan="magnify"><title>BP01 - SI02-Retrieve Equipment Registration Form</title><defs/><g><g class="title" data-source-line="1"><text fill="#000000" font-family="sans-serif" font-size="14" font-weight="bold" lengthAdjust="spacing" textLength="401.3037" x="43.9702" y="32.9951">BP01 - SI02-Retrieve Equipment Registration Form</text></g><ellipse cx="259.1313" cy="57.2969" fill="#222222" rx="10" ry="10" style="stroke:#222222;stroke-width:1;"/><rect fill="#F1F1F1" height="33.9688" rx="12.5" ry="12.5" style="stroke:#181818;stroke-width:0.5;" width="221.3633" x="148.4497" y="87.2969"/><text fill="#000000" font-family="sans-serif" font-size="12" lengthAdjust="spacing" textLength="201.3633" x="158.4497" y="108.4355">Receive selected equipment type</text><rect fill="#F1F1F1" height="33.9688" rx="12.5" ry="12.5" style="stroke:#181818;stroke-width:0.5;" width="193.2207" x="162.521" y="141.2656"/><text fill="#000000" font-family="sans-serif" font-size="12" lengthAdjust="spacing" textLength="173.2207" x="172.521" y="162.4043">Validate selected type exists</text><rect fill="#F1F1F1" height="33.9688" rx="12.5" ry="12.5" style="stroke:#181818;stroke-width:0.5;" width="233.8613" x="142.2007" y="195.2344"/><text fill="#000000" font-family="sans-serif" font-size="12" lengthAdjust="spacing" textLength="213.8613" x="152.2007" y="216.373">Retrieve registration form template</text><polygon fill="#F1F1F1" points="188.915,249.2031,329.3477,249.2031,341.3477,261.2031,329.3477,273.2031,188.915,273.2031,176.915,261.2031,188.915,249.2031" style="stroke:#181818;stroke-width:0.5;"/><text fill="#000000" font-family="sans-serif" font-size="11" lengthAdjust="spacing" textLength="140.4326" x="188.915" y="265.0112">Form template available?</text><text fill="#000000" font-family="sans-serif" font-size="11" lengthAdjust="spacing" textLength="19.0083" x="157.9067" y="258.6089">yes</text><text fill="#000000" font-family="sans-serif" font-size="11" lengthAdjust="spacing" textLength="13.7017" x="341.3477" y="258.6089">no</text><rect fill="#F1F1F1" height="33.9688" rx="12.5" ry="12.5" style="stroke:#181818;stroke-width:0.5;" width="251.1406" x="11" y="283.2031"/><text fill="#000000" font-family="sans-serif" font-size="12" lengthAdjust="spacing" textLength="231.1406" x="21" y="304.3418">Return form fields and validation rules</text><rect fill="#F1F1F1" height="33.9688" rx="12.5" ry="12.5" style="stroke:#181818;stroke-width:0.5;" width="199.1035" x="282.1406" y="283.2031"/><text fill="#000000" font-family="sans-serif" font-size="12" lengthAdjust="spacing" textLength="179.1035" x="292.1406" y="304.3418">Return form unavailable error</text><polygon fill="#F1F1F1" points="259.1313,323.1719,271.1313,335.1719,259.1313,347.1719,247.1313,335.1719,259.1313,323.1719" style="stroke:#181818;stroke-width:0.5;"/><ellipse cx="259.1313" cy="378.1719" fill="none" rx="11" ry="11" style="stroke:#222222;stroke-width:1;"/><ellipse cx="259.1313" cy="378.1719" fill="#222222" rx="6" ry="6" style="stroke:#222222;stroke-width:1;"/><line style="stroke:#181818;stroke-width:1;" x1="259.1313" x2="259.1313" y1="67.2969" y2="87.2969"/><polygon fill="#181818" points="255.1313,77.2969,259.1313,87.2969,263.1313,77.2969,259.1313,81.2969" style="stroke:#181818;stroke-width:1;"/><line style="stroke:#181818;stroke-width:1;" x1="259.1313" x2="259.1313" y1="121.2656" y2="141.2656"/><polygon fill="#181818" points="255.1313,131.2656,259.1313,141.2656,263.1313,131.2656,259.1313,135.2656" style="stroke:#181818;stroke-width:1;"/><line style="stroke:#181818;stroke-width:1;" x1="259.1313" x2="259.1313" y1="175.2344" y2="195.2344"/><polygon fill="#181818" points="255.1313,185.2344,259.1313,195.2344,263.1313,185.2344,259.1313,189.2344" style="stroke:#181818;stroke-width:1;"/><line style="stroke:#181818;stroke-width:1;" x1="176.915" x2="136.5703" y1="261.2031" y2="261.2031"/><line style="stroke:#181818;stroke-width:1;" x1="136.5703" x2="136.5703" y1="261.2031" y2="283.2031"/><polygon fill="#181818" points="132.5703,273.2031,136.5703,283.2031,140.5703,273.2031,136.5703,277.2031" style="stroke:#181818;stroke-width:1;"/><line style="stroke:#181818;stroke-width:1;" x1="341.3477" x2="381.6924" y1="261.2031" y2="261.2031"/><line style="stroke:#181818;stroke-width:1;" x1="381.6924" x2="381.6924" y1="261.2031" y2="283.2031"/><polygon fill="#181818" points="377.6924,273.2031,381.6924,283.2031,385.6924,273.2031,381.6924,277.2031" style="stroke:#181818;stroke-width:1;"/><line style="stroke:#181818;stroke-width:1;" x1="136.5703" x2="136.5703" y1="317.1719" y2="335.1719"/><line style="stroke:#181818;stroke-width:1;" x1="136.5703" x2="247.1313" y1="335.1719" y2="335.1719"/><polygon fill="#181818" points="237.1313,331.1719,247.1313,335.1719,237.1313,339.1719,241.1313,335.1719" style="stroke:#181818;stroke-width:1;"/><line style="stroke:#181818;stroke-width:1;" x1="381.6924" x2="381.6924" y1="317.1719" y2="335.1719"/><line style="stroke:#181818;stroke-width:1;" x1="381.6924" x2="271.1313" y1="335.1719" y2="335.1719"/><polygon fill="#181818" points="281.1313,331.1719,271.1313,335.1719,281.1313,339.1719,277.1313,335.1719" style="stroke:#181818;stroke-width:1;"/><line style="stroke:#181818;stroke-width:1;" x1="259.1313" x2="259.1313" y1="229.2031" y2="249.2031"/><polygon fill="#181818" points="255.1313,239.2031,259.1313,249.2031,263.1313,239.2031,259.1313,243.2031" style="stroke:#181818;stroke-width:1;"/><line style="stroke:#181818;stroke-width:1;" x1="259.1313" x2="259.1313" y1="347.1719" y2="367.1719"/><polygon fill="#181818" points="255.1313,357.1719,259.1313,367.1719,263.1313,357.1719,259.1313,361.1719" style="stroke:#181818;stroke-width:1;"/><?plantuml-src PO-nQiD044Jx-uefvSBWkBIAG226T4Q1z6VVA5autSbxAn7_VKxO647QtPdtTaqi4c-dtGks-FpOxRSTJOKpyNwTP1oO31s_fPXwavnmp3euLyohkKF72wLc2oClnW0-ItORsRh3buyIlAqYomByhSJIBeI7JjUIlafW7CPOgwsJ7irnFOAVlKH_ZdpTm7wOqDnODWvOW9C-2BqmXWAV0kRx7GjSfyYgPYn4a_A_rfIUT50rQysc87rzEe_k3m00?></g></svg>