<?plantuml 1.2026.2?><svg xmlns="http://www.w3.org/2000/svg" xmlns:xlink="http://www.w3.org/1999/xlink" contentStyleType="text/css" data-diagram-type="ACTIVITY" height="400px" preserveAspectRatio="none" style="width:476px;height:400px;background:#FFFFFF;" version="1.1" viewBox="0 0 476 400" width="476px" zoomAndPan="magnify"><title>BP01 - SI03-Register Equipment</title><defs/><g><g class="title" data-source-line="1"><text fill="#000000" font-family="sans-serif" font-size="14" font-weight="bold" lengthAdjust="spacing" textLength="253.0664" x="110.1143" y="32.9951">BP01 - SI03-Register Equipment</text></g><ellipse cx="265.1929" cy="57.2969" fill="#222222" rx="10" ry="10" style="stroke:#222222;stroke-width:1;"/><rect fill="#F1F1F1" height="33.9688" rx="12.5" ry="12.5" style="stroke:#181818;stroke-width:0.5;" width="309.0723" x="110.6567" y="87.2969"/><text fill="#000000" font-family="sans-serif" font-size="12" lengthAdjust="spacing" textLength="289.0723" x="120.6567" y="108.4355">Receive completed equipment registration form</text><rect fill="#F1F1F1" height="33.9688" rx="12.5" ry="12.5" style="stroke:#181818;stroke-width:0.5;" width="265.9473" x="132.2192" y="141.2656"/><text fill="#000000" font-family="sans-serif" font-size="12" lengthAdjust="spacing" textLength="245.9473" x="142.2192" y="162.4043">Validate required equipment information</text><polygon fill="#F1F1F1" points="199.8025,195.2344,330.5833,195.2344,342.5833,207.2344,330.5833,219.2344,199.8025,219.2344,187.8025,207.2344,199.8025,195.2344" style="stroke:#181818;stroke-width:0.5;"/><text fill="#000000" font-family="sans-serif" font-size="11" lengthAdjust="spacing" textLength="130.7808" x="199.8025" y="211.0425">Registration data valid?</text><text fill="#000000" font-family="sans-serif" font-size="11" lengthAdjust="spacing" textLength="19.0083" x="168.7942" y="204.6401">yes</text><text fill="#000000" font-family="sans-serif" font-size="11" lengthAdjust="spacing" textLength="13.7017" x="342.5833" y="204.6401">no</text><rect fill="#F1F1F1" height="33.9688" rx="12.5" ry="12.5" style="stroke:#181818;stroke-width:0.5;" width="254.7969" x="19.2207" y="229.2344"/><text fill="#000000" font-family="sans-serif" font-size="12" lengthAdjust="spacing" textLength="234.7969" x="29.2207" y="250.373">Create pending equipment registration</text><rect fill="#F1F1F1" height="33.9688" rx="12.5" ry="12.5" style="stroke:#181818;stroke-width:0.5;" width="271.2383" x="11" y="283.2031"/><text fill="#000000" font-family="sans-serif" font-size="12" lengthAdjust="spacing" textLength="251.2383" x="21" y="304.3418">Forward registration for back-office check</text><rect fill="#F1F1F1" height="33.9688" rx="12.5" ry="12.5" style="stroke:#181818;stroke-width:0.5;" width="163.0566" x="302.2383" y="229.2344"/><text fill="#000000" font-family="sans-serif" font-size="12" lengthAdjust="spacing" textLength="143.0566" x="312.2383" y="250.373">Return validation errors</text><polygon fill="#F1F1F1" points="265.1929,323.1719,277.1929,335.1719,265.1929,347.1719,253.1929,335.1719,265.1929,323.1719" style="stroke:#181818;stroke-width:0.5;"/><ellipse cx="265.1929" cy="378.1719" fill="none" rx="11" ry="11" style="stroke:#222222;stroke-width:1;"/><ellipse cx="265.1929" cy="378.1719" fill="#222222" rx="6" ry="6" style="stroke:#222222;stroke-width:1;"/><line style="stroke:#181818;stroke-width:1;" x1="265.1929" x2="265.1929" y1="67.2969" y2="87.2969"/><polygon fill="#181818" points="261.1929,77.2969,265.1929,87.2969,269.1929,77.2969,265.1929,81.2969" style="stroke:#181818;stroke-width:1;"/><line style="stroke:#181818;stroke-width:1;" x1="265.1929" x2="265.1929" y1="121.2656" y2="141.2656"/><polygon fill="#181818" points="261.1929,131.2656,265.1929,141.2656,269.1929,131.2656,265.1929,135.2656" style="stroke:#181818;stroke-width:1;"/><line style="stroke:#181818;stroke-width:1;" x1="146.6191" x2="146.6191" y1="263.2031" y2="283.2031"/><polygon fill="#181818" points="142.6191,273.2031,146.6191,283.2031,150.6191,273.2031,146.6191,277.2031" style="stroke:#181818;stroke-width:1;"/><line style="stroke:#181818;stroke-width:1;" x1="187.8025" x2="146.6191" y1="207.2344" y2="207.2344"/><line style="stroke:#181818;stroke-width:1;" x1="146.6191" x2="146.6191" y1="207.2344" y2="229.2344"/><polygon fill="#181818" points="142.6191,219.2344,146.6191,229.2344,150.6191,219.2344,146.6191,223.2344" style="stroke:#181818;stroke-width:1;"/><line style="stroke:#181818;stroke-width:1;" x1="342.5833" x2="383.7666" y1="207.2344" y2="207.2344"/><line style="stroke:#181818;stroke-width:1;" x1="383.7666" x2="383.7666" y1="207.2344" y2="229.2344"/><polygon fill="#181818" points="379.7666,219.2344,383.7666,229.2344,387.7666,219.2344,383.7666,223.2344" style="stroke:#181818;stroke-width:1;"/><line style="stroke:#181818;stroke-width:1;" x1="146.6191" x2="146.6191" y1="317.1719" y2="335.1719"/><line style="stroke:#181818;stroke-width:1;" x1="146.6191" x2="253.1929" y1="335.1719" y2="335.1719"/><polygon fill="#181818" points="243.1929,331.1719,253.1929,335.1719,243.1929,339.1719,247.1929,335.1719" style="stroke:#181818;stroke-width:1;"/><line style="stroke:#181818;stroke-width:1;" x1="383.7666" x2="383.7666" y1="263.2031" y2="335.1719"/><line style="stroke:#181818;stroke-width:1;" x1="383.7666" x2="277.1929" y1="335.1719" y2="335.1719"/><polygon fill="#181818" points="287.1929,331.1719,277.1929,335.1719,287.1929,339.1719,283.1929,335.1719" style="stroke:#181818;stroke-width:1;"/><line style="stroke:#181818;stroke-width:1;" x1="265.1929" x2="265.1929" y1="175.2344" y2="195.2344"/><polygon fill="#181818" points="261.1929,185.2344,265.1929,195.2344,269.1929,185.2344,265.1929,189.2344" style="stroke:#181818;stroke-width:1;"/><line style="stroke:#181818;stroke-width:1;" x1="265.1929" x2="265.1929" y1="347.1719" y2="367.1719"/><polygon fill="#181818" points="261.1929,357.1719,265.1929,367.1719,269.1929,357.1719,265.1929,361.1719" style="stroke:#181818;stroke-width:1;"/><?plantuml-src TP0nYy9048Nx_HLJnYBWOPSK1oSUs4a4-xtDMnrCTkFigFZltKG43x6UxtjlPfIr0_rivbzKqdOzNvGDzfmKGglJcOSUGOr9QaLDrS21Bo0N-w63eYKy6P994wiS0_aeVMsgdUsujOeyp9pyupcCq8JNXZqLpMj0jYnTHlrxHdf0eEA6D3D4rL8mHWu8BOVzXmtgaVoDShNIlgr6VzOTo-WzktpB0UvO6tG9L8GuLJJGiuH7_yE2I9IKiLpgyplYOEu0?></g></svg>