<?plantuml 1.2026.2?><svg xmlns="http://www.w3.org/2000/svg" xmlns:xlink="http://www.w3.org/1999/xlink" contentStyleType="text/css" data-diagram-type="ACTIVITY" height="400px" preserveAspectRatio="none" style="width:585px;height:400px;background:#FFFFFF;" version="1.1" viewBox="0 0 585 400" width="585px" zoomAndPan="magnify"><title>BP01 - SI01-Retrieve Equipment Types</title><defs/><g><g class="title" data-source-line="1"><text fill="#000000" font-family="sans-serif" font-size="14" font-weight="bold" lengthAdjust="spacing" textLength="304.7324" x="138.7148" y="32.9951">BP01 - SI01-Retrieve Equipment Types</text></g><ellipse cx="314.3589" cy="57.2969" fill="#222222" rx="10" ry="10" style="stroke:#222222;stroke-width:1;"/><rect fill="#F1F1F1" height="33.9688" rx="12.5" ry="12.5" style="stroke:#181818;stroke-width:0.5;" width="280.8008" x="173.9585" y="87.2969"/><text fill="#000000" font-family="sans-serif" font-size="12" lengthAdjust="spacing" textLength="260.8008" x="183.9585" y="108.4355">Receive request to register new equipment</text><rect fill="#F1F1F1" height="33.9688" rx="12.5" ry="12.5" style="stroke:#181818;stroke-width:0.5;" width="175.0859" x="226.8159" y="141.2656"/><text fill="#000000" font-family="sans-serif" font-size="12" lengthAdjust="spacing" textLength="155.0859" x="236.8159" y="162.4043">Identify customer context</text><rect fill="#F1F1F1" height="33.9688" rx="12.5" ry="12.5" style="stroke:#181818;stroke-width:0.5;" width="234.166" x="197.2759" y="195.2344"/><text fill="#000000" font-family="sans-serif" font-size="12" lengthAdjust="spacing" textLength="214.166" x="207.2759" y="216.373">Retrieve available equipment types</text><polygon fill="#F1F1F1" points="247.1719,249.2031,381.5459,249.2031,393.5459,261.2031,381.5459,273.2031,247.1719,273.2031,235.1719,261.2031,247.1719,249.2031" style="stroke:#181818;stroke-width:0.5;"/><text fill="#000000" font-family="sans-serif" font-size="11" lengthAdjust="spacing" textLength="134.374" x="247.1719" y="265.0112">Equipment types found?</text><text fill="#000000" font-family="sans-serif" font-size="11" lengthAdjust="spacing" textLength="19.0083" x="216.1636" y="258.6089">yes</text><text fill="#000000" font-family="sans-serif" font-size="11" lengthAdjust="spacing" textLength="13.7017" x="393.5459" y="258.6089">no</text><rect fill="#F1F1F1" height="33.9688" rx="12.5" ry="12.5" style="stroke:#181818;stroke-width:0.5;" width="315.1367" x="11" y="283.2031"/><text fill="#000000" font-family="sans-serif" font-size="12" lengthAdjust="spacing" textLength="295.1367" x="21" y="304.3418">Return equipment type list to customer workflow</text><rect fill="#F1F1F1" height="33.9688" rx="12.5" ry="12.5" style="stroke:#181818;stroke-width:0.5;" width="228.0254" x="346.1367" y="283.2031"/><text fill="#000000" font-family="sans-serif" font-size="12" lengthAdjust="spacing" textLength="208.0254" x="356.1367" y="304.3418">Return empty list or retrieval error</text><polygon fill="#F1F1F1" points="314.3589,323.1719,326.3589,335.1719,314.3589,347.1719,302.3589,335.1719,314.3589,323.1719" style="stroke:#181818;stroke-width:0.5;"/><ellipse cx="314.3589" cy="378.1719" fill="none" rx="11" ry="11" style="stroke:#222222;stroke-width:1;"/><ellipse cx="314.3589" cy="378.1719" fill="#222222" rx="6" ry="6" style="stroke:#222222;stroke-width:1;"/><line style="stroke:#181818;stroke-width:1;" x1="314.3589" x2="314.3589" y1="67.2969" y2="87.2969"/><polygon fill="#181818" points="310.3589,77.2969,314.3589,87.2969,318.3589,77.2969,314.3589,81.2969" style="stroke:#181818;stroke-width:1;"/><line style="stroke:#181818;stroke-width:1;" x1="314.3589" x2="314.3589" y1="121.2656" y2="141.2656"/><polygon fill="#181818" points="310.3589,131.2656,314.3589,141.2656,318.3589,131.2656,314.3589,135.2656" style="stroke:#181818;stroke-width:1;"/><line style="stroke:#181818;stroke-width:1;" x1="314.3589" x2="314.3589" y1="175.2344" y2="195.2344"/><polygon fill="#181818" points="310.3589,185.2344,314.3589,195.2344,318.3589,185.2344,314.3589,189.2344" style="stroke:#181818;stroke-width:1;"/><line style="stroke:#181818;stroke-width:1;" x1="235.1719" x2="168.5684" y1="261.2031" y2="261.2031"/><line style="stroke:#181818;stroke-width:1;" x1="168.5684" x2="168.5684" y1="261.2031" y2="283.2031"/><polygon fill="#181818" points="164.5684,273.2031,168.5684,283.2031,172.5684,273.2031,168.5684,277.2031" style="stroke:#181818;stroke-width:1;"/><line style="stroke:#181818;stroke-width:1;" x1="393.5459" x2="460.1494" y1="261.2031" y2="261.2031"/><line style="stroke:#181818;stroke-width:1;" x1="460.1494" x2="460.1494" y1="261.2031" y2="283.2031"/><polygon fill="#181818" points="456.1494,273.2031,460.1494,283.2031,464.1494,273.2031,460.1494,277.2031" style="stroke:#181818;stroke-width:1;"/><line style="stroke:#181818;stroke-width:1;" x1="168.5684" x2="168.5684" y1="317.1719" y2="335.1719"/><line style="stroke:#181818;stroke-width:1;" x1="168.5684" x2="302.3589" y1="335.1719" y2="335.1719"/><polygon fill="#181818" points="292.3589,331.1719,302.3589,335.1719,292.3589,339.1719,296.3589,335.1719" style="stroke:#181818;stroke-width:1;"/><line style="stroke:#181818;stroke-width:1;" x1="460.1494" x2="460.1494" y1="317.1719" y2="335.1719"/><line style="stroke:#181818;stroke-width:1;" x1="460.1494" x2="326.3589" y1="335.1719" y2="335.1719"/><polygon fill="#181818" points="336.3589,331.1719,326.3589,335.1719,336.3589,339.1719,332.3589,335.1719" style="stroke:#181818;stroke-width:1;"/><line style="stroke:#181818;stroke-width:1;" x1="314.3589" x2="314.3589" y1="229.2031" y2="249.2031"/><polygon fill="#181818" points="310.3589,239.2031,314.3589,249.2031,318.3589,239.2031,314.3589,243.2031" style="stroke:#181818;stroke-width:1;"/><line style="stroke:#181818;stroke-width:1;" x1="314.3589" x2="314.3589" y1="347.1719" y2="367.1719"/><polygon fill="#181818" points="310.3589,357.1719,314.3589,367.1719,318.3589,357.1719,314.3589,361.1719" style="stroke:#181818;stroke-width:1;"/><?plantuml-src NP0nRiCm34LtdUAFpX0WMUCXG84CsOgq5r1jgYKgYmv5nVNj8pUeWNGYGVBnVzBO8k7bTRV75c_dtNvx8LEc6-5qBJmEb0plyqZPkMnUpHqkr17NljArK3QOrFIJiv4YqGJwurftEFSrSfZHbMmor8bEaj7Fqbk5_Crpz1_Lnuh25idMSK1pUYuYI4dzSGFxeeHcfhnnmBAjQFgt0P4V1bVvIVGxH9bQHp4JcYHFz33Q_814wrM_1dq4gOfM9FKSwXjaT7S0?></g></svg>