<?plantuml 1.2026.2?><svg xmlns="http://www.w3.org/2000/svg" xmlns:xlink="http://www.w3.org/1999/xlink" contentStyleType="text/css" data-diagram-type="ACTIVITY" height="400px" preserveAspectRatio="none" style="width:573px;height:400px;background:#FFFFFF;" version="1.1" viewBox="0 0 573 400" width="573px" zoomAndPan="magnify"><title>BP01 - SI04-Check registration</title><defs/><g><g class="title" data-source-line="1"><text fill="#000000" font-family="sans-serif" font-size="14" font-weight="bold" lengthAdjust="spacing" textLength="242.4502" x="163.9849" y="32.9951">BP01 - SI04-Check registration</text></g><ellipse cx="303.0063" cy="57.2969" fill="#222222" rx="10" ry="10" style="stroke:#222222;stroke-width:1;"/><rect fill="#F1F1F1" height="33.9688" rx="12.5" ry="12.5" style="stroke:#181818;stroke-width:0.5;" width="262.1797" x="171.9165" y="87.2969"/><text fill="#000000" font-family="sans-serif" font-size="12" lengthAdjust="spacing" textLength="242.1797" x="181.9165" y="108.4355">Receive pending equipment registration</text><rect fill="#F1F1F1" height="33.9688" rx="12.5" ry="12.5" style="stroke:#181818;stroke-width:0.5;" width="240.623" x="182.6948" y="141.2656"/><text fill="#000000" font-family="sans-serif" font-size="12" lengthAdjust="spacing" textLength="220.623" x="192.6948" y="162.4043">Review submitted equipment details</text><rect fill="#F1F1F1" height="33.9688" rx="12.5" ry="12.5" style="stroke:#181818;stroke-width:0.5;" width="314.873" x="145.5698" y="195.2344"/><text fill="#000000" font-family="sans-serif" font-size="12" lengthAdjust="spacing" textLength="294.873" x="155.5698" y="216.373">Check whether additional information is required</text><polygon fill="#F1F1F1" points="213.7576,249.2031,392.2551,249.2031,404.2551,261.2031,392.2551,273.2031,213.7576,273.2031,201.7576,261.2031,213.7576,249.2031" style="stroke:#181818;stroke-width:0.5;"/><text fill="#000000" font-family="sans-serif" font-size="11" lengthAdjust="spacing" textLength="178.4976" x="213.7576" y="265.0112">Additional information required?</text><text fill="#000000" font-family="sans-serif" font-size="11" lengthAdjust="spacing" textLength="19.0083" x="182.7493" y="258.6089">yes</text><text fill="#000000" font-family="sans-serif" font-size="11" lengthAdjust="spacing" textLength="13.7017" x="404.2551" y="258.6089">no</text><rect fill="#F1F1F1" height="33.9688" rx="12.5" ry="12.5" style="stroke:#181818;stroke-width:0.5;" width="298.3027" x="11" y="283.2031"/><text fill="#000000" font-family="sans-serif" font-size="12" lengthAdjust="spacing" textLength="278.3027" x="21" y="304.3418">Request additional information from customer</text><rect fill="#F1F1F1" height="33.9688" rx="12.5" ry="12.5" style="stroke:#181818;stroke-width:0.5;" width="233.1172" x="329.3027" y="283.2031"/><text fill="#000000" font-family="sans-serif" font-size="12" lengthAdjust="spacing" textLength="213.1172" x="339.3027" y="304.3418">Prepare approval or denial decision</text><polygon fill="#F1F1F1" points="303.0063,323.1719,315.0063,335.1719,303.0063,347.1719,291.0063,335.1719,303.0063,323.1719" style="stroke:#181818;stroke-width:0.5;"/><ellipse cx="303.0063" cy="378.1719" fill="none" rx="11" ry="11" style="stroke:#222222;stroke-width:1;"/><ellipse cx="303.0063" cy="378.1719" fill="#222222" rx="6" ry="6" style="stroke:#222222;stroke-width:1;"/><line style="stroke:#181818;stroke-width:1;" x1="303.0063" x2="303.0063" y1="67.2969" y2="87.2969"/><polygon fill="#181818" points="299.0063,77.2969,303.0063,87.2969,307.0063,77.2969,303.0063,81.2969" style="stroke:#181818;stroke-width:1;"/><line style="stroke:#181818;stroke-width:1;" x1="303.0063" x2="303.0063" y1="121.2656" y2="141.2656"/><polygon fill="#181818" points="299.0063,131.2656,303.0063,141.2656,307.0063,131.2656,303.0063,135.2656" style="stroke:#181818;stroke-width:1;"/><line style="stroke:#181818;stroke-width:1;" x1="303.0063" x2="303.0063" y1="175.2344" y2="195.2344"/><polygon fill="#181818" points="299.0063,185.2344,303.0063,195.2344,307.0063,185.2344,303.0063,189.2344" style="stroke:#181818;stroke-width:1;"/><line style="stroke:#181818;stroke-width:1;" x1="201.7576" x2="160.1514" y1="261.2031" y2="261.2031"/><line style="stroke:#181818;stroke-width:1;" x1="160.1514" x2="160.1514" y1="261.2031" y2="283.2031"/><polygon fill="#181818" points="156.1514,273.2031,160.1514,283.2031,164.1514,273.2031,160.1514,277.2031" style="stroke:#181818;stroke-width:1;"/><line style="stroke:#181818;stroke-width:1;" x1="404.2551" x2="445.8613" y1="261.2031" y2="261.2031"/><line style="stroke:#181818;stroke-width:1;" x1="445.8613" x2="445.8613" y1="261.2031" y2="283.2031"/><polygon fill="#181818" points="441.8613,273.2031,445.8613,283.2031,449.8613,273.2031,445.8613,277.2031" style="stroke:#181818;stroke-width:1;"/><line style="stroke:#181818;stroke-width:1;" x1="160.1514" x2="160.1514" y1="317.1719" y2="335.1719"/><line style="stroke:#181818;stroke-width:1;" x1="160.1514" x2="291.0063" y1="335.1719" y2="335.1719"/><polygon fill="#181818" points="281.0063,331.1719,291.0063,335.1719,281.0063,339.1719,285.0063,335.1719" style="stroke:#181818;stroke-width:1;"/><line style="stroke:#181818;stroke-width:1;" x1="445.8613" x2="445.8613" y1="317.1719" y2="335.1719"/><line style="stroke:#181818;stroke-width:1;" x1="445.8613" x2="315.0063" y1="335.1719" y2="335.1719"/><polygon fill="#181818" points="325.0063,331.1719,315.0063,335.1719,325.0063,339.1719,321.0063,335.1719" style="stroke:#181818;stroke-width:1;"/><line style="stroke:#181818;stroke-width:1;" x1="303.0063" x2="303.0063" y1="229.2031" y2="249.2031"/><polygon fill="#181818" points="299.0063,239.2031,303.0063,249.2031,307.0063,239.2031,303.0063,243.2031" style="stroke:#181818;stroke-width:1;"/><line style="stroke:#181818;stroke-width:1;" x1="303.0063" x2="303.0063" y1="347.1719" y2="367.1719"/><polygon fill="#181818" points="299.0063,357.1719,303.0063,367.1719,307.0063,357.1719,303.0063,361.1719" style="stroke:#181818;stroke-width:1;"/><?plantuml-src TP0xRiD034JxFGLBkJ3W0AcY8aXIfJEI4wor8uk8zcEIak7RUoKZW0qa7OitZ-GOsmXwt--UQ4lVdxldxSU0xeS4HrOJRvoJSsfUpBryeGFFe88KE1q9fubBHB87l5t0cN4cdGwHpH3ko03pF6g5RelE0so0a0-1bxGVYLEV9QukOgtk6XQ4rd5FpTlVt2_qkg6gIzHSe1j7L4yvJL3xpzzBZjHDQZb2MeTHGKtAQtGlA5v0lXJ9SmrcgUSdhbD0nxh-kbJHru9oSLS0?></g></svg>