<?plantuml 1.2026.2?><svg xmlns="http://www.w3.org/2000/svg" xmlns:xlink="http://www.w3.org/1999/xlink" contentStyleType="text/css" data-diagram-type="ACTIVITY" height="400px" preserveAspectRatio="none" style="width:483px;height:400px;background:#FFFFFF;" version="1.1" viewBox="0 0 483 400" width="483px" zoomAndPan="magnify"><title>BP01 - SI06-Finallize Equipment</title><defs/><g><g class="title" data-source-line="1"><text fill="#000000" font-family="sans-serif" font-size="14" font-weight="bold" lengthAdjust="spacing" textLength="252.3623" x="114.2896" y="32.9951">BP01 - SI06-Finallize Equipment</text></g><ellipse cx="247.0889" cy="57.2969" fill="#222222" rx="10" ry="10" style="stroke:#222222;stroke-width:1;"/><rect fill="#F1F1F1" height="33.9688" rx="12.5" ry="12.5" style="stroke:#181818;stroke-width:0.5;" width="302.5508" x="95.8135" y="87.2969"/><text fill="#000000" font-family="sans-serif" font-size="12" lengthAdjust="spacing" textLength="282.5508" x="105.8135" y="108.4355">Receive equipment approval or denial decision</text><polygon fill="#F1F1F1" points="186.4573,141.2656,307.7205,141.2656,319.7205,153.2656,307.7205,165.2656,186.4573,165.2656,174.4573,153.2656,186.4573,141.2656" style="stroke:#181818;stroke-width:0.5;"/><text fill="#000000" font-family="sans-serif" font-size="11" lengthAdjust="spacing" textLength="121.2632" x="186.4573" y="157.0737">Equipment approved?</text><text fill="#000000" font-family="sans-serif" font-size="11" lengthAdjust="spacing" textLength="19.0083" x="155.449" y="150.6714">yes</text><text fill="#000000" font-family="sans-serif" font-size="11" lengthAdjust="spacing" textLength="13.7017" x="319.7205" y="150.6714">no</text><rect fill="#F1F1F1" height="33.9688" rx="12.5" ry="12.5" style="stroke:#181818;stroke-width:0.5;" width="180.7637" x="36.2217" y="175.2656"/><text fill="#000000" font-family="sans-serif" font-size="12" lengthAdjust="spacing" textLength="160.7637" x="46.2217" y="196.4043">Activate equipment record</text><rect fill="#F1F1F1" height="33.9688" rx="12.5" ry="12.5" style="stroke:#181818;stroke-width:0.5;" width="195.6465" x="28.7803" y="229.2344"/><text fill="#000000" font-family="sans-serif" font-size="12" lengthAdjust="spacing" textLength="175.6465" x="38.7803" y="250.373">Store final registration status</text><rect fill="#F1F1F1" height="33.9688" rx="12.5" ry="12.5" style="stroke:#181818;stroke-width:0.5;" width="231.207" x="11" y="283.2031"/><text fill="#000000" font-family="sans-serif" font-size="12" lengthAdjust="spacing" textLength="211.207" x="21" y="304.3418">Send registration completion email</text><rect fill="#F1F1F1" height="33.9688" rx="12.5" ry="12.5" style="stroke:#181818;stroke-width:0.5;" width="210.7344" x="262.207" y="175.2656"/><text fill="#000000" font-family="sans-serif" font-size="12" lengthAdjust="spacing" textLength="190.7344" x="272.207" y="196.4043">Store denied registration status</text><rect fill="#F1F1F1" height="33.9688" rx="12.5" ry="12.5" style="stroke:#181818;stroke-width:0.5;" width="161.9609" x="286.5938" y="229.2344"/><text fill="#000000" font-family="sans-serif" font-size="12" lengthAdjust="spacing" textLength="141.9609" x="296.5938" y="250.373">Send denial notification</text><polygon fill="#F1F1F1" points="247.0889,323.1719,259.0889,335.1719,247.0889,347.1719,235.0889,335.1719,247.0889,323.1719" style="stroke:#181818;stroke-width:0.5;"/><ellipse cx="247.0889" cy="378.1719" fill="none" rx="11" ry="11" style="stroke:#222222;stroke-width:1;"/><ellipse cx="247.0889" cy="378.1719" fill="#222222" rx="6" ry="6" style="stroke:#222222;stroke-width:1;"/><line style="stroke:#181818;stroke-width:1;" x1="247.0889" x2="247.0889" y1="67.2969" y2="87.2969"/><polygon fill="#181818" points="243.0889,77.2969,247.0889,87.2969,251.0889,77.2969,247.0889,81.2969" style="stroke:#181818;stroke-width:1;"/><line style="stroke:#181818;stroke-width:1;" x1="126.6035" x2="126.6035" y1="209.2344" y2="229.2344"/><polygon fill="#181818" points="122.6035,219.2344,126.6035,229.2344,130.6035,219.2344,126.6035,223.2344" style="stroke:#181818;stroke-width:1;"/><line style="stroke:#181818;stroke-width:1;" x1="126.6035" x2="126.6035" y1="263.2031" y2="283.2031"/><polygon fill="#181818" points="122.6035,273.2031,126.6035,283.2031,130.6035,273.2031,126.6035,277.2031" style="stroke:#181818;stroke-width:1;"/><line style="stroke:#181818;stroke-width:1;" x1="367.5742" x2="367.5742" y1="209.2344" y2="229.2344"/><polygon fill="#181818" points="363.5742,219.2344,367.5742,229.2344,371.5742,219.2344,367.5742,223.2344" style="stroke:#181818;stroke-width:1;"/><line style="stroke:#181818;stroke-width:1;" x1="174.4573" x2="126.6035" y1="153.2656" y2="153.2656"/><line style="stroke:#181818;stroke-width:1;" x1="126.6035" x2="126.6035" y1="153.2656" y2="175.2656"/><polygon fill="#181818" points="122.6035,165.2656,126.6035,175.2656,130.6035,165.2656,126.6035,169.2656" style="stroke:#181818;stroke-width:1;"/><line style="stroke:#181818;stroke-width:1;" x1="319.7205" x2="367.5742" y1="153.2656" y2="153.2656"/><line style="stroke:#181818;stroke-width:1;" x1="367.5742" x2="367.5742" y1="153.2656" y2="175.2656"/><polygon fill="#181818" points="363.5742,165.2656,367.5742,175.2656,371.5742,165.2656,367.5742,169.2656" style="stroke:#181818;stroke-width:1;"/><line style="stroke:#181818;stroke-width:1;" x1="126.6035" x2="126.6035" y1="317.1719" y2="335.1719"/><line style="stroke:#181818;stroke-width:1;" x1="126.6035" x2="235.0889" y1="335.1719" y2="335.1719"/><polygon fill="#181818" points="225.0889,331.1719,235.0889,335.1719,225.0889,339.1719,229.0889,335.1719" style="stroke:#181818;stroke-width:1;"/><line style="stroke:#181818;stroke-width:1;" x1="367.5742" x2="367.5742" y1="263.2031" y2="335.1719"/><line style="stroke:#181818;stroke-width:1;" x1="367.5742" x2="259.0889" y1="335.1719" y2="335.1719"/><polygon fill="#181818" points="269.0889,331.1719,259.0889,335.1719,269.0889,339.1719,265.0889,335.1719" style="stroke:#181818;stroke-width:1;"/><line style="stroke:#181818;stroke-width:1;" x1="247.0889" x2="247.0889" y1="121.2656" y2="141.2656"/><polygon fill="#181818" points="243.0889,131.2656,247.0889,141.2656,251.0889,131.2656,247.0889,135.2656" style="stroke:#181818;stroke-width:1;"/><line style="stroke:#181818;stroke-width:1;" x1="247.0889" x2="247.0889" y1="347.1719" y2="367.1719"/><polygon fill="#181818" points="243.0889,357.1719,247.0889,367.1719,251.0889,357.1719,247.0889,361.1719" style="stroke:#181818;stroke-width:1;"/><?plantuml-src VP2nQWCn44HxVSMMTuN1QLBu2fE00-b2_0L2caiMTBkoj3wmlpuwnyP9YdJ3pl2O7MDBeEUtzGEjQF-wVboziFYK-0pQ7OwS9uWvLyqNSvjt1F0CmiqXdtFHsIVIGX72JKK4hgmoE1wfs_s98cvxiay8TIVKtX5jdeBnxEqdjY1eYSFYxaqBQ5nQjVC7LolU6fvQ9plMxmma_ZQ3JZdX8Z5vJeD3gg1EjBz3byA8_rElJuaQZnmkcSQIo6CRHRFx0W00?></g></svg>