<?plantuml 1.2026.2?><svg xmlns="http://www.w3.org/2000/svg" xmlns:xlink="http://www.w3.org/1999/xlink" contentStyleType="text/css" data-diagram-type="ACTIVITY" height="405px" preserveAspectRatio="none" style="width:507px;height:405px;background:#FFFFFF;" version="1.1" viewBox="0 0 507 405" width="507px" zoomAndPan="magnify"><defs/><g><rect fill="none" height="383.1719" style="stroke:#000000;stroke-width:1.5;" width="485.9414" x="11" y="11"/><path d="M244.166,11 L244.166,20.2969 L234.166,30.2969 L11,30.2969" fill="none" style="stroke:#000000;stroke-width:1.5;"/><text fill="#000000" font-family="sans-serif" font-size="14" lengthAdjust="spacing" textLength="223.166" x="14" y="24.9951">BP01 - SI06-Finallize Equipment</text><ellipse cx="259.0889" cy="50.2969" fill="#222222" rx="10" ry="10" style="stroke:#222222;stroke-width:1;"/><rect fill="#F1F1F1" height="33.9688" rx="12.5" ry="12.5" style="stroke:#181818;stroke-width:0.5;" width="302.5508" x="107.8135" y="80.2969"/><text fill="#000000" font-family="sans-serif" font-size="12" lengthAdjust="spacing" textLength="282.5508" x="117.8135" y="101.4355">Receive equipment approval or denial decision</text><polygon fill="#F1F1F1" points="198.4573,134.2656,319.7205,134.2656,331.7205,146.2656,319.7205,158.2656,198.4573,158.2656,186.4573,146.2656,198.4573,134.2656" style="stroke:#181818;stroke-width:0.5;"/><text fill="#000000" font-family="sans-serif" font-size="11" lengthAdjust="spacing" textLength="121.2632" x="198.4573" y="150.0737">Equipment approved?</text><text fill="#000000" font-family="sans-serif" font-size="11" lengthAdjust="spacing" textLength="19.0083" x="167.449" y="143.6714">yes</text><text fill="#000000" font-family="sans-serif" font-size="11" lengthAdjust="spacing" textLength="13.7017" x="331.7205" y="143.6714">no</text><rect fill="#F1F1F1" height="33.9688" rx="12.5" ry="12.5" style="stroke:#181818;stroke-width:0.5;" width="180.7637" x="48.2217" y="168.2656"/><text fill="#000000" font-family="sans-serif" font-size="12" lengthAdjust="spacing" textLength="160.7637" x="58.2217" y="189.4043">Activate equipment record</text><rect fill="#F1F1F1" height="33.9688" rx="12.5" ry="12.5" style="stroke:#181818;stroke-width:0.5;" width="195.6465" x="40.7803" y="222.2344"/><text fill="#000000" font-family="sans-serif" font-size="12" lengthAdjust="spacing" textLength="175.6465" x="50.7803" y="243.373">Store final registration status</text><rect fill="#F1F1F1" height="33.9688" rx="12.5" ry="12.5" style="stroke:#181818;stroke-width:0.5;" width="231.207" x="23" y="276.2031"/><text fill="#000000" font-family="sans-serif" font-size="12" lengthAdjust="spacing" textLength="211.207" x="33" y="297.3418">Send registration completion email</text><rect fill="#F1F1F1" height="33.9688" rx="12.5" ry="12.5" style="stroke:#181818;stroke-width:0.5;" width="210.7344" x="274.207" y="168.2656"/><text fill="#000000" font-family="sans-serif" font-size="12" lengthAdjust="spacing" textLength="190.7344" x="284.207" y="189.4043">Store denied registration status</text><rect fill="#F1F1F1" height="33.9688" rx="12.5" ry="12.5" style="stroke:#181818;stroke-width:0.5;" width="161.9609" x="298.5938" y="222.2344"/><text fill="#000000" font-family="sans-serif" font-size="12" lengthAdjust="spacing" textLength="141.9609" x="308.5938" y="243.373">Send denial notification</text><polygon fill="#F1F1F1" points="259.0889,316.1719,271.0889,328.1719,259.0889,340.1719,247.0889,328.1719,259.0889,316.1719" style="stroke:#181818;stroke-width:0.5;"/><ellipse cx="259.0889" cy="371.1719" fill="none" rx="11" ry="11" style="stroke:#222222;stroke-width:1;"/><ellipse cx="259.0889" cy="371.1719" fill="#222222" rx="6" ry="6" style="stroke:#222222;stroke-width:1;"/><line style="stroke:#181818;stroke-width:1;" x1="259.0889" x2="259.0889" y1="60.2969" y2="80.2969"/><polygon fill="#181818" points="255.0889,70.2969,259.0889,80.2969,263.0889,70.2969,259.0889,74.2969" style="stroke:#181818;stroke-width:1;"/><line style="stroke:#181818;stroke-width:1;" x1="138.6035" x2="138.6035" y1="202.2344" y2="222.2344"/><polygon fill="#181818" points="134.6035,212.2344,138.6035,222.2344,142.6035,212.2344,138.6035,216.2344" style="stroke:#181818;stroke-width:1;"/><line style="stroke:#181818;stroke-width:1;" x1="138.6035" x2="138.6035" y1="256.2031" y2="276.2031"/><polygon fill="#181818" points="134.6035,266.2031,138.6035,276.2031,142.6035,266.2031,138.6035,270.2031" style="stroke:#181818;stroke-width:1;"/><line style="stroke:#181818;stroke-width:1;" x1="379.5742" x2="379.5742" y1="202.2344" y2="222.2344"/><polygon fill="#181818" points="375.5742,212.2344,379.5742,222.2344,383.5742,212.2344,379.5742,216.2344" style="stroke:#181818;stroke-width:1;"/><line style="stroke:#181818;stroke-width:1;" x1="186.4573" x2="138.6035" y1="146.2656" y2="146.2656"/><line style="stroke:#181818;stroke-width:1;" x1="138.6035" x2="138.6035" y1="146.2656" y2="168.2656"/><polygon fill="#181818" points="134.6035,158.2656,138.6035,168.2656,142.6035,158.2656,138.6035,162.2656" style="stroke:#181818;stroke-width:1;"/><line style="stroke:#181818;stroke-width:1;" x1="331.7205" x2="379.5742" y1="146.2656" y2="146.2656"/><line style="stroke:#181818;stroke-width:1;" x1="379.5742" x2="379.5742" y1="146.2656" y2="168.2656"/><polygon fill="#181818" points="375.5742,158.2656,379.5742,168.2656,383.5742,158.2656,379.5742,162.2656" style="stroke:#181818;stroke-width:1;"/><line style="stroke:#181818;stroke-width:1;" x1="138.6035" x2="138.6035" y1="310.1719" y2="328.1719"/><line style="stroke:#181818;stroke-width:1;" x1="138.6035" x2="247.0889" y1="328.1719" y2="328.1719"/><polygon fill="#181818" points="237.0889,324.1719,247.0889,328.1719,237.0889,332.1719,241.0889,328.1719" style="stroke:#181818;stroke-width:1;"/><line style="stroke:#181818;stroke-width:1;" x1="379.5742" x2="379.5742" y1="256.2031" y2="328.1719"/><line style="stroke:#181818;stroke-width:1;" x1="379.5742" x2="271.0889" y1="328.1719" y2="328.1719"/><polygon fill="#181818" points="281.0889,324.1719,271.0889,328.1719,281.0889,332.1719,277.0889,328.1719" style="stroke:#181818;stroke-width:1;"/><line style="stroke:#181818;stroke-width:1;" x1="259.0889" x2="259.0889" y1="114.2656" y2="134.2656"/><polygon fill="#181818" points="255.0889,124.2656,259.0889,134.2656,263.0889,124.2656,259.0889,128.2656" style="stroke:#181818;stroke-width:1;"/><line style="stroke:#181818;stroke-width:1;" x1="259.0889" x2="259.0889" y1="340.1719" y2="360.1719"/><polygon fill="#181818" points="255.0889,350.1719,259.0889,360.1719,263.0889,350.1719,259.0889,354.1719" style="stroke:#181818;stroke-width:1;"/><?plantuml-src XP31IWCn48Rl-nH3Jxk7GhtqO0-Yq88tQPyW9F_gG7Oc9jC55T_TRBHGlNZAmF_Dnpz9BXiRgz3guMbpGsiwFMwswmEBYv7VGVlNCwS9OYlww8YArONwtXxXmJC8bvnSIbbd5qap1GZNAS1pgV9TtU2H-lqV6E5k87k1KF-6CbIgck-zyUpiMftXDOVTTtuopQ1nQLY3PowMNRkWThDpkL2Gy3lsEgM8Dc9o71SGiO1wqU5QlPH7-C_zSwAeySY-KSqeWSVsKPgwp-uB?></g></svg>