<?plantuml 1.2026.2?><svg xmlns="http://www.w3.org/2000/svg" xmlns:xlink="http://www.w3.org/1999/xlink" contentStyleType="text/css" data-diagram-type="ACTIVITY" height="454px" preserveAspectRatio="none" style="width:394px;height:454px;background:#FFFFFF;" version="1.1" viewBox="0 0 394 454" width="394px" zoomAndPan="magnify"><title>BP02 - SI03-Confirm Account Registration</title><defs/><g><g class="title" data-source-line="1"><text fill="#000000" font-family="sans-serif" font-size="14" font-weight="bold" lengthAdjust="spacing" textLength="329.7725" x="30.6196" y="32.9951">BP02 - SI03-Confirm Account Registration</text></g><ellipse cx="199.6689" cy="57.2969" fill="#222222" rx="10" ry="10" style="stroke:#222222;stroke-width:1;"/><rect fill="#F1F1F1" height="33.9688" rx="12.5" ry="12.5" style="stroke:#181818;stroke-width:0.5;" width="334.918" x="32.21" y="87.2969"/><text fill="#000000" font-family="sans-serif" font-size="12" lengthAdjust="spacing" textLength="314.918" x="42.21" y="108.4355">Receive activation request with token and password</text><rect fill="#F1F1F1" height="33.9688" rx="12.5" ry="12.5" style="stroke:#181818;stroke-width:0.5;" width="180.4004" x="109.4688" y="141.2656"/><text fill="#000000" font-family="sans-serif" font-size="12" lengthAdjust="spacing" textLength="160.4004" x="119.4688" y="162.4043">Validate registration token</text><rect fill="#F1F1F1" height="33.9688" rx="12.5" ry="12.5" style="stroke:#181818;stroke-width:0.5;" width="163.6074" x="117.8652" y="195.2344"/><text fill="#000000" font-family="sans-serif" font-size="12" lengthAdjust="spacing" textLength="143.6074" x="127.8652" y="216.373">Validate password rules</text><polygon fill="#F1F1F1" points="140.0605,249.2031,259.2773,249.2031,271.2773,261.2031,259.2773,273.2031,140.0605,273.2031,128.0605,261.2031,140.0605,249.2031" style="stroke:#181818;stroke-width:0.5;"/><text fill="#000000" font-family="sans-serif" font-size="11" lengthAdjust="spacing" textLength="119.2168" x="140.0605" y="265.0112">Activation data valid?</text><text fill="#000000" font-family="sans-serif" font-size="11" lengthAdjust="spacing" textLength="19.0083" x="109.0522" y="258.6089">yes</text><text fill="#000000" font-family="sans-serif" font-size="11" lengthAdjust="spacing" textLength="13.7017" x="271.2773" y="258.6089">no</text><rect fill="#F1F1F1" height="33.9688" rx="12.5" ry="12.5" style="stroke:#181818;stroke-width:0.5;" width="181.332" x="11" y="283.2031"/><text fill="#000000" font-family="sans-serif" font-size="12" lengthAdjust="spacing" textLength="161.332" x="21" y="304.3418">Activate customer account</text><rect fill="#F1F1F1" height="33.9688" rx="12.5" ry="12.5" style="stroke:#181818;stroke-width:0.5;" width="176.6973" x="13.3174" y="337.1719"/><text fill="#000000" font-family="sans-serif" font-size="12" lengthAdjust="spacing" textLength="156.6973" x="23.3174" y="358.3105">Store credentials securely</text><rect fill="#F1F1F1" height="33.9688" rx="12.5" ry="12.5" style="stroke:#181818;stroke-width:0.5;" width="170.6797" x="212.332" y="283.2031"/><text fill="#000000" font-family="sans-serif" font-size="12" lengthAdjust="spacing" textLength="150.6797" x="222.332" y="304.3418">Reject activation request</text><polygon fill="#F1F1F1" points="199.6689,377.1406,211.6689,389.1406,199.6689,401.1406,187.6689,389.1406,199.6689,377.1406" style="stroke:#181818;stroke-width:0.5;"/><ellipse cx="199.6689" cy="432.1406" fill="none" rx="11" ry="11" style="stroke:#222222;stroke-width:1;"/><ellipse cx="199.6689" cy="432.1406" fill="#222222" rx="6" ry="6" style="stroke:#222222;stroke-width:1;"/><line style="stroke:#181818;stroke-width:1;" x1="199.6689" x2="199.6689" y1="67.2969" y2="87.2969"/><polygon fill="#181818" points="195.6689,77.2969,199.6689,87.2969,203.6689,77.2969,199.6689,81.2969" style="stroke:#181818;stroke-width:1;"/><line style="stroke:#181818;stroke-width:1;" x1="199.6689" x2="199.6689" y1="121.2656" y2="141.2656"/><polygon fill="#181818" points="195.6689,131.2656,199.6689,141.2656,203.6689,131.2656,199.6689,135.2656" style="stroke:#181818;stroke-width:1;"/><line style="stroke:#181818;stroke-width:1;" x1="199.6689" x2="199.6689" y1="175.2344" y2="195.2344"/><polygon fill="#181818" points="195.6689,185.2344,199.6689,195.2344,203.6689,185.2344,199.6689,189.2344" style="stroke:#181818;stroke-width:1;"/><line style="stroke:#181818;stroke-width:1;" x1="101.666" x2="101.666" y1="317.1719" y2="337.1719"/><polygon fill="#181818" points="97.666,327.1719,101.666,337.1719,105.666,327.1719,101.666,331.1719" style="stroke:#181818;stroke-width:1;"/><line style="stroke:#181818;stroke-width:1;" x1="128.0605" x2="101.666" y1="261.2031" y2="261.2031"/><line style="stroke:#181818;stroke-width:1;" x1="101.666" x2="101.666" y1="261.2031" y2="283.2031"/><polygon fill="#181818" points="97.666,273.2031,101.666,283.2031,105.666,273.2031,101.666,277.2031" style="stroke:#181818;stroke-width:1;"/><line style="stroke:#181818;stroke-width:1;" x1="271.2773" x2="297.6719" y1="261.2031" y2="261.2031"/><line style="stroke:#181818;stroke-width:1;" x1="297.6719" x2="297.6719" y1="261.2031" y2="283.2031"/><polygon fill="#181818" points="293.6719,273.2031,297.6719,283.2031,301.6719,273.2031,297.6719,277.2031" style="stroke:#181818;stroke-width:1;"/><line style="stroke:#181818;stroke-width:1;" x1="101.666" x2="101.666" y1="371.1406" y2="389.1406"/><line style="stroke:#181818;stroke-width:1;" x1="101.666" x2="187.6689" y1="389.1406" y2="389.1406"/><polygon fill="#181818" points="177.6689,385.1406,187.6689,389.1406,177.6689,393.1406,181.6689,389.1406" style="stroke:#181818;stroke-width:1;"/><line style="stroke:#181818;stroke-width:1;" x1="297.6719" x2="297.6719" y1="317.1719" y2="389.1406"/><line style="stroke:#181818;stroke-width:1;" x1="297.6719" x2="211.6689" y1="389.1406" y2="389.1406"/><polygon fill="#181818" points="221.6689,385.1406,211.6689,389.1406,221.6689,393.1406,217.6689,389.1406" style="stroke:#181818;stroke-width:1;"/><line style="stroke:#181818;stroke-width:1;" x1="199.6689" x2="199.6689" y1="229.2031" y2="249.2031"/><polygon fill="#181818" points="195.6689,239.2031,199.6689,249.2031,203.6689,239.2031,199.6689,243.2031" style="stroke:#181818;stroke-width:1;"/><line style="stroke:#181818;stroke-width:1;" x1="199.6689" x2="199.6689" y1="401.1406" y2="421.1406"/><polygon fill="#181818" points="195.6689,411.1406,199.6689,421.1406,203.6689,411.1406,199.6689,415.1406" style="stroke:#181818;stroke-width:1;"/><?plantuml-src RP0nJmCn38Nt_0gFrw5I1TlTW0eJ6xfAx57oZXhIfDZELVttJQ-WCZ1_dz-pRMm9zFosUQ0rxLutZ-kNaYUM0sr3A3KRZVXWDV769JkdviLSFoA0Pv0FnlE2IF1TeKOdjZrP-K8cdoCTlUgfI1nS_-uJHszewZtoflwblnCaDK47nnDrstjFSppDL_bfHRPlDTqPkd94_Oy52bMj721jl-M8uKftLgGXGKGszab94QeWdGU7fA0kboLcn2U2_NDRytBagJsX7Dq5?></g></svg>