<?plantuml 1.2026.2?><svg xmlns="http://www.w3.org/2000/svg" xmlns:xlink="http://www.w3.org/1999/xlink" contentStyleType="text/css" data-diagram-type="ACTIVITY" height="405px" preserveAspectRatio="none" style="width:516px;height:405px;background:#FFFFFF;" version="1.1" viewBox="0 0 516 405" width="516px" zoomAndPan="magnify"><defs/><g><rect fill="none" height="383.1719" style="stroke:#000000;stroke-width:1.5;" width="494.2441" x="11" y="11"/><path d="M376.0928,11 L376.0928,20.2969 L366.0928,30.2969 L11,30.2969" fill="none" style="stroke:#000000;stroke-width:1.5;"/><text fill="#000000" font-family="sans-serif" font-size="14" lengthAdjust="spacing" textLength="355.0928" x="14" y="24.9951">BP02 - SI02-Retrieve Equipment Registration Form</text><ellipse cx="271.1313" cy="50.2969" fill="#222222" rx="10" ry="10" style="stroke:#222222;stroke-width:1;"/><rect fill="#F1F1F1" height="33.9688" rx="12.5" ry="12.5" style="stroke:#181818;stroke-width:0.5;" width="221.3633" x="160.4497" y="80.2969"/><text fill="#000000" font-family="sans-serif" font-size="12" lengthAdjust="spacing" textLength="201.3633" x="170.4497" y="101.4355">Receive selected equipment type</text><rect fill="#F1F1F1" height="33.9688" rx="12.5" ry="12.5" style="stroke:#181818;stroke-width:0.5;" width="193.2207" x="174.521" y="134.2656"/><text fill="#000000" font-family="sans-serif" font-size="12" lengthAdjust="spacing" textLength="173.2207" x="184.521" y="155.4043">Validate selected type exists</text><rect fill="#F1F1F1" height="33.9688" rx="12.5" ry="12.5" style="stroke:#181818;stroke-width:0.5;" width="233.8613" x="154.2007" y="188.2344"/><text fill="#000000" font-family="sans-serif" font-size="12" lengthAdjust="spacing" textLength="213.8613" x="164.2007" y="209.373">Retrieve registration form template</text><polygon fill="#F1F1F1" points="200.915,242.2031,341.3477,242.2031,353.3477,254.2031,341.3477,266.2031,200.915,266.2031,188.915,254.2031,200.915,242.2031" style="stroke:#181818;stroke-width:0.5;"/><text fill="#000000" font-family="sans-serif" font-size="11" lengthAdjust="spacing" textLength="140.4326" x="200.915" y="258.0112">Form template available?</text><text fill="#000000" font-family="sans-serif" font-size="11" lengthAdjust="spacing" textLength="19.0083" x="169.9067" y="251.6089">yes</text><text fill="#000000" font-family="sans-serif" font-size="11" lengthAdjust="spacing" textLength="13.7017" x="353.3477" y="251.6089">no</text><rect fill="#F1F1F1" height="33.9688" rx="12.5" ry="12.5" style="stroke:#181818;stroke-width:0.5;" width="251.1406" x="23" y="276.2031"/><text fill="#000000" font-family="sans-serif" font-size="12" lengthAdjust="spacing" textLength="231.1406" x="33" y="297.3418">Return form fields and validation rules</text><rect fill="#F1F1F1" height="33.9688" rx="12.5" ry="12.5" style="stroke:#181818;stroke-width:0.5;" width="199.1035" x="294.1406" y="276.2031"/><text fill="#000000" font-family="sans-serif" font-size="12" lengthAdjust="spacing" textLength="179.1035" x="304.1406" y="297.3418">Return form unavailable error</text><polygon fill="#F1F1F1" points="271.1313,316.1719,283.1313,328.1719,271.1313,340.1719,259.1313,328.1719,271.1313,316.1719" style="stroke:#181818;stroke-width:0.5;"/><ellipse cx="271.1313" cy="371.1719" fill="none" rx="11" ry="11" style="stroke:#222222;stroke-width:1;"/><ellipse cx="271.1313" cy="371.1719" fill="#222222" rx="6" ry="6" style="stroke:#222222;stroke-width:1;"/><line style="stroke:#181818;stroke-width:1;" x1="271.1313" x2="271.1313" y1="60.2969" y2="80.2969"/><polygon fill="#181818" points="267.1313,70.2969,271.1313,80.2969,275.1313,70.2969,271.1313,74.2969" style="stroke:#181818;stroke-width:1;"/><line style="stroke:#181818;stroke-width:1;" x1="271.1313" x2="271.1313" y1="114.2656" y2="134.2656"/><polygon fill="#181818" points="267.1313,124.2656,271.1313,134.2656,275.1313,124.2656,271.1313,128.2656" style="stroke:#181818;stroke-width:1;"/><line style="stroke:#181818;stroke-width:1;" x1="271.1313" x2="271.1313" y1="168.2344" y2="188.2344"/><polygon fill="#181818" points="267.1313,178.2344,271.1313,188.2344,275.1313,178.2344,271.1313,182.2344" style="stroke:#181818;stroke-width:1;"/><line style="stroke:#181818;stroke-width:1;" x1="188.915" x2="148.5703" y1="254.2031" y2="254.2031"/><line style="stroke:#181818;stroke-width:1;" x1="148.5703" x2="148.5703" y1="254.2031" y2="276.2031"/><polygon fill="#181818" points="144.5703,266.2031,148.5703,276.2031,152.5703,266.2031,148.5703,270.2031" style="stroke:#181818;stroke-width:1;"/><line style="stroke:#181818;stroke-width:1;" x1="353.3477" x2="393.6924" y1="254.2031" y2="254.2031"/><line style="stroke:#181818;stroke-width:1;" x1="393.6924" x2="393.6924" y1="254.2031" y2="276.2031"/><polygon fill="#181818" points="389.6924,266.2031,393.6924,276.2031,397.6924,266.2031,393.6924,270.2031" style="stroke:#181818;stroke-width:1;"/><line style="stroke:#181818;stroke-width:1;" x1="148.5703" x2="148.5703" y1="310.1719" y2="328.1719"/><line style="stroke:#181818;stroke-width:1;" x1="148.5703" x2="259.1313" y1="328.1719" y2="328.1719"/><polygon fill="#181818" points="249.1313,324.1719,259.1313,328.1719,249.1313,332.1719,253.1313,328.1719" style="stroke:#181818;stroke-width:1;"/><line style="stroke:#181818;stroke-width:1;" x1="393.6924" x2="393.6924" y1="310.1719" y2="328.1719"/><line style="stroke:#181818;stroke-width:1;" x1="393.6924" x2="283.1313" y1="328.1719" y2="328.1719"/><polygon fill="#181818" points="293.1313,324.1719,283.1313,328.1719,293.1313,332.1719,289.1313,328.1719" style="stroke:#181818;stroke-width:1;"/><line style="stroke:#181818;stroke-width:1;" x1="271.1313" x2="271.1313" y1="222.2031" y2="242.2031"/><polygon fill="#181818" points="267.1313,232.2031,271.1313,242.2031,275.1313,232.2031,271.1313,236.2031" style="stroke:#181818;stroke-width:1;"/><line style="stroke:#181818;stroke-width:1;" x1="271.1313" x2="271.1313" y1="340.1719" y2="360.1719"/><polygon fill="#181818" points="267.1313,350.1719,271.1313,360.1719,275.1313,350.1719,271.1313,354.1719" style="stroke:#181818;stroke-width:1;"/><?plantuml-src RP0nQyCm48Lt_uf79cS8X8pDK2Wqq2suq5sDdji3MN9FPzDG-jyhso5uw7IW-zxt3lLEJKnInERfl3zWXzUN_M7Nq5Gu4izVW_GTew7XXsHJDyEdfDq6FnMGhHZAV6XuePH4Pk35wC5xrAuzZnFpve9uPojeMe7VnPoFY-LMhEkwjjJ1sFMXX2TEMjIdzIFSw2Iuzy37BUoJ4VMLULlGHJhepT8AWyzmqMDShfaAT0YS3s38H1tJFyaXtZj0rQGp7xsqypUallgj_W00?></g></svg>