<?plantuml 1.2026.2?><svg xmlns="http://www.w3.org/2000/svg" xmlns:xlink="http://www.w3.org/1999/xlink" contentStyleType="text/css" data-diagram-type="ACTIVITY" height="400px" preserveAspectRatio="none" style="width:577px;height:400px;background:#FFFFFF;" version="1.1" viewBox="0 0 577 400" width="577px" zoomAndPan="magnify"><title>BP02 - SI04-Add Account Information</title><defs/><g><g class="title" data-source-line="1"><text fill="#000000" font-family="sans-serif" font-size="14" font-weight="bold" lengthAdjust="spacing" textLength="293.7607" x="140.4243" y="32.9951">BP02 - SI04-Add Account Information</text></g><ellipse cx="311.0352" cy="57.2969" fill="#222222" rx="10" ry="10" style="stroke:#222222;stroke-width:1;"/><rect fill="#F1F1F1" height="33.9688" rx="12.5" ry="12.5" style="stroke:#181818;stroke-width:0.5;" width="212.9844" x="204.543" y="87.2969"/><text fill="#000000" font-family="sans-serif" font-size="12" lengthAdjust="spacing" textLength="192.9844" x="214.543" y="108.4355">Receive onboarding information</text><rect fill="#F1F1F1" height="33.9688" rx="12.5" ry="12.5" style="stroke:#181818;stroke-width:0.5;" width="219.3242" x="201.373" y="141.2656"/><text fill="#000000" font-family="sans-serif" font-size="12" lengthAdjust="spacing" textLength="199.3242" x="211.373" y="162.4043">Validate required account details</text><polygon fill="#F1F1F1" points="248.7439,195.2344,373.3264,195.2344,385.3264,207.2344,373.3264,219.2344,248.7439,219.2344,236.7439,207.2344,248.7439,195.2344" style="stroke:#181818;stroke-width:0.5;"/><text fill="#000000" font-family="sans-serif" font-size="11" lengthAdjust="spacing" textLength="124.5825" x="248.7439" y="211.0425">Information complete?</text><text fill="#000000" font-family="sans-serif" font-size="11" lengthAdjust="spacing" textLength="19.0083" x="217.7356" y="204.6401">yes</text><text fill="#000000" font-family="sans-serif" font-size="11" lengthAdjust="spacing" textLength="13.7017" x="385.3264" y="204.6401">no</text><rect fill="#F1F1F1" height="33.9688" rx="12.5" ry="12.5" style="stroke:#181818;stroke-width:0.5;" width="217.3848" x="58.4404" y="229.2344"/><text fill="#000000" font-family="sans-serif" font-size="12" lengthAdjust="spacing" textLength="197.3848" x="68.4404" y="250.373">Update customer account profile</text><rect fill="#F1F1F1" height="33.9688" rx="12.5" ry="12.5" style="stroke:#181818;stroke-width:0.5;" width="312.2656" x="11" y="283.2031"/><text fill="#000000" font-family="sans-serif" font-size="12" lengthAdjust="spacing" textLength="292.2656" x="21" y="304.3418">Determine whether more onboarding is required</text><rect fill="#F1F1F1" height="33.9688" rx="12.5" ry="12.5" style="stroke:#181818;stroke-width:0.5;" width="223.3438" x="343.2656" y="229.2344"/><text fill="#000000" font-family="sans-serif" font-size="12" lengthAdjust="spacing" textLength="203.3438" x="353.2656" y="250.373">Return missing information errors</text><polygon fill="#F1F1F1" points="311.0352,323.1719,323.0352,335.1719,311.0352,347.1719,299.0352,335.1719,311.0352,323.1719" style="stroke:#181818;stroke-width:0.5;"/><ellipse cx="311.0352" cy="378.1719" fill="none" rx="11" ry="11" style="stroke:#222222;stroke-width:1;"/><ellipse cx="311.0352" cy="378.1719" fill="#222222" rx="6" ry="6" style="stroke:#222222;stroke-width:1;"/><line style="stroke:#181818;stroke-width:1;" x1="311.0352" x2="311.0352" y1="67.2969" y2="87.2969"/><polygon fill="#181818" points="307.0352,77.2969,311.0352,87.2969,315.0352,77.2969,311.0352,81.2969" style="stroke:#181818;stroke-width:1;"/><line style="stroke:#181818;stroke-width:1;" x1="311.0352" x2="311.0352" y1="121.2656" y2="141.2656"/><polygon fill="#181818" points="307.0352,131.2656,311.0352,141.2656,315.0352,131.2656,311.0352,135.2656" style="stroke:#181818;stroke-width:1;"/><line style="stroke:#181818;stroke-width:1;" x1="167.1328" x2="167.1328" y1="263.2031" y2="283.2031"/><polygon fill="#181818" points="163.1328,273.2031,167.1328,283.2031,171.1328,273.2031,167.1328,277.2031" style="stroke:#181818;stroke-width:1;"/><line style="stroke:#181818;stroke-width:1;" x1="236.7439" x2="167.1328" y1="207.2344" y2="207.2344"/><line style="stroke:#181818;stroke-width:1;" x1="167.1328" x2="167.1328" y1="207.2344" y2="229.2344"/><polygon fill="#181818" points="163.1328,219.2344,167.1328,229.2344,171.1328,219.2344,167.1328,223.2344" style="stroke:#181818;stroke-width:1;"/><line style="stroke:#181818;stroke-width:1;" x1="385.3264" x2="454.9375" y1="207.2344" y2="207.2344"/><line style="stroke:#181818;stroke-width:1;" x1="454.9375" x2="454.9375" y1="207.2344" y2="229.2344"/><polygon fill="#181818" points="450.9375,219.2344,454.9375,229.2344,458.9375,219.2344,454.9375,223.2344" style="stroke:#181818;stroke-width:1;"/><line style="stroke:#181818;stroke-width:1;" x1="167.1328" x2="167.1328" y1="317.1719" y2="335.1719"/><line style="stroke:#181818;stroke-width:1;" x1="167.1328" x2="299.0352" y1="335.1719" y2="335.1719"/><polygon fill="#181818" points="289.0352,331.1719,299.0352,335.1719,289.0352,339.1719,293.0352,335.1719" style="stroke:#181818;stroke-width:1;"/><line style="stroke:#181818;stroke-width:1;" x1="454.9375" x2="454.9375" y1="263.2031" y2="335.1719"/><line style="stroke:#181818;stroke-width:1;" x1="454.9375" x2="323.0352" y1="335.1719" y2="335.1719"/><polygon fill="#181818" points="333.0352,331.1719,323.0352,335.1719,333.0352,339.1719,329.0352,335.1719" style="stroke:#181818;stroke-width:1;"/><line style="stroke:#181818;stroke-width:1;" x1="311.0352" x2="311.0352" y1="175.2344" y2="195.2344"/><polygon fill="#181818" points="307.0352,185.2344,311.0352,195.2344,315.0352,185.2344,311.0352,189.2344" style="stroke:#181818;stroke-width:1;"/><line style="stroke:#181818;stroke-width:1;" x1="311.0352" x2="311.0352" y1="347.1719" y2="367.1719"/><polygon fill="#181818" points="307.0352,357.1719,311.0352,367.1719,315.0352,357.1719,311.0352,361.1719" style="stroke:#181818;stroke-width:1;"/><?plantuml-src NOyzJyD044Jx-nLJEaMa257P1GgYIOU2e3zyOxBItQtPMuFuzvW8XOz-tjCR5y_4xVtk2biy77RNstrAs8-ZBjLng9DQYIvQGsWUpKD_v4Xv8xG-QxGazGNoCnj2_nIpfEY4yNKHOqByrYLwbDo681EwNswCMkPCvyq6Vc95zy6s2K3_E9zDuz9S2-rYcaqdoHo-DdShQ4KgyNxYYXkAsj--TcaP0dCZkgfd_v6-M4MHrluT0StKrbRM9DDwNkVm2G00?></g></svg>