<?plantuml 1.2026.2?><svg xmlns="http://www.w3.org/2000/svg" xmlns:xlink="http://www.w3.org/1999/xlink" contentStyleType="text/css" data-diagram-type="ACTIVITY" height="405px" preserveAspectRatio="none" style="width:601px;height:405px;background:#FFFFFF;" version="1.1" viewBox="0 0 601 405" width="601px" zoomAndPan="magnify"><defs/><g><rect fill="none" height="383.1719" style="stroke:#000000;stroke-width:1.5;" width="579.6094" x="11" y="11"/><path d="M281.0049,11 L281.0049,20.2969 L271.0049,30.2969 L11,30.2969" fill="none" style="stroke:#000000;stroke-width:1.5;"/><text fill="#000000" font-family="sans-serif" font-size="14" lengthAdjust="spacing" textLength="260.0049" x="14" y="24.9951">BP02 - SI04-Add Account Information</text><ellipse cx="323.0352" cy="50.2969" fill="#222222" rx="10" ry="10" style="stroke:#222222;stroke-width:1;"/><rect fill="#F1F1F1" height="33.9688" rx="12.5" ry="12.5" style="stroke:#181818;stroke-width:0.5;" width="212.9844" x="216.543" y="80.2969"/><text fill="#000000" font-family="sans-serif" font-size="12" lengthAdjust="spacing" textLength="192.9844" x="226.543" y="101.4355">Receive onboarding information</text><rect fill="#F1F1F1" height="33.9688" rx="12.5" ry="12.5" style="stroke:#181818;stroke-width:0.5;" width="219.3242" x="213.373" y="134.2656"/><text fill="#000000" font-family="sans-serif" font-size="12" lengthAdjust="spacing" textLength="199.3242" x="223.373" y="155.4043">Validate required account details</text><polygon fill="#F1F1F1" points="260.7439,188.2344,385.3264,188.2344,397.3264,200.2344,385.3264,212.2344,260.7439,212.2344,248.7439,200.2344,260.7439,188.2344" style="stroke:#181818;stroke-width:0.5;"/><text fill="#000000" font-family="sans-serif" font-size="11" lengthAdjust="spacing" textLength="124.5825" x="260.7439" y="204.0425">Information complete?</text><text fill="#000000" font-family="sans-serif" font-size="11" lengthAdjust="spacing" textLength="19.0083" x="229.7356" y="197.6401">yes</text><text fill="#000000" font-family="sans-serif" font-size="11" lengthAdjust="spacing" textLength="13.7017" x="397.3264" y="197.6401">no</text><rect fill="#F1F1F1" height="33.9688" rx="12.5" ry="12.5" style="stroke:#181818;stroke-width:0.5;" width="217.3848" x="70.4404" y="222.2344"/><text fill="#000000" font-family="sans-serif" font-size="12" lengthAdjust="spacing" textLength="197.3848" x="80.4404" y="243.373">Update customer account profile</text><rect fill="#F1F1F1" height="33.9688" rx="12.5" ry="12.5" style="stroke:#181818;stroke-width:0.5;" width="312.2656" x="23" y="276.2031"/><text fill="#000000" font-family="sans-serif" font-size="12" lengthAdjust="spacing" textLength="292.2656" x="33" y="297.3418">Determine whether more onboarding is required</text><rect fill="#F1F1F1" height="33.9688" rx="12.5" ry="12.5" style="stroke:#181818;stroke-width:0.5;" width="223.3438" x="355.2656" y="222.2344"/><text fill="#000000" font-family="sans-serif" font-size="12" lengthAdjust="spacing" textLength="203.3438" x="365.2656" y="243.373">Return missing information errors</text><polygon fill="#F1F1F1" points="323.0352,316.1719,335.0352,328.1719,323.0352,340.1719,311.0352,328.1719,323.0352,316.1719" style="stroke:#181818;stroke-width:0.5;"/><ellipse cx="323.0352" cy="371.1719" fill="none" rx="11" ry="11" style="stroke:#222222;stroke-width:1;"/><ellipse cx="323.0352" cy="371.1719" fill="#222222" rx="6" ry="6" style="stroke:#222222;stroke-width:1;"/><line style="stroke:#181818;stroke-width:1;" x1="323.0352" x2="323.0352" y1="60.2969" y2="80.2969"/><polygon fill="#181818" points="319.0352,70.2969,323.0352,80.2969,327.0352,70.2969,323.0352,74.2969" style="stroke:#181818;stroke-width:1;"/><line style="stroke:#181818;stroke-width:1;" x1="323.0352" x2="323.0352" y1="114.2656" y2="134.2656"/><polygon fill="#181818" points="319.0352,124.2656,323.0352,134.2656,327.0352,124.2656,323.0352,128.2656" style="stroke:#181818;stroke-width:1;"/><line style="stroke:#181818;stroke-width:1;" x1="179.1328" x2="179.1328" y1="256.2031" y2="276.2031"/><polygon fill="#181818" points="175.1328,266.2031,179.1328,276.2031,183.1328,266.2031,179.1328,270.2031" style="stroke:#181818;stroke-width:1;"/><line style="stroke:#181818;stroke-width:1;" x1="248.7439" x2="179.1328" y1="200.2344" y2="200.2344"/><line style="stroke:#181818;stroke-width:1;" x1="179.1328" x2="179.1328" y1="200.2344" y2="222.2344"/><polygon fill="#181818" points="175.1328,212.2344,179.1328,222.2344,183.1328,212.2344,179.1328,216.2344" style="stroke:#181818;stroke-width:1;"/><line style="stroke:#181818;stroke-width:1;" x1="397.3264" x2="466.9375" y1="200.2344" y2="200.2344"/><line style="stroke:#181818;stroke-width:1;" x1="466.9375" x2="466.9375" y1="200.2344" y2="222.2344"/><polygon fill="#181818" points="462.9375,212.2344,466.9375,222.2344,470.9375,212.2344,466.9375,216.2344" style="stroke:#181818;stroke-width:1;"/><line style="stroke:#181818;stroke-width:1;" x1="179.1328" x2="179.1328" y1="310.1719" y2="328.1719"/><line style="stroke:#181818;stroke-width:1;" x1="179.1328" x2="311.0352" y1="328.1719" y2="328.1719"/><polygon fill="#181818" points="301.0352,324.1719,311.0352,328.1719,301.0352,332.1719,305.0352,328.1719" style="stroke:#181818;stroke-width:1;"/><line style="stroke:#181818;stroke-width:1;" x1="466.9375" x2="466.9375" y1="256.2031" y2="328.1719"/><line style="stroke:#181818;stroke-width:1;" x1="466.9375" x2="335.0352" y1="328.1719" y2="328.1719"/><polygon fill="#181818" points="345.0352,324.1719,335.0352,328.1719,345.0352,332.1719,341.0352,328.1719" style="stroke:#181818;stroke-width:1;"/><line style="stroke:#181818;stroke-width:1;" x1="323.0352" x2="323.0352" y1="168.2344" y2="188.2344"/><polygon fill="#181818" points="319.0352,178.2344,323.0352,188.2344,327.0352,178.2344,323.0352,182.2344" style="stroke:#181818;stroke-width:1;"/><line style="stroke:#181818;stroke-width:1;" x1="323.0352" x2="323.0352" y1="340.1719" y2="360.1719"/><polygon fill="#181818" points="319.0352,350.1719,323.0352,360.1719,327.0352,350.1719,323.0352,354.1719" style="stroke:#181818;stroke-width:1;"/><?plantuml-src NP0zJmCn38Rt-nMlEbs7IXNgH0TKnD8D5S4U4X-rbDZ1oHKXn7ydTrJbO_Bol8zVEpkhN5a5YzlxzHLMUDYlDwjT2DXvhwDKx6LGIsw25lZeW59RgCth0tdY4q7bMPq5bXVm3xoTa2SNERXAC7eTsIZ0dRM1gkDO9ee7zB-sm6lAaIhTB56F9EZVgImRrtoFURRviLHDP1TRDXquqlQRkcjXIoo4joCrXI6f_UrPBesc3CL2w4NFMmvKHnCaBkNVKI0pjRarIU1XVeVcxhFx0W00?></g></svg>