<?plantuml 1.2026.2?><svg xmlns="http://www.w3.org/2000/svg" xmlns:xlink="http://www.w3.org/1999/xlink" contentStyleType="text/css" data-diagram-type="ACTIVITY" height="454px" preserveAspectRatio="none" style="width:476px;height:454px;background:#FFFFFF;" version="1.1" viewBox="0 0 476 454" width="476px" zoomAndPan="magnify"><title>BP02 - SI01-Initiate Account Registration</title><defs/><g><g class="title" data-source-line="1"><text fill="#000000" font-family="sans-serif" font-size="14" font-weight="bold" lengthAdjust="spacing" textLength="324.6318" x="74.314" y="32.9951">BP02 - SI01-Initiate Account Registration</text></g><ellipse cx="263.0835" cy="57.2969" fill="#222222" rx="10" ry="10" style="stroke:#222222;stroke-width:1;"/><rect fill="#F1F1F1" height="33.9688" rx="12.5" ry="12.5" style="stroke:#181818;stroke-width:0.5;" width="215.9727" x="155.0972" y="87.2969"/><text fill="#000000" font-family="sans-serif" font-size="12" lengthAdjust="spacing" textLength="195.9727" x="165.0972" y="108.4355">Receive customer email address</text><rect fill="#F1F1F1" height="33.9688" rx="12.5" ry="12.5" style="stroke:#181818;stroke-width:0.5;" width="150.2598" x="187.9536" y="141.2656"/><text fill="#000000" font-family="sans-serif" font-size="12" lengthAdjust="spacing" textLength="130.2598" x="197.9536" y="162.4043">Validate email format</text><rect fill="#F1F1F1" height="33.9688" rx="12.5" ry="12.5" style="stroke:#181818;stroke-width:0.5;" width="249.5117" x="138.3276" y="195.2344"/><text fill="#000000" font-family="sans-serif" font-size="12" lengthAdjust="spacing" textLength="229.5117" x="148.3276" y="216.373">Check whether account already exists</text><polygon fill="#F1F1F1" points="194.79,249.2031,331.377,249.2031,343.377,261.2031,331.377,273.2031,194.79,273.2031,182.79,261.2031,194.79,249.2031" style="stroke:#181818;stroke-width:0.5;"/><text fill="#000000" font-family="sans-serif" font-size="11" lengthAdjust="spacing" textLength="136.5869" x="194.79" y="265.0112">Account can be created?</text><text fill="#000000" font-family="sans-serif" font-size="11" lengthAdjust="spacing" textLength="19.0083" x="163.7817" y="258.6089">yes</text><text fill="#000000" font-family="sans-serif" font-size="11" lengthAdjust="spacing" textLength="13.7017" x="343.377" y="258.6089">no</text><rect fill="#F1F1F1" height="33.9688" rx="12.5" ry="12.5" style="stroke:#181818;stroke-width:0.5;" width="237.6641" x="25.6865" y="283.2031"/><text fill="#000000" font-family="sans-serif" font-size="12" lengthAdjust="spacing" textLength="217.6641" x="35.6865" y="304.3418">Create pending account registration</text><rect fill="#F1F1F1" height="33.9688" rx="12.5" ry="12.5" style="stroke:#181818;stroke-width:0.5;" width="267.0371" x="11" y="337.1719"/><text fill="#000000" font-family="sans-serif" font-size="12" lengthAdjust="spacing" textLength="247.0371" x="21" y="358.3105">Generate registration confirmation token</text><rect fill="#F1F1F1" height="33.9688" rx="12.5" ry="12.5" style="stroke:#181818;stroke-width:0.5;" width="167.2227" x="298.0371" y="283.2031"/><text fill="#000000" font-family="sans-serif" font-size="12" lengthAdjust="spacing" textLength="147.2227" x="308.0371" y="304.3418">Return registration error</text><polygon fill="#F1F1F1" points="263.0835,377.1406,275.0835,389.1406,263.0835,401.1406,251.0835,389.1406,263.0835,377.1406" style="stroke:#181818;stroke-width:0.5;"/><ellipse cx="263.0835" cy="432.1406" fill="none" rx="11" ry="11" style="stroke:#222222;stroke-width:1;"/><ellipse cx="263.0835" cy="432.1406" fill="#222222" rx="6" ry="6" style="stroke:#222222;stroke-width:1;"/><line style="stroke:#181818;stroke-width:1;" x1="263.0835" x2="263.0835" y1="67.2969" y2="87.2969"/><polygon fill="#181818" points="259.0835,77.2969,263.0835,87.2969,267.0835,77.2969,263.0835,81.2969" style="stroke:#181818;stroke-width:1;"/><line style="stroke:#181818;stroke-width:1;" x1="263.0835" x2="263.0835" y1="121.2656" y2="141.2656"/><polygon fill="#181818" points="259.0835,131.2656,263.0835,141.2656,267.0835,131.2656,263.0835,135.2656" style="stroke:#181818;stroke-width:1;"/><line style="stroke:#181818;stroke-width:1;" x1="263.0835" x2="263.0835" y1="175.2344" y2="195.2344"/><polygon fill="#181818" points="259.0835,185.2344,263.0835,195.2344,267.0835,185.2344,263.0835,189.2344" style="stroke:#181818;stroke-width:1;"/><line style="stroke:#181818;stroke-width:1;" x1="144.5186" x2="144.5186" y1="317.1719" y2="337.1719"/><polygon fill="#181818" points="140.5186,327.1719,144.5186,337.1719,148.5186,327.1719,144.5186,331.1719" style="stroke:#181818;stroke-width:1;"/><line style="stroke:#181818;stroke-width:1;" x1="182.79" x2="144.5186" y1="261.2031" y2="261.2031"/><line style="stroke:#181818;stroke-width:1;" x1="144.5186" x2="144.5186" y1="261.2031" y2="283.2031"/><polygon fill="#181818" points="140.5186,273.2031,144.5186,283.2031,148.5186,273.2031,144.5186,277.2031" style="stroke:#181818;stroke-width:1;"/><line style="stroke:#181818;stroke-width:1;" x1="343.377" x2="381.6484" y1="261.2031" y2="261.2031"/><line style="stroke:#181818;stroke-width:1;" x1="381.6484" x2="381.6484" y1="261.2031" y2="283.2031"/><polygon fill="#181818" points="377.6484,273.2031,381.6484,283.2031,385.6484,273.2031,381.6484,277.2031" style="stroke:#181818;stroke-width:1;"/><line style="stroke:#181818;stroke-width:1;" x1="144.5186" x2="144.5186" y1="371.1406" y2="389.1406"/><line style="stroke:#181818;stroke-width:1;" x1="144.5186" x2="251.0835" y1="389.1406" y2="389.1406"/><polygon fill="#181818" points="241.0835,385.1406,251.0835,389.1406,241.0835,393.1406,245.0835,389.1406" style="stroke:#181818;stroke-width:1;"/><line style="stroke:#181818;stroke-width:1;" x1="381.6484" x2="381.6484" y1="317.1719" y2="389.1406"/><line style="stroke:#181818;stroke-width:1;" x1="381.6484" x2="275.0835" y1="389.1406" y2="389.1406"/><polygon fill="#181818" points="285.0835,385.1406,275.0835,389.1406,285.0835,393.1406,281.0835,389.1406" style="stroke:#181818;stroke-width:1;"/><line style="stroke:#181818;stroke-width:1;" x1="263.0835" x2="263.0835" y1="229.2031" y2="249.2031"/><polygon fill="#181818" points="259.0835,239.2031,263.0835,249.2031,267.0835,239.2031,263.0835,243.2031" style="stroke:#181818;stroke-width:1;"/><line style="stroke:#181818;stroke-width:1;" x1="263.0835" x2="263.0835" y1="401.1406" y2="421.1406"/><polygon fill="#181818" points="259.0835,411.1406,263.0835,421.1406,267.0835,411.1406,263.0835,415.1406" style="stroke:#181818;stroke-width:1;"/><?plantuml-src LP2xRiCm34LtVGL7PmYGTdI6eirGP0jSe3ihNST4R2cWwBRv-zBf0-aeyjnx29dO27ewREvfJI_xpTrwdyM43VGOOvcpKOUZL5CsAJc4QgmMsWuHyWwASxKoGGaJoqYSagBMRMXVUPIqr7ml-g8Jcyzt0-A9FWROu2d-SV2eu7GXVBhAuz9Jy-kFdEdDJKuOqiEAF9cfkQ2k0b6xkyxfZ9ma7_yQzURgxS8z8qCNydP3iUHUbjEMXvKJ7CPOGKqkr_eEDcl-7u9gKUVSsFk7b7Fu0W00?></g></svg>