<?plantuml 1.2026.2?><svg xmlns="http://www.w3.org/2000/svg" xmlns:xlink="http://www.w3.org/1999/xlink" contentStyleType="text/css" data-diagram-type="ACTIVITY" height="405px" preserveAspectRatio="none" style="width:475px;height:405px;background:#FFFFFF;" version="1.1" viewBox="0 0 475 405" width="475px" zoomAndPan="magnify"><defs/><g><rect fill="none" height="383.1719" style="stroke:#000000;stroke-width:1.5;" width="453.3633" x="11" y="11"/><path d="M377.46,11 L377.46,20.2969 L367.46,30.2969 L11,30.2969" fill="none" style="stroke:#000000;stroke-width:1.5;"/><text fill="#000000" font-family="sans-serif" font-size="14" lengthAdjust="spacing" textLength="356.46" x="14" y="24.9951">BP02 - SI02-Send Account Registration Notification</text><ellipse cx="225.6846" cy="50.2969" fill="#222222" rx="10" ry="10" style="stroke:#222222;stroke-width:1;"/><rect fill="#F1F1F1" height="33.9688" rx="12.5" ry="12.5" style="stroke:#181818;stroke-width:0.5;" width="245.0469" x="103.1611" y="80.2969"/><text fill="#000000" font-family="sans-serif" font-size="12" lengthAdjust="spacing" textLength="225.0469" x="113.1611" y="101.4355">Receive pending account registration</text><rect fill="#F1F1F1" height="33.9688" rx="12.5" ry="12.5" style="stroke:#181818;stroke-width:0.5;" width="277.9004" x="86.7344" y="134.2656"/><text fill="#000000" font-family="sans-serif" font-size="12" lengthAdjust="spacing" textLength="257.9004" x="96.7344" y="155.4043">Build registration email with activation link</text><rect fill="#F1F1F1" height="33.9688" rx="12.5" ry="12.5" style="stroke:#181818;stroke-width:0.5;" width="246.4531" x="102.458" y="188.2344"/><text fill="#000000" font-family="sans-serif" font-size="12" lengthAdjust="spacing" textLength="226.4531" x="112.458" y="209.373">Send account registration notification</text><polygon fill="#F1F1F1" points="193.8662,242.2031,257.5029,242.2031,269.5029,254.2031,257.5029,266.2031,193.8662,266.2031,181.8662,254.2031,193.8662,242.2031" style="stroke:#181818;stroke-width:0.5;"/><text fill="#000000" font-family="sans-serif" font-size="11" lengthAdjust="spacing" textLength="63.6367" x="193.8662" y="258.0112">Email sent?</text><text fill="#000000" font-family="sans-serif" font-size="11" lengthAdjust="spacing" textLength="19.0083" x="162.8579" y="251.6089">yes</text><text fill="#000000" font-family="sans-serif" font-size="11" lengthAdjust="spacing" textLength="13.7017" x="269.5029" y="251.6089">no</text><rect fill="#F1F1F1" height="33.9688" rx="12.5" ry="12.5" style="stroke:#181818;stroke-width:0.5;" width="180.6875" x="23" y="276.2031"/><text fill="#000000" font-family="sans-serif" font-size="12" lengthAdjust="spacing" textLength="160.6875" x="33" y="297.3418">Record notification as sent</text><rect fill="#F1F1F1" height="33.9688" rx="12.5" ry="12.5" style="stroke:#181818;stroke-width:0.5;" width="228.6758" x="223.6875" y="276.2031"/><text fill="#000000" font-family="sans-serif" font-size="12" lengthAdjust="spacing" textLength="208.6758" x="233.6875" y="297.3418">Record notification failure for retry</text><polygon fill="#F1F1F1" points="225.6846,316.1719,237.6846,328.1719,225.6846,340.1719,213.6846,328.1719,225.6846,316.1719" style="stroke:#181818;stroke-width:0.5;"/><ellipse cx="225.6846" cy="371.1719" fill="none" rx="11" ry="11" style="stroke:#222222;stroke-width:1;"/><ellipse cx="225.6846" cy="371.1719" fill="#222222" rx="6" ry="6" style="stroke:#222222;stroke-width:1;"/><line style="stroke:#181818;stroke-width:1;" x1="225.6846" x2="225.6846" y1="60.2969" y2="80.2969"/><polygon fill="#181818" points="221.6846,70.2969,225.6846,80.2969,229.6846,70.2969,225.6846,74.2969" style="stroke:#181818;stroke-width:1;"/><line style="stroke:#181818;stroke-width:1;" x1="225.6846" x2="225.6846" y1="114.2656" y2="134.2656"/><polygon fill="#181818" points="221.6846,124.2656,225.6846,134.2656,229.6846,124.2656,225.6846,128.2656" style="stroke:#181818;stroke-width:1;"/><line style="stroke:#181818;stroke-width:1;" x1="225.6846" x2="225.6846" y1="168.2344" y2="188.2344"/><polygon fill="#181818" points="221.6846,178.2344,225.6846,188.2344,229.6846,178.2344,225.6846,182.2344" style="stroke:#181818;stroke-width:1;"/><line style="stroke:#181818;stroke-width:1;" x1="181.8662" x2="113.3438" y1="254.2031" y2="254.2031"/><line style="stroke:#181818;stroke-width:1;" x1="113.3438" x2="113.3438" y1="254.2031" y2="276.2031"/><polygon fill="#181818" points="109.3438,266.2031,113.3438,276.2031,117.3438,266.2031,113.3438,270.2031" style="stroke:#181818;stroke-width:1;"/><line style="stroke:#181818;stroke-width:1;" x1="269.5029" x2="338.0254" y1="254.2031" y2="254.2031"/><line style="stroke:#181818;stroke-width:1;" x1="338.0254" x2="338.0254" y1="254.2031" y2="276.2031"/><polygon fill="#181818" points="334.0254,266.2031,338.0254,276.2031,342.0254,266.2031,338.0254,270.2031" style="stroke:#181818;stroke-width:1;"/><line style="stroke:#181818;stroke-width:1;" x1="113.3438" x2="113.3438" y1="310.1719" y2="328.1719"/><line style="stroke:#181818;stroke-width:1;" x1="113.3438" x2="213.6846" y1="328.1719" y2="328.1719"/><polygon fill="#181818" points="203.6846,324.1719,213.6846,328.1719,203.6846,332.1719,207.6846,328.1719" style="stroke:#181818;stroke-width:1;"/><line style="stroke:#181818;stroke-width:1;" x1="338.0254" x2="338.0254" y1="310.1719" y2="328.1719"/><line style="stroke:#181818;stroke-width:1;" x1="338.0254" x2="237.6846" y1="328.1719" y2="328.1719"/><polygon fill="#181818" points="247.6846,324.1719,237.6846,328.1719,247.6846,332.1719,243.6846,328.1719" style="stroke:#181818;stroke-width:1;"/><line style="stroke:#181818;stroke-width:1;" x1="225.6846" x2="225.6846" y1="222.2031" y2="242.2031"/><polygon fill="#181818" points="221.6846,232.2031,225.6846,242.2031,229.6846,232.2031,225.6846,236.2031" style="stroke:#181818;stroke-width:1;"/><line style="stroke:#181818;stroke-width:1;" x1="225.6846" x2="225.6846" y1="340.1719" y2="360.1719"/><polygon fill="#181818" points="221.6846,350.1719,225.6846,360.1719,229.6846,350.1719,225.6846,354.1719" style="stroke:#181818;stroke-width:1;"/><?plantuml-src VP2n2i8m48RtFiMFKpi8nL47KN1m4T4d2Et57jPBIQwAYEzk6XqgY5F8vVj-_ajdlBAo4qpM-tA6AOxRSZOzajHOLPNhHN6W4mVr9c4xfsovIfS97XaGD6R4StwWYlXAwABCSeBv-7xaBmPmtNDRVur15yCjRgnDr9IlxsdBSav6wlCh3pBgCw1iaMzIM23HPG5jI93VAHJnzTtI-VhBWmc97dng0o4NzuUsCRtt1EjyxAB-dhouiqs_uRhicRq0?></g></svg>