<?plantuml 1.2026.2?><svg xmlns="http://www.w3.org/2000/svg" xmlns:xlink="http://www.w3.org/1999/xlink" contentStyleType="text/css" data-diagram-type="ACTIVITY" height="400px" preserveAspectRatio="none" style="width:523px;height:400px;background:#FFFFFF;" version="1.1" viewBox="0 0 523 400" width="523px" zoomAndPan="magnify"><title>BP03 - SI01-Get Equipment List</title><defs/><g><g class="title" data-source-line="1"><text fill="#000000" font-family="sans-serif" font-size="14" font-weight="bold" lengthAdjust="spacing" textLength="247.8438" x="136.4824" y="32.9951">BP03 - SI01-Get Equipment List</text></g><ellipse cx="255.8662" cy="57.2969" fill="#222222" rx="10" ry="10" style="stroke:#222222;stroke-width:1;"/><rect fill="#F1F1F1" height="33.9688" rx="12.5" ry="12.5" style="stroke:#181818;stroke-width:0.5;" width="298.4961" x="106.6182" y="87.2969"/><text fill="#000000" font-family="sans-serif" font-size="12" lengthAdjust="spacing" textLength="278.4961" x="116.6182" y="108.4355">Receive maintenance plan enrollment request</text><rect fill="#F1F1F1" height="33.9688" rx="12.5" ry="12.5" style="stroke:#181818;stroke-width:0.5;" width="177.4531" x="167.1396" y="141.2656"/><text fill="#000000" font-family="sans-serif" font-size="12" lengthAdjust="spacing" textLength="157.4531" x="177.1396" y="162.4043">Identify customer account</text><rect fill="#F1F1F1" height="33.9688" rx="12.5" ry="12.5" style="stroke:#181818;stroke-width:0.5;" width="285.3066" x="113.2129" y="195.2344"/><text fill="#000000" font-family="sans-serif" font-size="12" lengthAdjust="spacing" textLength="265.3066" x="123.2129" y="216.373">Retrieve registered equipment for customer</text><polygon fill="#F1F1F1" points="183.9688,249.2031,327.7637,249.2031,339.7637,261.2031,327.7637,273.2031,183.9688,273.2031,171.9688,261.2031,183.9688,249.2031" style="stroke:#181818;stroke-width:0.5;"/><text fill="#000000" font-family="sans-serif" font-size="11" lengthAdjust="spacing" textLength="143.7949" x="183.9688" y="265.0112">Eligible equipment found?</text><text fill="#000000" font-family="sans-serif" font-size="11" lengthAdjust="spacing" textLength="19.0083" x="152.9604" y="258.6089">yes</text><text fill="#000000" font-family="sans-serif" font-size="11" lengthAdjust="spacing" textLength="13.7017" x="339.7637" y="258.6089">no</text><rect fill="#F1F1F1" height="33.9688" rx="12.5" ry="12.5" style="stroke:#181818;stroke-width:0.5;" width="228.8281" x="11" y="283.2031"/><text fill="#000000" font-family="sans-serif" font-size="12" lengthAdjust="spacing" textLength="208.8281" x="21" y="304.3418">Return equipment list for selection</text><rect fill="#F1F1F1" height="33.9688" rx="12.5" ry="12.5" style="stroke:#181818;stroke-width:0.5;" width="252.9805" x="259.8281" y="283.2031"/><text fill="#000000" font-family="sans-serif" font-size="12" lengthAdjust="spacing" textLength="232.9805" x="269.8281" y="304.3418">Return no eligible equipment message</text><polygon fill="#F1F1F1" points="255.8662,323.1719,267.8662,335.1719,255.8662,347.1719,243.8662,335.1719,255.8662,323.1719" style="stroke:#181818;stroke-width:0.5;"/><ellipse cx="255.8662" cy="378.1719" fill="none" rx="11" ry="11" style="stroke:#222222;stroke-width:1;"/><ellipse cx="255.8662" cy="378.1719" fill="#222222" rx="6" ry="6" style="stroke:#222222;stroke-width:1;"/><line style="stroke:#181818;stroke-width:1;" x1="255.8662" x2="255.8662" y1="67.2969" y2="87.2969"/><polygon fill="#181818" points="251.8662,77.2969,255.8662,87.2969,259.8662,77.2969,255.8662,81.2969" style="stroke:#181818;stroke-width:1;"/><line style="stroke:#181818;stroke-width:1;" x1="255.8662" x2="255.8662" y1="121.2656" y2="141.2656"/><polygon fill="#181818" points="251.8662,131.2656,255.8662,141.2656,259.8662,131.2656,255.8662,135.2656" style="stroke:#181818;stroke-width:1;"/><line style="stroke:#181818;stroke-width:1;" x1="255.8662" x2="255.8662" y1="175.2344" y2="195.2344"/><polygon fill="#181818" points="251.8662,185.2344,255.8662,195.2344,259.8662,185.2344,255.8662,189.2344" style="stroke:#181818;stroke-width:1;"/><line style="stroke:#181818;stroke-width:1;" x1="171.9688" x2="125.4141" y1="261.2031" y2="261.2031"/><line style="stroke:#181818;stroke-width:1;" x1="125.4141" x2="125.4141" y1="261.2031" y2="283.2031"/><polygon fill="#181818" points="121.4141,273.2031,125.4141,283.2031,129.4141,273.2031,125.4141,277.2031" style="stroke:#181818;stroke-width:1;"/><line style="stroke:#181818;stroke-width:1;" x1="339.7637" x2="386.3184" y1="261.2031" y2="261.2031"/><line style="stroke:#181818;stroke-width:1;" x1="386.3184" x2="386.3184" y1="261.2031" y2="283.2031"/><polygon fill="#181818" points="382.3184,273.2031,386.3184,283.2031,390.3184,273.2031,386.3184,277.2031" style="stroke:#181818;stroke-width:1;"/><line style="stroke:#181818;stroke-width:1;" x1="125.4141" x2="125.4141" y1="317.1719" y2="335.1719"/><line style="stroke:#181818;stroke-width:1;" x1="125.4141" x2="243.8662" y1="335.1719" y2="335.1719"/><polygon fill="#181818" points="233.8662,331.1719,243.8662,335.1719,233.8662,339.1719,237.8662,335.1719" style="stroke:#181818;stroke-width:1;"/><line style="stroke:#181818;stroke-width:1;" x1="386.3184" x2="386.3184" y1="317.1719" y2="335.1719"/><line style="stroke:#181818;stroke-width:1;" x1="386.3184" x2="267.8662" y1="335.1719" y2="335.1719"/><polygon fill="#181818" points="277.8662,331.1719,267.8662,335.1719,277.8662,339.1719,273.8662,335.1719" style="stroke:#181818;stroke-width:1;"/><line style="stroke:#181818;stroke-width:1;" x1="255.8662" x2="255.8662" y1="229.2031" y2="249.2031"/><polygon fill="#181818" points="251.8662,239.2031,255.8662,249.2031,259.8662,239.2031,255.8662,243.2031" style="stroke:#181818;stroke-width:1;"/><line style="stroke:#181818;stroke-width:1;" x1="255.8662" x2="255.8662" y1="347.1719" y2="367.1719"/><polygon fill="#181818" points="251.8662,357.1719,255.8662,367.1719,259.8662,357.1719,255.8662,361.1719" style="stroke:#181818;stroke-width:1;"/><?plantuml-src PP0nQWD134NxEONATM5mIESj0W4J32w2SuBnxD-DO5QpbZG1tzvZ5sOXfT1_xmivUmPzVk_UQKi_nztRzWjEXslbPOOudTWy1FEe7lPd9F0VQ8ui3ecIG4kEGX0jEJy1nRN2l0_xuz1c7c-KgdcPeHHJAbKUkpDS6Ksbc5e350FXLJeMVK5zu96wG-Q9B-tITQZAyB4X_uLGTuDj0j53N5LMiTpqJw4X8paNwGEoWJefQq8AuN_93BCueI4oyDZ-K9Pm1m00?></g></svg>