<?plantuml 1.2026.2?><svg xmlns="http://www.w3.org/2000/svg" xmlns:xlink="http://www.w3.org/1999/xlink" contentStyleType="text/css" data-diagram-type="ACTIVITY" height="405px" preserveAspectRatio="none" style="width:547px;height:405px;background:#FFFFFF;" version="1.1" viewBox="0 0 547 405" width="547px" zoomAndPan="magnify"><defs/><g><rect fill="none" height="383.1719" style="stroke:#000000;stroke-width:1.5;" width="525.8086" x="11" y="11"/><path d="M241.0146,11 L241.0146,20.2969 L231.0146,30.2969 L11,30.2969" fill="none" style="stroke:#000000;stroke-width:1.5;"/><text fill="#000000" font-family="sans-serif" font-size="14" lengthAdjust="spacing" textLength="220.0146" x="14" y="24.9951">BP03 - SI01-Get Equipment List</text><ellipse cx="267.8662" cy="50.2969" fill="#222222" rx="10" ry="10" style="stroke:#222222;stroke-width:1;"/><rect fill="#F1F1F1" height="33.9688" rx="12.5" ry="12.5" style="stroke:#181818;stroke-width:0.5;" width="298.4961" x="118.6182" y="80.2969"/><text fill="#000000" font-family="sans-serif" font-size="12" lengthAdjust="spacing" textLength="278.4961" x="128.6182" y="101.4355">Receive maintenance plan enrollment request</text><rect fill="#F1F1F1" height="33.9688" rx="12.5" ry="12.5" style="stroke:#181818;stroke-width:0.5;" width="177.4531" x="179.1396" y="134.2656"/><text fill="#000000" font-family="sans-serif" font-size="12" lengthAdjust="spacing" textLength="157.4531" x="189.1396" y="155.4043">Identify customer account</text><rect fill="#F1F1F1" height="33.9688" rx="12.5" ry="12.5" style="stroke:#181818;stroke-width:0.5;" width="285.3066" x="125.2129" y="188.2344"/><text fill="#000000" font-family="sans-serif" font-size="12" lengthAdjust="spacing" textLength="265.3066" x="135.2129" y="209.373">Retrieve registered equipment for customer</text><polygon fill="#F1F1F1" points="195.9688,242.2031,339.7637,242.2031,351.7637,254.2031,339.7637,266.2031,195.9688,266.2031,183.9688,254.2031,195.9688,242.2031" style="stroke:#181818;stroke-width:0.5;"/><text fill="#000000" font-family="sans-serif" font-size="11" lengthAdjust="spacing" textLength="143.7949" x="195.9688" y="258.0112">Eligible equipment found?</text><text fill="#000000" font-family="sans-serif" font-size="11" lengthAdjust="spacing" textLength="19.0083" x="164.9604" y="251.6089">yes</text><text fill="#000000" font-family="sans-serif" font-size="11" lengthAdjust="spacing" textLength="13.7017" x="351.7637" y="251.6089">no</text><rect fill="#F1F1F1" height="33.9688" rx="12.5" ry="12.5" style="stroke:#181818;stroke-width:0.5;" width="228.8281" x="23" y="276.2031"/><text fill="#000000" font-family="sans-serif" font-size="12" lengthAdjust="spacing" textLength="208.8281" x="33" y="297.3418">Return equipment list for selection</text><rect fill="#F1F1F1" height="33.9688" rx="12.5" ry="12.5" style="stroke:#181818;stroke-width:0.5;" width="252.9805" x="271.8281" y="276.2031"/><text fill="#000000" font-family="sans-serif" font-size="12" lengthAdjust="spacing" textLength="232.9805" x="281.8281" y="297.3418">Return no eligible equipment message</text><polygon fill="#F1F1F1" points="267.8662,316.1719,279.8662,328.1719,267.8662,340.1719,255.8662,328.1719,267.8662,316.1719" style="stroke:#181818;stroke-width:0.5;"/><ellipse cx="267.8662" cy="371.1719" fill="none" rx="11" ry="11" style="stroke:#222222;stroke-width:1;"/><ellipse cx="267.8662" cy="371.1719" fill="#222222" rx="6" ry="6" style="stroke:#222222;stroke-width:1;"/><line style="stroke:#181818;stroke-width:1;" x1="267.8662" x2="267.8662" y1="60.2969" y2="80.2969"/><polygon fill="#181818" points="263.8662,70.2969,267.8662,80.2969,271.8662,70.2969,267.8662,74.2969" style="stroke:#181818;stroke-width:1;"/><line style="stroke:#181818;stroke-width:1;" x1="267.8662" x2="267.8662" y1="114.2656" y2="134.2656"/><polygon fill="#181818" points="263.8662,124.2656,267.8662,134.2656,271.8662,124.2656,267.8662,128.2656" style="stroke:#181818;stroke-width:1;"/><line style="stroke:#181818;stroke-width:1;" x1="267.8662" x2="267.8662" y1="168.2344" y2="188.2344"/><polygon fill="#181818" points="263.8662,178.2344,267.8662,188.2344,271.8662,178.2344,267.8662,182.2344" style="stroke:#181818;stroke-width:1;"/><line style="stroke:#181818;stroke-width:1;" x1="183.9688" x2="137.4141" y1="254.2031" y2="254.2031"/><line style="stroke:#181818;stroke-width:1;" x1="137.4141" x2="137.4141" y1="254.2031" y2="276.2031"/><polygon fill="#181818" points="133.4141,266.2031,137.4141,276.2031,141.4141,266.2031,137.4141,270.2031" style="stroke:#181818;stroke-width:1;"/><line style="stroke:#181818;stroke-width:1;" x1="351.7637" x2="398.3184" y1="254.2031" y2="254.2031"/><line style="stroke:#181818;stroke-width:1;" x1="398.3184" x2="398.3184" y1="254.2031" y2="276.2031"/><polygon fill="#181818" points="394.3184,266.2031,398.3184,276.2031,402.3184,266.2031,398.3184,270.2031" style="stroke:#181818;stroke-width:1;"/><line style="stroke:#181818;stroke-width:1;" x1="137.4141" x2="137.4141" y1="310.1719" y2="328.1719"/><line style="stroke:#181818;stroke-width:1;" x1="137.4141" x2="255.8662" y1="328.1719" y2="328.1719"/><polygon fill="#181818" points="245.8662,324.1719,255.8662,328.1719,245.8662,332.1719,249.8662,328.1719" style="stroke:#181818;stroke-width:1;"/><line style="stroke:#181818;stroke-width:1;" x1="398.3184" x2="398.3184" y1="310.1719" y2="328.1719"/><line style="stroke:#181818;stroke-width:1;" x1="398.3184" x2="279.8662" y1="328.1719" y2="328.1719"/><polygon fill="#181818" points="289.8662,324.1719,279.8662,328.1719,289.8662,332.1719,285.8662,328.1719" style="stroke:#181818;stroke-width:1;"/><line style="stroke:#181818;stroke-width:1;" x1="267.8662" x2="267.8662" y1="222.2031" y2="242.2031"/><polygon fill="#181818" points="263.8662,232.2031,267.8662,242.2031,271.8662,232.2031,267.8662,236.2031" style="stroke:#181818;stroke-width:1;"/><line style="stroke:#181818;stroke-width:1;" x1="267.8662" x2="267.8662" y1="340.1719" y2="360.1719"/><polygon fill="#181818" points="263.8662,350.1719,267.8662,360.1719,271.8662,350.1719,267.8662,354.1719" style="stroke:#181818;stroke-width:1;"/><?plantuml-src PP31QiD034Jl_WgHatC8fFJM7Wg5K08zbEGBjkknArXh7KaR2AN_thK3eQ4dWURD3D8KrDav2wrUFxQFjA7ZVlkmUOFJxbHu6Y5Exso-ek-6oBpoTJuT4C5dq1XO718aWgOKX22QKrfiYbE1-VFCxxkwuVv2iPZd4KeXnbpagXxWogXnYg5sGT4HRlLzrfjjnhcdTfTuuC-4Ewn8zx8c_u9GUu6jAtiDBof_m5Ghbb13GfoFdrEH3DHAldT9hiA_gX5cOS1YauxxvJDvQdwQNm00?></g></svg>