<?plantuml 1.2026.2?><svg xmlns="http://www.w3.org/2000/svg" xmlns:xlink="http://www.w3.org/1999/xlink" contentStyleType="text/css" data-diagram-type="ACTIVITY" height="336px" preserveAspectRatio="none" style="width:360px;height:336px;background:#FFFFFF;" version="1.1" viewBox="0 0 360 336" width="360px" zoomAndPan="magnify"><title>BP03 - SI06-Approve Maintenance Plan</title><defs/><g><g class="title" data-source-line="1"><text fill="#000000" font-family="sans-serif" font-size="14" font-weight="bold" lengthAdjust="spacing" textLength="308.3076" x="24.5044" y="32.9951">BP03 - SI06-Approve Maintenance Plan</text></g><ellipse cx="180.1582" cy="57.2969" fill="#222222" rx="10" ry="10" style="stroke:#222222;stroke-width:1;"/><rect fill="#F1F1F1" height="33.9688" rx="12.5" ry="12.5" style="stroke:#181818;stroke-width:0.5;" width="177.2656" x="91.5254" y="87.2969"/><text fill="#000000" font-family="sans-serif" font-size="12" lengthAdjust="spacing" textLength="157.2656" x="101.5254" y="108.4355">Receive approval decision</text><rect fill="#F1F1F1" height="33.9688" rx="12.5" ry="12.5" style="stroke:#181818;stroke-width:0.5;" width="338.3164" x="11" y="141.2656"/><text fill="#000000" font-family="sans-serif" font-size="12" lengthAdjust="spacing" textLength="318.3164" x="21" y="162.4043">Set maintenance plan enrollment status to approved</text><rect fill="#F1F1F1" height="33.9688" rx="12.5" ry="12.5" style="stroke:#181818;stroke-width:0.5;" width="241.0684" x="59.624" y="195.2344"/><text fill="#000000" font-family="sans-serif" font-size="12" lengthAdjust="spacing" textLength="221.0684" x="69.624" y="216.373">Activate maintenance plan coverage</text><rect fill="#F1F1F1" height="33.9688" rx="12.5" ry="12.5" style="stroke:#181818;stroke-width:0.5;" width="190.9121" x="84.7021" y="249.2031"/><text fill="#000000" font-family="sans-serif" font-size="12" lengthAdjust="spacing" textLength="170.9121" x="94.7021" y="270.3418">Trigger approval notification</text><ellipse cx="180.1582" cy="314.1719" fill="none" rx="11" ry="11" style="stroke:#222222;stroke-width:1;"/><ellipse cx="180.1582" cy="314.1719" fill="#222222" rx="6" ry="6" style="stroke:#222222;stroke-width:1;"/><line style="stroke:#181818;stroke-width:1;" x1="180.1582" x2="180.1582" y1="67.2969" y2="87.2969"/><polygon fill="#181818" points="176.1582,77.2969,180.1582,87.2969,184.1582,77.2969,180.1582,81.2969" style="stroke:#181818;stroke-width:1;"/><line style="stroke:#181818;stroke-width:1;" x1="180.1582" x2="180.1582" y1="121.2656" y2="141.2656"/><polygon fill="#181818" points="176.1582,131.2656,180.1582,141.2656,184.1582,131.2656,180.1582,135.2656" style="stroke:#181818;stroke-width:1;"/><line style="stroke:#181818;stroke-width:1;" x1="180.1582" x2="180.1582" y1="175.2344" y2="195.2344"/><polygon fill="#181818" points="176.1582,185.2344,180.1582,195.2344,184.1582,185.2344,180.1582,189.2344" style="stroke:#181818;stroke-width:1;"/><line style="stroke:#181818;stroke-width:1;" x1="180.1582" x2="180.1582" y1="229.2031" y2="249.2031"/><polygon fill="#181818" points="176.1582,239.2031,180.1582,249.2031,184.1582,239.2031,180.1582,243.2031" style="stroke:#181818;stroke-width:1;"/><line style="stroke:#181818;stroke-width:1;" x1="180.1582" x2="180.1582" y1="283.1719" y2="303.1719"/><polygon fill="#181818" points="176.1582,293.1719,180.1582,303.1719,184.1582,293.1719,180.1582,297.1719" style="stroke:#181818;stroke-width:1;"/><?plantuml-src PSr12i8m48NXVKun5oWK11TrLNSkX6Azm90-mq0w2ScqvpSKGS7z_xrdOX5qdVeJTJJV-dCtvbpI3hgpg45PFMYAhCvLus9kUC13Mi17o94MUAcIzEA66KRh3ymD4hIa65UeKPkmhPAbZyRIqEXDTZRyIz-AmW4jUXO90UNxgida9PxjUAwMidi3?></g></svg>