<?plantuml 1.2026.2?><svg xmlns="http://www.w3.org/2000/svg" xmlns:xlink="http://www.w3.org/1999/xlink" contentStyleType="text/css" data-diagram-type="ACTIVITY" height="400px" preserveAspectRatio="none" style="width:462px;height:400px;background:#FFFFFF;" version="1.1" viewBox="0 0 462 400" width="462px" zoomAndPan="magnify"><title>BP03 - SI02-Match Providers</title><defs/><g><g class="title" data-source-line="1"><text fill="#000000" font-family="sans-serif" font-size="14" font-weight="bold" lengthAdjust="spacing" textLength="225.2305" x="117.0771" y="32.9951">BP03 - SI02-Match Providers</text></g><ellipse cx="207.4253" cy="57.2969" fill="#222222" rx="10" ry="10" style="stroke:#222222;stroke-width:1;"/><rect fill="#F1F1F1" height="33.9688" rx="12.5" ry="12.5" style="stroke:#181818;stroke-width:0.5;" width="190.7422" x="112.0542" y="87.2969"/><text fill="#000000" font-family="sans-serif" font-size="12" lengthAdjust="spacing" textLength="170.7422" x="122.0542" y="108.4355">Receive selected equipment</text><rect fill="#F1F1F1" height="33.9688" rx="12.5" ry="12.5" style="stroke:#181818;stroke-width:0.5;" width="263.3105" x="75.77" y="141.2656"/><text fill="#000000" font-family="sans-serif" font-size="12" lengthAdjust="spacing" textLength="243.3105" x="85.77" y="162.4043">Read equipment type and service needs</text><rect fill="#F1F1F1" height="33.9688" rx="12.5" ry="12.5" style="stroke:#181818;stroke-width:0.5;" width="312.6816" x="51.0845" y="195.2344"/><text fill="#000000" font-family="sans-serif" font-size="12" lengthAdjust="spacing" textLength="292.6816" x="61.0845" y="216.373">Find providers matching equipment and location</text><polygon fill="#F1F1F1" points="161.2661,249.2031,253.5845,249.2031,265.5845,261.2031,253.5845,273.2031,161.2661,273.2031,149.2661,261.2031,161.2661,249.2031" style="stroke:#181818;stroke-width:0.5;"/><text fill="#000000" font-family="sans-serif" font-size="11" lengthAdjust="spacing" textLength="92.3184" x="161.2661" y="265.0112">Providers found?</text><text fill="#000000" font-family="sans-serif" font-size="11" lengthAdjust="spacing" textLength="19.0083" x="130.2578" y="258.6089">yes</text><text fill="#000000" font-family="sans-serif" font-size="11" lengthAdjust="spacing" textLength="13.7017" x="265.5845" y="258.6089">no</text><rect fill="#F1F1F1" height="33.9688" rx="12.5" ry="12.5" style="stroke:#181818;stroke-width:0.5;" width="162.6582" x="11" y="283.2031"/><text fill="#000000" font-family="sans-serif" font-size="12" lengthAdjust="spacing" textLength="142.6582" x="21" y="304.3418">Return provider options</text><rect fill="#F1F1F1" height="33.9688" rx="12.5" ry="12.5" style="stroke:#181818;stroke-width:0.5;" width="257.7266" x="193.6582" y="283.2031"/><text fill="#000000" font-family="sans-serif" font-size="12" lengthAdjust="spacing" textLength="237.7266" x="203.6582" y="304.3418">Return no matching providers message</text><polygon fill="#F1F1F1" points="207.4253,323.1719,219.4253,335.1719,207.4253,347.1719,195.4253,335.1719,207.4253,323.1719" style="stroke:#181818;stroke-width:0.5;"/><ellipse cx="207.4253" cy="378.1719" fill="none" rx="11" ry="11" style="stroke:#222222;stroke-width:1;"/><ellipse cx="207.4253" cy="378.1719" fill="#222222" rx="6" ry="6" style="stroke:#222222;stroke-width:1;"/><line style="stroke:#181818;stroke-width:1;" x1="207.4253" x2="207.4253" y1="67.2969" y2="87.2969"/><polygon fill="#181818" points="203.4253,77.2969,207.4253,87.2969,211.4253,77.2969,207.4253,81.2969" style="stroke:#181818;stroke-width:1;"/><line style="stroke:#181818;stroke-width:1;" x1="207.4253" x2="207.4253" y1="121.2656" y2="141.2656"/><polygon fill="#181818" points="203.4253,131.2656,207.4253,141.2656,211.4253,131.2656,207.4253,135.2656" style="stroke:#181818;stroke-width:1;"/><line style="stroke:#181818;stroke-width:1;" x1="207.4253" x2="207.4253" y1="175.2344" y2="195.2344"/><polygon fill="#181818" points="203.4253,185.2344,207.4253,195.2344,211.4253,185.2344,207.4253,189.2344" style="stroke:#181818;stroke-width:1;"/><line style="stroke:#181818;stroke-width:1;" x1="149.2661" x2="92.3291" y1="261.2031" y2="261.2031"/><line style="stroke:#181818;stroke-width:1;" x1="92.3291" x2="92.3291" y1="261.2031" y2="283.2031"/><polygon fill="#181818" points="88.3291,273.2031,92.3291,283.2031,96.3291,273.2031,92.3291,277.2031" style="stroke:#181818;stroke-width:1;"/><line style="stroke:#181818;stroke-width:1;" x1="265.5845" x2="322.5215" y1="261.2031" y2="261.2031"/><line style="stroke:#181818;stroke-width:1;" x1="322.5215" x2="322.5215" y1="261.2031" y2="283.2031"/><polygon fill="#181818" points="318.5215,273.2031,322.5215,283.2031,326.5215,273.2031,322.5215,277.2031" style="stroke:#181818;stroke-width:1;"/><line style="stroke:#181818;stroke-width:1;" x1="92.3291" x2="92.3291" y1="317.1719" y2="335.1719"/><line style="stroke:#181818;stroke-width:1;" x1="92.3291" x2="195.4253" y1="335.1719" y2="335.1719"/><polygon fill="#181818" points="185.4253,331.1719,195.4253,335.1719,185.4253,339.1719,189.4253,335.1719" style="stroke:#181818;stroke-width:1;"/><line style="stroke:#181818;stroke-width:1;" x1="322.5215" x2="322.5215" y1="317.1719" y2="335.1719"/><line style="stroke:#181818;stroke-width:1;" x1="322.5215" x2="219.4253" y1="335.1719" y2="335.1719"/><polygon fill="#181818" points="229.4253,331.1719,219.4253,335.1719,229.4253,339.1719,225.4253,335.1719" style="stroke:#181818;stroke-width:1;"/><line style="stroke:#181818;stroke-width:1;" x1="207.4253" x2="207.4253" y1="229.2031" y2="249.2031"/><polygon fill="#181818" points="203.4253,239.2031,207.4253,249.2031,211.4253,239.2031,207.4253,243.2031" style="stroke:#181818;stroke-width:1;"/><line style="stroke:#181818;stroke-width:1;" x1="207.4253" x2="207.4253" y1="347.1719" y2="367.1719"/><polygon fill="#181818" points="203.4253,357.1719,207.4253,367.1719,211.4253,357.1719,207.4253,361.1719" style="stroke:#181818;stroke-width:1;"/><?plantuml-src JO-nRiCm44DtVGL7UmWGj5iy5EWG84E1eFq2GQAJ0voJAfqDvEyZ3qcyylX8debDnFTv_uaT_axxZzsFjt35kQH58ajrhfelvWw_39I5g9mOZ17ydoNVg3QiHxyHOFTCU8tDN1O9X9AnDjzHcfYVsRYjNQAN3RfIKmhU9EdWP4Jtce8npHg_UjYLYkxEsZkWTTjSz9MAb5UsjN6gHATfwzBqBjtiOAt-mePebB5zdB9x0000?></g></svg>