<?plantuml 1.2026.2?><svg xmlns="http://www.w3.org/2000/svg" xmlns:xlink="http://www.w3.org/1999/xlink" contentStyleType="text/css" data-diagram-type="ACTIVITY" height="336px" preserveAspectRatio="none" style="width:488px;height:336px;background:#FFFFFF;" version="1.1" viewBox="0 0 488 336" width="488px" zoomAndPan="magnify"><title>BP03 - SI04-Add Information To Enroll Maintenance Plan</title><defs/><g><g class="title" data-source-line="1"><text fill="#000000" font-family="sans-serif" font-size="14" font-weight="bold" lengthAdjust="spacing" textLength="445.5049" x="20" y="32.9951">BP03 - SI04-Add Information To Enroll Maintenance Plan</text></g><ellipse cx="244.2524" cy="57.2969" fill="#222222" rx="10" ry="10" style="stroke:#222222;stroke-width:1;"/><rect fill="#F1F1F1" height="33.9688" rx="12.5" ry="12.5" style="stroke:#181818;stroke-width:0.5;" width="312.5703" x="87.9673" y="87.2969"/><text fill="#000000" font-family="sans-serif" font-size="12" lengthAdjust="spacing" textLength="292.5703" x="97.9673" y="108.4355">Receive validated maintenance plan information</text><rect fill="#F1F1F1" height="33.9688" rx="12.5" ry="12.5" style="stroke:#181818;stroke-width:0.5;" width="226.0742" x="131.2153" y="141.2656"/><text fill="#000000" font-family="sans-serif" font-size="12" lengthAdjust="spacing" textLength="206.0742" x="141.2153" y="162.4043">Update enrollment request details</text><rect fill="#F1F1F1" height="33.9688" rx="12.5" ry="12.5" style="stroke:#181818;stroke-width:0.5;" width="221.7441" x="133.3804" y="195.2344"/><text fill="#000000" font-family="sans-serif" font-size="12" lengthAdjust="spacing" textLength="201.7441" x="143.3804" y="216.373">Store back-office validation notes</text><rect fill="#F1F1F1" height="33.9688" rx="12.5" ry="12.5" style="stroke:#181818;stroke-width:0.5;" width="367.7598" x="60.3726" y="249.2031"/><text fill="#000000" font-family="sans-serif" font-size="12" lengthAdjust="spacing" textLength="347.7598" x="70.3726" y="270.3418">Evaluate whether request should be approved or rejected</text><ellipse cx="244.2524" cy="314.1719" fill="none" rx="11" ry="11" style="stroke:#222222;stroke-width:1;"/><ellipse cx="244.2524" cy="314.1719" fill="#222222" rx="6" ry="6" style="stroke:#222222;stroke-width:1;"/><line style="stroke:#181818;stroke-width:1;" x1="244.2524" x2="244.2524" y1="67.2969" y2="87.2969"/><polygon fill="#181818" points="240.2524,77.2969,244.2524,87.2969,248.2524,77.2969,244.2524,81.2969" style="stroke:#181818;stroke-width:1;"/><line style="stroke:#181818;stroke-width:1;" x1="244.2524" x2="244.2524" y1="121.2656" y2="141.2656"/><polygon fill="#181818" points="240.2524,131.2656,244.2524,141.2656,248.2524,131.2656,244.2524,135.2656" style="stroke:#181818;stroke-width:1;"/><line style="stroke:#181818;stroke-width:1;" x1="244.2524" x2="244.2524" y1="175.2344" y2="195.2344"/><polygon fill="#181818" points="240.2524,185.2344,244.2524,195.2344,248.2524,185.2344,244.2524,189.2344" style="stroke:#181818;stroke-width:1;"/><line style="stroke:#181818;stroke-width:1;" x1="244.2524" x2="244.2524" y1="229.2031" y2="249.2031"/><polygon fill="#181818" points="240.2524,239.2031,244.2524,249.2031,248.2524,239.2031,244.2524,243.2031" style="stroke:#181818;stroke-width:1;"/><line style="stroke:#181818;stroke-width:1;" x1="244.2524" x2="244.2524" y1="283.1719" y2="303.1719"/><polygon fill="#181818" points="240.2524,293.1719,244.2524,303.1719,248.2524,293.1719,244.2524,297.1719" style="stroke:#181818;stroke-width:1;"/><?plantuml-src JOv1Ri8m44NtFiLS819Iku8LbLYmg8GQEC1W_oXkdHdZJCBriRi0jly_FJsBba1Vfyq7TTGVDv_TFWGwog1bOeigT5OwID6Kw9kZ68J5Wqw9nRdPk9ZR_i0Zhg2LKmni23IzeRcY55_6dTjUSiC8_zu9ObHmMp0R1HZ7D5UcDosWA_k_JeSX-gU-HOaQ6dIesz9Kzn4seZmzywXB2dG5SSv5rzgaxVs5htsxMgxPFG00?></g></svg>