<?plantuml 1.2026.2?><svg xmlns="http://www.w3.org/2000/svg" xmlns:xlink="http://www.w3.org/1999/xlink" contentStyleType="text/css" data-diagram-type="ACTIVITY" height="454px" preserveAspectRatio="none" style="width:451px;height:454px;background:#FFFFFF;" version="1.1" viewBox="0 0 451 454" width="451px" zoomAndPan="magnify"><title>BP04 - SI03-Notify Customer Of Available Slot</title><defs/><g><g class="title" data-source-line="1"><text fill="#000000" font-family="sans-serif" font-size="14" font-weight="bold" lengthAdjust="spacing" textLength="361.9219" x="43.2207" y="32.9951">BP04 - SI03-Notify Customer Of Available Slot</text></g><ellipse cx="213.6846" cy="57.2969" fill="#222222" rx="10" ry="10" style="stroke:#222222;stroke-width:1;"/><rect fill="#F1F1F1" height="33.9688" rx="12.5" ry="12.5" style="stroke:#181818;stroke-width:0.5;" width="216.793" x="105.2881" y="87.2969"/><text fill="#000000" font-family="sans-serif" font-size="12" lengthAdjust="spacing" textLength="196.793" x="115.2881" y="108.4355">Load proposed maintenance slot</text><rect fill="#F1F1F1" height="33.9688" rx="12.5" ry="12.5" style="stroke:#181818;stroke-width:0.5;" width="201.834" x="112.7676" y="141.2656"/><text fill="#000000" font-family="sans-serif" font-size="12" lengthAdjust="spacing" textLength="181.834" x="122.7676" y="162.4043">Load customer contact details</text><rect fill="#F1F1F1" height="33.9688" rx="12.5" ry="12.5" style="stroke:#181818;stroke-width:0.5;" width="204.8457" x="111.2617" y="195.2344"/><text fill="#000000" font-family="sans-serif" font-size="12" lengthAdjust="spacing" textLength="184.8457" x="121.2617" y="216.373">Build available slot notification</text><rect fill="#F1F1F1" height="33.9688" rx="12.5" ry="12.5" style="stroke:#181818;stroke-width:0.5;" width="197.7031" x="114.833" y="249.2031"/><text fill="#000000" font-family="sans-serif" font-size="12" lengthAdjust="spacing" textLength="177.7031" x="124.833" y="270.3418">Send notification to customer</text><polygon fill="#F1F1F1" points="165.5676,303.1719,261.8015,303.1719,273.8015,315.1719,261.8015,327.1719,165.5676,327.1719,153.5676,315.1719,165.5676,303.1719" style="stroke:#181818;stroke-width:0.5;"/><text fill="#000000" font-family="sans-serif" font-size="11" lengthAdjust="spacing" textLength="96.2339" x="165.5676" y="318.98">Notification sent?</text><text fill="#000000" font-family="sans-serif" font-size="11" lengthAdjust="spacing" textLength="19.0083" x="134.5593" y="312.5776">yes</text><text fill="#000000" font-family="sans-serif" font-size="11" lengthAdjust="spacing" textLength="13.7017" x="273.8015" y="312.5776">no</text><rect fill="#F1F1F1" height="33.9688" rx="12.5" ry="12.5" style="stroke:#181818;stroke-width:0.5;" width="180.6875" x="11" y="337.1719"/><text fill="#000000" font-family="sans-serif" font-size="12" lengthAdjust="spacing" textLength="160.6875" x="21" y="358.3105">Record notification as sent</text><rect fill="#F1F1F1" height="33.9688" rx="12.5" ry="12.5" style="stroke:#181818;stroke-width:0.5;" width="228.6758" x="211.6875" y="337.1719"/><text fill="#000000" font-family="sans-serif" font-size="12" lengthAdjust="spacing" textLength="208.6758" x="221.6875" y="358.3105">Record notification failure for retry</text><polygon fill="#F1F1F1" points="213.6846,377.1406,225.6846,389.1406,213.6846,401.1406,201.6846,389.1406,213.6846,377.1406" style="stroke:#181818;stroke-width:0.5;"/><ellipse cx="213.6846" cy="432.1406" fill="none" rx="11" ry="11" style="stroke:#222222;stroke-width:1;"/><ellipse cx="213.6846" cy="432.1406" fill="#222222" rx="6" ry="6" style="stroke:#222222;stroke-width:1;"/><line style="stroke:#181818;stroke-width:1;" x1="213.6846" x2="213.6846" y1="67.2969" y2="87.2969"/><polygon fill="#181818" points="209.6846,77.2969,213.6846,87.2969,217.6846,77.2969,213.6846,81.2969" style="stroke:#181818;stroke-width:1;"/><line style="stroke:#181818;stroke-width:1;" x1="213.6846" x2="213.6846" y1="121.2656" y2="141.2656"/><polygon fill="#181818" points="209.6846,131.2656,213.6846,141.2656,217.6846,131.2656,213.6846,135.2656" style="stroke:#181818;stroke-width:1;"/><line style="stroke:#181818;stroke-width:1;" x1="213.6846" x2="213.6846" y1="175.2344" y2="195.2344"/><polygon fill="#181818" points="209.6846,185.2344,213.6846,195.2344,217.6846,185.2344,213.6846,189.2344" style="stroke:#181818;stroke-width:1;"/><line style="stroke:#181818;stroke-width:1;" x1="213.6846" x2="213.6846" y1="229.2031" y2="249.2031"/><polygon fill="#181818" points="209.6846,239.2031,213.6846,249.2031,217.6846,239.2031,213.6846,243.2031" style="stroke:#181818;stroke-width:1;"/><line style="stroke:#181818;stroke-width:1;" x1="153.5676" x2="101.3438" y1="315.1719" y2="315.1719"/><line style="stroke:#181818;stroke-width:1;" x1="101.3438" x2="101.3438" y1="315.1719" y2="337.1719"/><polygon fill="#181818" points="97.3438,327.1719,101.3438,337.1719,105.3438,327.1719,101.3438,331.1719" style="stroke:#181818;stroke-width:1;"/><line style="stroke:#181818;stroke-width:1;" x1="273.8015" x2="326.0254" y1="315.1719" y2="315.1719"/><line style="stroke:#181818;stroke-width:1;" x1="326.0254" x2="326.0254" y1="315.1719" y2="337.1719"/><polygon fill="#181818" points="322.0254,327.1719,326.0254,337.1719,330.0254,327.1719,326.0254,331.1719" style="stroke:#181818;stroke-width:1;"/><line style="stroke:#181818;stroke-width:1;" x1="101.3438" x2="101.3438" y1="371.1406" y2="389.1406"/><line style="stroke:#181818;stroke-width:1;" x1="101.3438" x2="201.6846" y1="389.1406" y2="389.1406"/><polygon fill="#181818" points="191.6846,385.1406,201.6846,389.1406,191.6846,393.1406,195.6846,389.1406" style="stroke:#181818;stroke-width:1;"/><line style="stroke:#181818;stroke-width:1;" x1="326.0254" x2="326.0254" y1="371.1406" y2="389.1406"/><line style="stroke:#181818;stroke-width:1;" x1="326.0254" x2="225.6846" y1="389.1406" y2="389.1406"/><polygon fill="#181818" points="235.6846,385.1406,225.6846,389.1406,235.6846,393.1406,231.6846,389.1406" style="stroke:#181818;stroke-width:1;"/><line style="stroke:#181818;stroke-width:1;" x1="213.6846" x2="213.6846" y1="283.1719" y2="303.1719"/><polygon fill="#181818" points="209.6846,293.1719,213.6846,303.1719,217.6846,293.1719,213.6846,297.1719" style="stroke:#181818;stroke-width:1;"/><line style="stroke:#181818;stroke-width:1;" x1="213.6846" x2="213.6846" y1="401.1406" y2="421.1406"/><polygon fill="#181818" points="209.6846,411.1406,213.6846,421.1406,217.6846,411.1406,213.6846,415.1406" style="stroke:#181818;stroke-width:1;"/><?plantuml-src TP31IWD138RlynJ_SNie5FJKFOZr99GgxXF4cGmEJ9DbaXNsxPsA5XMyvl_-Bo5Ul38EpxjRR34zxcws9_MILpmivdhcXgUC-tSgbLuxE5Nr4CofUTWVbHBcfhCQ9vofYBEGH8PrRFm2uhSegZX5HsBlEklvOIarWQxsImrosLyYUL7fpCIIVitWUdMEeMGCfv-fiVZT1lx6Wc5bsmHW_y9HsnyDsISx1gx664J_9NE_RscCh0sDlQsz8wda_WUTmmS0?></g></svg>