<?plantuml 1.2026.2?><svg xmlns="http://www.w3.org/2000/svg" xmlns:xlink="http://www.w3.org/1999/xlink" contentStyleType="text/css" data-diagram-type="ACTIVITY" height="336px" preserveAspectRatio="none" style="width:340px;height:336px;background:#FFFFFF;" version="1.1" viewBox="0 0 340 336" width="340px" zoomAndPan="magnify"><title>BP04 - SI06-Decline Maintenance Slot</title><defs/><g><g class="title" data-source-line="1"><text fill="#000000" font-family="sans-serif" font-size="14" font-weight="bold" lengthAdjust="spacing" textLength="297.4795" x="20" y="32.9951">BP04 - SI06-Decline Maintenance Slot</text></g><ellipse cx="170.2397" cy="57.2969" fill="#222222" rx="10" ry="10" style="stroke:#222222;stroke-width:1;"/><rect fill="#F1F1F1" height="33.9688" rx="12.5" ry="12.5" style="stroke:#181818;stroke-width:0.5;" width="214.9121" x="62.7837" y="87.2969"/><text fill="#000000" font-family="sans-serif" font-size="12" lengthAdjust="spacing" textLength="194.9121" x="72.7837" y="108.4355">Receive customer disagreement</text><rect fill="#F1F1F1" height="33.9688" rx="12.5" ry="12.5" style="stroke:#181818;stroke-width:0.5;" width="207.0605" x="66.7095" y="141.2656"/><text fill="#000000" font-family="sans-serif" font-size="12" lengthAdjust="spacing" textLength="187.0605" x="76.7095" y="162.4043">Mark proposed slot as declined</text><rect fill="#F1F1F1" height="33.9688" rx="12.5" ry="12.5" style="stroke:#181818;stroke-width:0.5;" width="211.7715" x="64.354" y="195.2344"/><text fill="#000000" font-family="sans-serif" font-size="12" lengthAdjust="spacing" textLength="191.7715" x="74.354" y="216.373">Release or archive declined slot</text><rect fill="#F1F1F1" height="33.9688" rx="12.5" ry="12.5" style="stroke:#181818;stroke-width:0.5;" width="251.082" x="44.6987" y="249.2031"/><text fill="#000000" font-family="sans-serif" font-size="12" lengthAdjust="spacing" textLength="231.082" x="54.6987" y="270.3418">Restart scheduling to find another slot</text><ellipse cx="170.2397" cy="314.1719" fill="none" rx="11" ry="11" style="stroke:#222222;stroke-width:1;"/><ellipse cx="170.2397" cy="314.1719" fill="#222222" rx="6" ry="6" style="stroke:#222222;stroke-width:1;"/><line style="stroke:#181818;stroke-width:1;" x1="170.2397" x2="170.2397" y1="67.2969" y2="87.2969"/><polygon fill="#181818" points="166.2397,77.2969,170.2397,87.2969,174.2397,77.2969,170.2397,81.2969" style="stroke:#181818;stroke-width:1;"/><line style="stroke:#181818;stroke-width:1;" x1="170.2397" x2="170.2397" y1="121.2656" y2="141.2656"/><polygon fill="#181818" points="166.2397,131.2656,170.2397,141.2656,174.2397,131.2656,170.2397,135.2656" style="stroke:#181818;stroke-width:1;"/><line style="stroke:#181818;stroke-width:1;" x1="170.2397" x2="170.2397" y1="175.2344" y2="195.2344"/><polygon fill="#181818" points="166.2397,185.2344,170.2397,195.2344,174.2397,185.2344,170.2397,189.2344" style="stroke:#181818;stroke-width:1;"/><line style="stroke:#181818;stroke-width:1;" x1="170.2397" x2="170.2397" y1="229.2031" y2="249.2031"/><polygon fill="#181818" points="166.2397,239.2031,170.2397,249.2031,174.2397,239.2031,170.2397,243.2031" style="stroke:#181818;stroke-width:1;"/><line style="stroke:#181818;stroke-width:1;" x1="170.2397" x2="170.2397" y1="283.1719" y2="303.1719"/><polygon fill="#181818" points="166.2397,293.1719,170.2397,303.1719,174.2397,293.1719,170.2397,297.1719" style="stroke:#181818;stroke-width:1;"/><?plantuml-src DOun3eCm54FtdC8NG6AeEi1MTUc0L9KJV2KkH0q9IZuzVmEeiv-VhLu3SNks5pGO7-srkTC67ub1V5H6YPOOGr9ZYafMqxrewR-4tOgcXHdE5vaokJ1gRxf1yWThJcigT2Yr2YbmfzRrko1G2f4o9DjvT_tJ0p-GOmp5pdHRZIPemjj71ub9vxfwalN2Qdu0?></g></svg>