<?plantuml 1.2026.2?><svg xmlns="http://www.w3.org/2000/svg" xmlns:xlink="http://www.w3.org/1999/xlink" contentStyleType="text/css" data-diagram-type="ACTIVITY" height="405px" preserveAspectRatio="none" style="width:508px;height:405px;background:#FFFFFF;" version="1.1" viewBox="0 0 508 405" width="508px" zoomAndPan="magnify"><defs/><g><rect fill="none" height="383.1719" style="stroke:#000000;stroke-width:1.5;" width="486.0645" x="11" y="11"/><path d="M369.4893,11 L369.4893,20.2969 L359.4893,30.2969 L11,30.2969" fill="none" style="stroke:#000000;stroke-width:1.5;"/><text fill="#000000" font-family="sans-serif" font-size="14" lengthAdjust="spacing" textLength="348.4893" x="14" y="24.9951">BP04 - SI05-Notify Maintenance Slot Confirmation</text><ellipse cx="250.2104" cy="50.2969" fill="#222222" rx="10" ry="10" style="stroke:#222222;stroke-width:1;"/><rect fill="#F1F1F1" height="33.9688" rx="12.5" ry="12.5" style="stroke:#181818;stroke-width:0.5;" width="217.6543" x="141.3833" y="80.2969"/><text fill="#000000" font-family="sans-serif" font-size="12" lengthAdjust="spacing" textLength="197.6543" x="151.3833" y="101.4355">Load approved maintenance slot</text><rect fill="#F1F1F1" height="33.9688" rx="12.5" ry="12.5" style="stroke:#181818;stroke-width:0.5;" width="213.1953" x="143.6128" y="134.2656"/><text fill="#000000" font-family="sans-serif" font-size="12" lengthAdjust="spacing" textLength="193.1953" x="153.6128" y="155.4043">Build slot confirmation message</text><rect fill="#F1F1F1" height="33.9688" rx="12.5" ry="12.5" style="stroke:#181818;stroke-width:0.5;" width="243.1953" x="128.6128" y="188.2344"/><text fill="#000000" font-family="sans-serif" font-size="12" lengthAdjust="spacing" textLength="223.1953" x="138.6128" y="209.373">Send confirmation email to customer</text><polygon fill="#F1F1F1" points="218.3921,242.2031,282.0288,242.2031,294.0288,254.2031,282.0288,266.2031,218.3921,266.2031,206.3921,254.2031,218.3921,242.2031" style="stroke:#181818;stroke-width:0.5;"/><text fill="#000000" font-family="sans-serif" font-size="11" lengthAdjust="spacing" textLength="63.6367" x="218.3921" y="258.0112">Email sent?</text><text fill="#000000" font-family="sans-serif" font-size="11" lengthAdjust="spacing" textLength="19.0083" x="187.3838" y="251.6089">yes</text><text fill="#000000" font-family="sans-serif" font-size="11" lengthAdjust="spacing" textLength="13.7017" x="294.0288" y="251.6089">no</text><rect fill="#F1F1F1" height="33.9688" rx="12.5" ry="12.5" style="stroke:#181818;stroke-width:0.5;" width="213.3887" x="23" y="276.2031"/><text fill="#000000" font-family="sans-serif" font-size="12" lengthAdjust="spacing" textLength="193.3887" x="33" y="297.3418">Record confirmation notification</text><rect fill="#F1F1F1" height="33.9688" rx="12.5" ry="12.5" style="stroke:#181818;stroke-width:0.5;" width="228.6758" x="256.3887" y="276.2031"/><text fill="#000000" font-family="sans-serif" font-size="12" lengthAdjust="spacing" textLength="208.6758" x="266.3887" y="297.3418">Record notification failure for retry</text><polygon fill="#F1F1F1" points="250.2104,316.1719,262.2104,328.1719,250.2104,340.1719,238.2104,328.1719,250.2104,316.1719" style="stroke:#181818;stroke-width:0.5;"/><ellipse cx="250.2104" cy="371.1719" fill="none" rx="11" ry="11" style="stroke:#222222;stroke-width:1;"/><ellipse cx="250.2104" cy="371.1719" fill="#222222" rx="6" ry="6" style="stroke:#222222;stroke-width:1;"/><line style="stroke:#181818;stroke-width:1;" x1="250.2104" x2="250.2104" y1="60.2969" y2="80.2969"/><polygon fill="#181818" points="246.2104,70.2969,250.2104,80.2969,254.2104,70.2969,250.2104,74.2969" style="stroke:#181818;stroke-width:1;"/><line style="stroke:#181818;stroke-width:1;" x1="250.2104" x2="250.2104" y1="114.2656" y2="134.2656"/><polygon fill="#181818" points="246.2104,124.2656,250.2104,134.2656,254.2104,124.2656,250.2104,128.2656" style="stroke:#181818;stroke-width:1;"/><line style="stroke:#181818;stroke-width:1;" x1="250.2104" x2="250.2104" y1="168.2344" y2="188.2344"/><polygon fill="#181818" points="246.2104,178.2344,250.2104,188.2344,254.2104,178.2344,250.2104,182.2344" style="stroke:#181818;stroke-width:1;"/><line style="stroke:#181818;stroke-width:1;" x1="206.3921" x2="129.6943" y1="254.2031" y2="254.2031"/><line style="stroke:#181818;stroke-width:1;" x1="129.6943" x2="129.6943" y1="254.2031" y2="276.2031"/><polygon fill="#181818" points="125.6943,266.2031,129.6943,276.2031,133.6943,266.2031,129.6943,270.2031" style="stroke:#181818;stroke-width:1;"/><line style="stroke:#181818;stroke-width:1;" x1="294.0288" x2="370.7266" y1="254.2031" y2="254.2031"/><line style="stroke:#181818;stroke-width:1;" x1="370.7266" x2="370.7266" y1="254.2031" y2="276.2031"/><polygon fill="#181818" points="366.7266,266.2031,370.7266,276.2031,374.7266,266.2031,370.7266,270.2031" style="stroke:#181818;stroke-width:1;"/><line style="stroke:#181818;stroke-width:1;" x1="129.6943" x2="129.6943" y1="310.1719" y2="328.1719"/><line style="stroke:#181818;stroke-width:1;" x1="129.6943" x2="238.2104" y1="328.1719" y2="328.1719"/><polygon fill="#181818" points="228.2104,324.1719,238.2104,328.1719,228.2104,332.1719,232.2104,328.1719" style="stroke:#181818;stroke-width:1;"/><line style="stroke:#181818;stroke-width:1;" x1="370.7266" x2="370.7266" y1="310.1719" y2="328.1719"/><line style="stroke:#181818;stroke-width:1;" x1="370.7266" x2="262.2104" y1="328.1719" y2="328.1719"/><polygon fill="#181818" points="272.2104,324.1719,262.2104,328.1719,272.2104,332.1719,268.2104,328.1719" style="stroke:#181818;stroke-width:1;"/><line style="stroke:#181818;stroke-width:1;" x1="250.2104" x2="250.2104" y1="222.2031" y2="242.2031"/><polygon fill="#181818" points="246.2104,232.2031,250.2104,242.2031,254.2104,232.2031,250.2104,236.2031" style="stroke:#181818;stroke-width:1;"/><line style="stroke:#181818;stroke-width:1;" x1="250.2104" x2="250.2104" y1="340.1719" y2="360.1719"/><polygon fill="#181818" points="246.2104,350.1719,250.2104,360.1719,254.2104,350.1719,250.2104,354.1719" style="stroke:#181818;stroke-width:1;"/><?plantuml-src NO-nQWCn38RtUugVJ9SXaA5TcY6Gqg7Gbj9x0cFBhU1EEcnTuIXzzzYUBfc4-F_l4vfTCZPMmUxoUNp00SFhyV7meSPnnRjZCH8ddZ2CQdXMYPmcLuaT_ZeWMp6K-VIcBi3DSz9V2fWsP2xagLOk2u-XhV0R4IRAsNrJwmmauJQbuXfX2hzaqubIxN54_zA2J6BdFUo71FrAUL_IulaYh-dE9FKhzcsf4XepeHUzHROjn79YIOIe2OaihOsJmB7zhdFttrq1?></g></svg>