<?plantuml 1.2026.2?><svg xmlns="http://www.w3.org/2000/svg" xmlns:xlink="http://www.w3.org/1999/xlink" contentStyleType="text/css" data-diagram-type="ACTIVITY" height="336px" preserveAspectRatio="none" style="width:398px;height:336px;background:#FFFFFF;" version="1.1" viewBox="0 0 398 336" width="398px" zoomAndPan="magnify"><title>BP04 - SI01-Start Schedule Maintenance Slot</title><defs/><g><g class="title" data-source-line="1"><text fill="#000000" font-family="sans-serif" font-size="14" font-weight="bold" lengthAdjust="spacing" textLength="355.8242" x="20" y="32.9951">BP04 - SI01-Start Schedule Maintenance Slot</text></g><ellipse cx="199.4121" cy="57.2969" fill="#222222" rx="10" ry="10" style="stroke:#222222;stroke-width:1;"/><rect fill="#F1F1F1" height="33.9688" rx="12.5" ry="12.5" style="stroke:#181818;stroke-width:0.5;" width="268.4082" x="65.208" y="87.2969"/><text fill="#000000" font-family="sans-serif" font-size="12" lengthAdjust="spacing" textLength="248.4082" x="75.208" y="108.4355">Receive maintenance scheduling request</text><rect fill="#F1F1F1" height="33.9688" rx="12.5" ry="12.5" style="stroke:#181818;stroke-width:0.5;" width="221.7324" x="88.5459" y="141.2656"/><text fill="#000000" font-family="sans-serif" font-size="12" lengthAdjust="spacing" textLength="201.7324" x="98.5459" y="162.4043">Validate active maintenance plan</text><rect fill="#F1F1F1" height="33.9688" rx="12.5" ry="12.5" style="stroke:#181818;stroke-width:0.5;" width="178.5957" x="110.1143" y="195.2344"/><text fill="#000000" font-family="sans-serif" font-size="12" lengthAdjust="spacing" textLength="158.5957" x="120.1143" y="216.373">Create scheduling request</text><rect fill="#F1F1F1" height="33.9688" rx="12.5" ry="12.5" style="stroke:#181818;stroke-width:0.5;" width="350.1992" x="24.3125" y="249.2031"/><text fill="#000000" font-family="sans-serif" font-size="12" lengthAdjust="spacing" textLength="330.1992" x="34.3125" y="270.3418">Send request to back office for contractor coordination</text><ellipse cx="199.4121" cy="314.1719" fill="none" rx="11" ry="11" style="stroke:#222222;stroke-width:1;"/><ellipse cx="199.4121" cy="314.1719" fill="#222222" rx="6" ry="6" style="stroke:#222222;stroke-width:1;"/><line style="stroke:#181818;stroke-width:1;" x1="199.4121" x2="199.4121" y1="67.2969" y2="87.2969"/><polygon fill="#181818" points="195.4121,77.2969,199.4121,87.2969,203.4121,77.2969,199.4121,81.2969" style="stroke:#181818;stroke-width:1;"/><line style="stroke:#181818;stroke-width:1;" x1="199.4121" x2="199.4121" y1="121.2656" y2="141.2656"/><polygon fill="#181818" points="195.4121,131.2656,199.4121,141.2656,203.4121,131.2656,199.4121,135.2656" style="stroke:#181818;stroke-width:1;"/><line style="stroke:#181818;stroke-width:1;" x1="199.4121" x2="199.4121" y1="175.2344" y2="195.2344"/><polygon fill="#181818" points="195.4121,185.2344,199.4121,195.2344,203.4121,185.2344,199.4121,189.2344" style="stroke:#181818;stroke-width:1;"/><line style="stroke:#181818;stroke-width:1;" x1="199.4121" x2="199.4121" y1="229.2031" y2="249.2031"/><polygon fill="#181818" points="195.4121,239.2031,199.4121,249.2031,203.4121,239.2031,199.4121,243.2031" style="stroke:#181818;stroke-width:1;"/><line style="stroke:#181818;stroke-width:1;" x1="199.4121" x2="199.4121" y1="283.1719" y2="303.1719"/><polygon fill="#181818" points="195.4121,293.1719,199.4121,303.1719,203.4121,293.1719,199.4121,297.1719" style="stroke:#181818;stroke-width:1;"/><?plantuml-src ROon2W8n44JxVCN-mC49LcUdbOKW1kpNPAEBSVTCzln-SueWOZV3l3V6bWdM-tu97VXjl-YyOJ7muK9nQjCEMOm49H3uhEPSdG4t72WGFmXkNq1zMondA7IVgDhA3KVC7D48CDYlC6QKXcmApS1VtPF4JmLJE66uWgR4JKzQ8AXOQTUlg2MoeB6srsewkYS0?></g></svg>