<?plantuml 1.2026.2?><svg xmlns="http://www.w3.org/2000/svg" xmlns:xlink="http://www.w3.org/1999/xlink" contentStyleType="text/css" data-diagram-type="ACTIVITY" height="336px" preserveAspectRatio="none" style="width:351px;height:336px;background:#FFFFFF;" version="1.1" viewBox="0 0 351 336" width="351px" zoomAndPan="magnify"><title>BP04 - SI02-Set Maintenance Slot Time</title><defs/><g><g class="title" data-source-line="1"><text fill="#000000" font-family="sans-serif" font-size="14" font-weight="bold" lengthAdjust="spacing" textLength="308.5811" x="20" y="32.9951">BP04 - SI02-Set Maintenance Slot Time</text></g><ellipse cx="175.7905" cy="57.2969" fill="#222222" rx="10" ry="10" style="stroke:#222222;stroke-width:1;"/><rect fill="#F1F1F1" height="33.9688" rx="12.5" ry="12.5" style="stroke:#181818;stroke-width:0.5;" width="254.1406" x="48.7202" y="87.2969"/><text fill="#000000" font-family="sans-serif" font-size="12" lengthAdjust="spacing" textLength="234.1406" x="58.7202" y="108.4355">Receive proposed slot from back office</text><rect fill="#F1F1F1" height="33.9688" rx="12.5" ry="12.5" style="stroke:#181818;stroke-width:0.5;" width="182.9258" x="84.3276" y="141.2656"/><text fill="#000000" font-family="sans-serif" font-size="12" lengthAdjust="spacing" textLength="162.9258" x="94.3276" y="162.4043">Validate slot date and time</text><rect fill="#F1F1F1" height="33.9688" rx="12.5" ry="12.5" style="stroke:#181818;stroke-width:0.5;" width="219.7754" x="65.9028" y="195.2344"/><text fill="#000000" font-family="sans-serif" font-size="12" lengthAdjust="spacing" textLength="199.7754" x="75.9028" y="216.373">Store proposed maintenance slot</text><rect fill="#F1F1F1" height="33.9688" rx="12.5" ry="12.5" style="stroke:#181818;stroke-width:0.5;" width="322.7891" x="14.396" y="249.2031"/><text fill="#000000" font-family="sans-serif" font-size="12" lengthAdjust="spacing" textLength="302.7891" x="24.396" y="270.3418">Mark slot as allocated pending customer response</text><ellipse cx="175.7905" cy="314.1719" fill="none" rx="11" ry="11" style="stroke:#222222;stroke-width:1;"/><ellipse cx="175.7905" cy="314.1719" fill="#222222" rx="6" ry="6" style="stroke:#222222;stroke-width:1;"/><line style="stroke:#181818;stroke-width:1;" x1="175.7905" x2="175.7905" y1="67.2969" y2="87.2969"/><polygon fill="#181818" points="171.7905,77.2969,175.7905,87.2969,179.7905,77.2969,175.7905,81.2969" style="stroke:#181818;stroke-width:1;"/><line style="stroke:#181818;stroke-width:1;" x1="175.7905" x2="175.7905" y1="121.2656" y2="141.2656"/><polygon fill="#181818" points="171.7905,131.2656,175.7905,141.2656,179.7905,131.2656,175.7905,135.2656" style="stroke:#181818;stroke-width:1;"/><line style="stroke:#181818;stroke-width:1;" x1="175.7905" x2="175.7905" y1="175.2344" y2="195.2344"/><polygon fill="#181818" points="171.7905,185.2344,175.7905,195.2344,179.7905,185.2344,175.7905,189.2344" style="stroke:#181818;stroke-width:1;"/><line style="stroke:#181818;stroke-width:1;" x1="175.7905" x2="175.7905" y1="229.2031" y2="249.2031"/><polygon fill="#181818" points="171.7905,239.2031,175.7905,249.2031,179.7905,239.2031,175.7905,243.2031" style="stroke:#181818;stroke-width:1;"/><line style="stroke:#181818;stroke-width:1;" x1="175.7905" x2="175.7905" y1="283.1719" y2="303.1719"/><polygon fill="#181818" points="171.7905,293.1719,175.7905,303.1719,179.7905,293.1719,175.7905,297.1719" style="stroke:#181818;stroke-width:1;"/><?plantuml-src JOsn3i8m34JtVCNzGAKACPMDZQ4I8eZT92wAciHHOlX-KbYwMNVldZLeP9olun43x6Ky39OLCuMid2axXesYk8V4nZIbgcQwiUFmOPGgHHfxj0rPgYGyoQsGPGcEJsPwK0oUbF_0xwBieLtMMwjITvAq-xdndPYfhlyjDL2Cuhh2et3s8R_WtaqbSKNbLYItBkr1CLy0?></g></svg>