<?plantuml 1.2026.2?><svg xmlns="http://www.w3.org/2000/svg" xmlns:xlink="http://www.w3.org/1999/xlink" contentStyleType="text/css" data-diagram-type="ACTIVITY" height="336px" preserveAspectRatio="none" style="width:348px;height:336px;background:#FFFFFF;" version="1.1" viewBox="0 0 348 336" width="348px" zoomAndPan="magnify"><title>BP04 - SI04-Approve Maintenance Slot</title><defs/><g><g class="title" data-source-line="1"><text fill="#000000" font-family="sans-serif" font-size="14" font-weight="bold" lengthAdjust="spacing" textLength="305.0264" x="20" y="32.9951">BP04 - SI04-Approve Maintenance Slot</text></g><ellipse cx="174.0132" cy="57.2969" fill="#222222" rx="10" ry="10" style="stroke:#222222;stroke-width:1;"/><rect fill="#F1F1F1" height="33.9688" rx="12.5" ry="12.5" style="stroke:#181818;stroke-width:0.5;" width="197.709" x="75.1587" y="87.2969"/><text fill="#000000" font-family="sans-serif" font-size="12" lengthAdjust="spacing" textLength="177.709" x="85.1587" y="108.4355">Receive customer agreement</text><rect fill="#F1F1F1" height="33.9688" rx="12.5" ry="12.5" style="stroke:#181818;stroke-width:0.5;" width="235.3027" x="56.3618" y="141.2656"/><text fill="#000000" font-family="sans-serif" font-size="12" lengthAdjust="spacing" textLength="215.3027" x="66.3618" y="162.4043">Confirm proposed maintenance slot</text><rect fill="#F1F1F1" height="33.9688" rx="12.5" ry="12.5" style="stroke:#181818;stroke-width:0.5;" width="206.2344" x="70.896" y="195.2344"/><text fill="#000000" font-family="sans-serif" font-size="12" lengthAdjust="spacing" textLength="186.2344" x="80.896" y="216.373">Update slot status to approved</text><rect fill="#F1F1F1" height="33.9688" rx="12.5" ry="12.5" style="stroke:#181818;stroke-width:0.5;" width="214.3262" x="66.8501" y="249.2031"/><text fill="#000000" font-family="sans-serif" font-size="12" lengthAdjust="spacing" textLength="194.3262" x="76.8501" y="270.3418">Trigger confirmation notification</text><ellipse cx="174.0132" cy="314.1719" fill="none" rx="11" ry="11" style="stroke:#222222;stroke-width:1;"/><ellipse cx="174.0132" cy="314.1719" fill="#222222" rx="6" ry="6" style="stroke:#222222;stroke-width:1;"/><line style="stroke:#181818;stroke-width:1;" x1="174.0132" x2="174.0132" y1="67.2969" y2="87.2969"/><polygon fill="#181818" points="170.0132,77.2969,174.0132,87.2969,178.0132,77.2969,174.0132,81.2969" style="stroke:#181818;stroke-width:1;"/><line style="stroke:#181818;stroke-width:1;" x1="174.0132" x2="174.0132" y1="121.2656" y2="141.2656"/><polygon fill="#181818" points="170.0132,131.2656,174.0132,141.2656,178.0132,131.2656,174.0132,135.2656" style="stroke:#181818;stroke-width:1;"/><line style="stroke:#181818;stroke-width:1;" x1="174.0132" x2="174.0132" y1="175.2344" y2="195.2344"/><polygon fill="#181818" points="170.0132,185.2344,174.0132,195.2344,178.0132,185.2344,174.0132,189.2344" style="stroke:#181818;stroke-width:1;"/><line style="stroke:#181818;stroke-width:1;" x1="174.0132" x2="174.0132" y1="229.2031" y2="249.2031"/><polygon fill="#181818" points="170.0132,239.2031,174.0132,249.2031,178.0132,239.2031,174.0132,243.2031" style="stroke:#181818;stroke-width:1;"/><line style="stroke:#181818;stroke-width:1;" x1="174.0132" x2="174.0132" y1="283.1719" y2="303.1719"/><polygon fill="#181818" points="170.0132,293.1719,174.0132,303.1719,178.0132,293.1719,174.0132,297.1719" style="stroke:#181818;stroke-width:1;"/><?plantuml-src JSun2iCm38NXtQVG1G8PCYLJswb3eJJf0OIj144i6Llf-IkQfUE3dqyojftW-km7w62-zqDtAQNgX-21B4Q24WdcNIs4PbWjZ2-An1x4evbcge1R9SeaDeNnfh9opU16qKO9yX_JdF7cNHBQkS1DEngO0fvtamTBvMrpE9uO6gk0gF7AyJSc_qLB-080?></g></svg>