<?plantuml 1.2026.2?><svg xmlns="http://www.w3.org/2000/svg" xmlns:xlink="http://www.w3.org/1999/xlink" contentStyleType="text/css" data-diagram-type="ACTIVITY" height="400px" preserveAspectRatio="none" style="width:484px;height:400px;background:#FFFFFF;" version="1.1" viewBox="0 0 484 400" width="484px" zoomAndPan="magnify"><title>BP04 - SI05-Notify Maintenance Slot Confirmation</title><defs/><g><g class="title" data-source-line="1"><text fill="#000000" font-family="sans-serif" font-size="14" font-weight="bold" lengthAdjust="spacing" textLength="394.6865" x="43.189" y="32.9951">BP04 - SI05-Notify Maintenance Slot Confirmation</text></g><ellipse cx="238.2104" cy="57.2969" fill="#222222" rx="10" ry="10" style="stroke:#222222;stroke-width:1;"/><rect fill="#F1F1F1" height="33.9688" rx="12.5" ry="12.5" style="stroke:#181818;stroke-width:0.5;" width="217.6543" x="129.3833" y="87.2969"/><text fill="#000000" font-family="sans-serif" font-size="12" lengthAdjust="spacing" textLength="197.6543" x="139.3833" y="108.4355">Load approved maintenance slot</text><rect fill="#F1F1F1" height="33.9688" rx="12.5" ry="12.5" style="stroke:#181818;stroke-width:0.5;" width="213.1953" x="131.6128" y="141.2656"/><text fill="#000000" font-family="sans-serif" font-size="12" lengthAdjust="spacing" textLength="193.1953" x="141.6128" y="162.4043">Build slot confirmation message</text><rect fill="#F1F1F1" height="33.9688" rx="12.5" ry="12.5" style="stroke:#181818;stroke-width:0.5;" width="243.1953" x="116.6128" y="195.2344"/><text fill="#000000" font-family="sans-serif" font-size="12" lengthAdjust="spacing" textLength="223.1953" x="126.6128" y="216.373">Send confirmation email to customer</text><polygon fill="#F1F1F1" points="206.3921,249.2031,270.0288,249.2031,282.0288,261.2031,270.0288,273.2031,206.3921,273.2031,194.3921,261.2031,206.3921,249.2031" style="stroke:#181818;stroke-width:0.5;"/><text fill="#000000" font-family="sans-serif" font-size="11" lengthAdjust="spacing" textLength="63.6367" x="206.3921" y="265.0112">Email sent?</text><text fill="#000000" font-family="sans-serif" font-size="11" lengthAdjust="spacing" textLength="19.0083" x="175.3838" y="258.6089">yes</text><text fill="#000000" font-family="sans-serif" font-size="11" lengthAdjust="spacing" textLength="13.7017" x="282.0288" y="258.6089">no</text><rect fill="#F1F1F1" height="33.9688" rx="12.5" ry="12.5" style="stroke:#181818;stroke-width:0.5;" width="213.3887" x="11" y="283.2031"/><text fill="#000000" font-family="sans-serif" font-size="12" lengthAdjust="spacing" textLength="193.3887" x="21" y="304.3418">Record confirmation notification</text><rect fill="#F1F1F1" height="33.9688" rx="12.5" ry="12.5" style="stroke:#181818;stroke-width:0.5;" width="228.6758" x="244.3887" y="283.2031"/><text fill="#000000" font-family="sans-serif" font-size="12" lengthAdjust="spacing" textLength="208.6758" x="254.3887" y="304.3418">Record notification failure for retry</text><polygon fill="#F1F1F1" points="238.2104,323.1719,250.2104,335.1719,238.2104,347.1719,226.2104,335.1719,238.2104,323.1719" style="stroke:#181818;stroke-width:0.5;"/><ellipse cx="238.2104" cy="378.1719" fill="none" rx="11" ry="11" style="stroke:#222222;stroke-width:1;"/><ellipse cx="238.2104" cy="378.1719" fill="#222222" rx="6" ry="6" style="stroke:#222222;stroke-width:1;"/><line style="stroke:#181818;stroke-width:1;" x1="238.2104" x2="238.2104" y1="67.2969" y2="87.2969"/><polygon fill="#181818" points="234.2104,77.2969,238.2104,87.2969,242.2104,77.2969,238.2104,81.2969" style="stroke:#181818;stroke-width:1;"/><line style="stroke:#181818;stroke-width:1;" x1="238.2104" x2="238.2104" y1="121.2656" y2="141.2656"/><polygon fill="#181818" points="234.2104,131.2656,238.2104,141.2656,242.2104,131.2656,238.2104,135.2656" style="stroke:#181818;stroke-width:1;"/><line style="stroke:#181818;stroke-width:1;" x1="238.2104" x2="238.2104" y1="175.2344" y2="195.2344"/><polygon fill="#181818" points="234.2104,185.2344,238.2104,195.2344,242.2104,185.2344,238.2104,189.2344" style="stroke:#181818;stroke-width:1;"/><line style="stroke:#181818;stroke-width:1;" x1="194.3921" x2="117.6943" y1="261.2031" y2="261.2031"/><line style="stroke:#181818;stroke-width:1;" x1="117.6943" x2="117.6943" y1="261.2031" y2="283.2031"/><polygon fill="#181818" points="113.6943,273.2031,117.6943,283.2031,121.6943,273.2031,117.6943,277.2031" style="stroke:#181818;stroke-width:1;"/><line style="stroke:#181818;stroke-width:1;" x1="282.0288" x2="358.7266" y1="261.2031" y2="261.2031"/><line style="stroke:#181818;stroke-width:1;" x1="358.7266" x2="358.7266" y1="261.2031" y2="283.2031"/><polygon fill="#181818" points="354.7266,273.2031,358.7266,283.2031,362.7266,273.2031,358.7266,277.2031" style="stroke:#181818;stroke-width:1;"/><line style="stroke:#181818;stroke-width:1;" x1="117.6943" x2="117.6943" y1="317.1719" y2="335.1719"/><line style="stroke:#181818;stroke-width:1;" x1="117.6943" x2="226.2104" y1="335.1719" y2="335.1719"/><polygon fill="#181818" points="216.2104,331.1719,226.2104,335.1719,216.2104,339.1719,220.2104,335.1719" style="stroke:#181818;stroke-width:1;"/><line style="stroke:#181818;stroke-width:1;" x1="358.7266" x2="358.7266" y1="317.1719" y2="335.1719"/><line style="stroke:#181818;stroke-width:1;" x1="358.7266" x2="250.2104" y1="335.1719" y2="335.1719"/><polygon fill="#181818" points="260.2104,331.1719,250.2104,335.1719,260.2104,339.1719,256.2104,335.1719" style="stroke:#181818;stroke-width:1;"/><line style="stroke:#181818;stroke-width:1;" x1="238.2104" x2="238.2104" y1="229.2031" y2="249.2031"/><polygon fill="#181818" points="234.2104,239.2031,238.2104,249.2031,242.2104,239.2031,238.2104,243.2031" style="stroke:#181818;stroke-width:1;"/><line style="stroke:#181818;stroke-width:1;" x1="238.2104" x2="238.2104" y1="347.1719" y2="367.1719"/><polygon fill="#181818" points="234.2104,357.1719,238.2104,367.1719,242.2104,357.1719,238.2104,361.1719" style="stroke:#181818;stroke-width:1;"/><?plantuml-src NO-nQiD044Jx-uefvSBW8ccamc2J8f044tt1SRVd79nsnTxAeB_FHPNYSdRVF1ZBLWYNs-a5HuplfzVZbrXEApvzPYFs70XZ4SDLE6MTl6LXvwfvDTT_Y8_mywpoe8XfrwcjCxZ-ikGIju2m4s2YMlsT6Z4In_y_Qfu24uIbcaoaWyi9tTjshiHsFi1-YD6jL0yEwByfY3vP-6z73biO79LAw5Zs-9v0Ql952KaKIgPhwt3CgIsLsVq2?></g></svg>