<?plantuml 1.2026.2?><svg xmlns="http://www.w3.org/2000/svg" xmlns:xlink="http://www.w3.org/1999/xlink" contentStyleType="text/css" data-diagram-type="ACTIVITY" height="336px" preserveAspectRatio="none" style="width:378px;height:336px;background:#FFFFFF;" version="1.1" viewBox="0 0 378 336" width="378px" zoomAndPan="magnify"><title>BP05 - SI01-Start Cancel Maintenance Slot</title><defs/><g><g class="title" data-source-line="1"><text fill="#000000" font-family="sans-serif" font-size="14" font-weight="bold" lengthAdjust="spacing" textLength="335.9795" x="20" y="32.9951">BP05 - SI01-Start Cancel Maintenance Slot</text></g><ellipse cx="189.4897" cy="57.2969" fill="#222222" rx="10" ry="10" style="stroke:#222222;stroke-width:1;"/><rect fill="#F1F1F1" height="33.9688" rx="12.5" ry="12.5" style="stroke:#181818;stroke-width:0.5;" width="193.5723" x="92.7036" y="87.2969"/><text fill="#000000" font-family="sans-serif" font-size="12" lengthAdjust="spacing" textLength="173.5723" x="102.7036" y="108.4355">Receive cancellation request</text><rect fill="#F1F1F1" height="33.9688" rx="12.5" ry="12.5" style="stroke:#181818;stroke-width:0.5;" width="216.0078" x="81.4858" y="141.2656"/><text fill="#000000" font-family="sans-serif" font-size="12" lengthAdjust="spacing" textLength="196.0078" x="91.4858" y="162.4043">Validate maintenance slot exists</text><rect fill="#F1F1F1" height="33.9688" rx="12.5" ry="12.5" style="stroke:#181818;stroke-width:0.5;" width="355.6426" x="11.6685" y="195.2344"/><text fill="#000000" font-family="sans-serif" font-size="12" lengthAdjust="spacing" textLength="335.6426" x="21.6685" y="216.373">Set cancellation status to pending provider cancellation</text><rect fill="#F1F1F1" height="33.9688" rx="12.5" ry="12.5" style="stroke:#181818;stroke-width:0.5;" width="240.7695" x="69.105" y="249.2031"/><text fill="#000000" font-family="sans-serif" font-size="12" lengthAdjust="spacing" textLength="220.7695" x="79.105" y="270.3418">Send cancellation task to back office</text><ellipse cx="189.4897" cy="314.1719" fill="none" rx="11" ry="11" style="stroke:#222222;stroke-width:1;"/><ellipse cx="189.4897" cy="314.1719" fill="#222222" rx="6" ry="6" style="stroke:#222222;stroke-width:1;"/><line style="stroke:#181818;stroke-width:1;" x1="189.4897" x2="189.4897" y1="67.2969" y2="87.2969"/><polygon fill="#181818" points="185.4897,77.2969,189.4897,87.2969,193.4897,77.2969,189.4897,81.2969" style="stroke:#181818;stroke-width:1;"/><line style="stroke:#181818;stroke-width:1;" x1="189.4897" x2="189.4897" y1="121.2656" y2="141.2656"/><polygon fill="#181818" points="185.4897,131.2656,189.4897,141.2656,193.4897,131.2656,189.4897,135.2656" style="stroke:#181818;stroke-width:1;"/><line style="stroke:#181818;stroke-width:1;" x1="189.4897" x2="189.4897" y1="175.2344" y2="195.2344"/><polygon fill="#181818" points="185.4897,185.2344,189.4897,195.2344,193.4897,185.2344,189.4897,189.2344" style="stroke:#181818;stroke-width:1;"/><line style="stroke:#181818;stroke-width:1;" x1="189.4897" x2="189.4897" y1="229.2031" y2="249.2031"/><polygon fill="#181818" points="185.4897,239.2031,189.4897,249.2031,193.4897,239.2031,189.4897,243.2031" style="stroke:#181818;stroke-width:1;"/><line style="stroke:#181818;stroke-width:1;" x1="189.4897" x2="189.4897" y1="283.1719" y2="303.1719"/><polygon fill="#181818" points="185.4897,293.1719,189.4897,303.1719,193.4897,293.1719,189.4897,297.1719" style="stroke:#181818;stroke-width:1;"/><?plantuml-src LOun3i8m34NtdC8Ng5G6bdQ3YG494OdT92wo6fmIknN79-r4H-k_zsHZImIdMtk41lobFJJUi1YSKG8bk2ABaQm7-9JDELrdrzqf42y4OUCI6cU1Gf-Pr7hNFJ1nH2Du_mMq1e2-hAOLyMHxkvPjLh0C4qbaUS5KyiAHoexRL8bxrr37rNnY624F0mVgwwjvSZy0?></g></svg>