<?plantuml 1.2026.2?><svg xmlns="http://www.w3.org/2000/svg" xmlns:xlink="http://www.w3.org/1999/xlink" contentStyleType="text/css" data-diagram-type="ACTIVITY" height="400px" preserveAspectRatio="none" style="width:451px;height:400px;background:#FFFFFF;" version="1.1" viewBox="0 0 451 400" width="451px" zoomAndPan="magnify"><title>BP05 - SI03-Notify Cancel Slot confirmed</title><defs/><g><g class="title" data-source-line="1"><text fill="#000000" font-family="sans-serif" font-size="14" font-weight="bold" lengthAdjust="spacing" textLength="322.4785" x="62.9424" y="32.9951">BP05 - SI03-Notify Cancel Slot confirmed</text></g><ellipse cx="213.6846" cy="57.2969" fill="#222222" rx="10" ry="10" style="stroke:#222222;stroke-width:1;"/><rect fill="#F1F1F1" height="33.9688" rx="12.5" ry="12.5" style="stroke:#181818;stroke-width:0.5;" width="217.8945" x="104.7373" y="87.2969"/><text fill="#000000" font-family="sans-serif" font-size="12" lengthAdjust="spacing" textLength="197.8945" x="114.7373" y="108.4355">Load cancelled maintenance slot</text><rect fill="#F1F1F1" height="33.9688" rx="12.5" ry="12.5" style="stroke:#181818;stroke-width:0.5;" width="264.1074" x="81.6309" y="141.2656"/><text fill="#000000" font-family="sans-serif" font-size="12" lengthAdjust="spacing" textLength="244.1074" x="91.6309" y="162.4043">Build cancellation confirmation message</text><rect fill="#F1F1F1" height="33.9688" rx="12.5" ry="12.5" style="stroke:#181818;stroke-width:0.5;" width="243.3711" x="91.999" y="195.2344"/><text fill="#000000" font-family="sans-serif" font-size="12" lengthAdjust="spacing" textLength="223.3711" x="101.999" y="216.373">Send cancellation confirmation email</text><polygon fill="#F1F1F1" points="181.8662,249.2031,245.5029,249.2031,257.5029,261.2031,245.5029,273.2031,181.8662,273.2031,169.8662,261.2031,181.8662,249.2031" style="stroke:#181818;stroke-width:0.5;"/><text fill="#000000" font-family="sans-serif" font-size="11" lengthAdjust="spacing" textLength="63.6367" x="181.8662" y="265.0112">Email sent?</text><text fill="#000000" font-family="sans-serif" font-size="11" lengthAdjust="spacing" textLength="19.0083" x="150.8579" y="258.6089">yes</text><text fill="#000000" font-family="sans-serif" font-size="11" lengthAdjust="spacing" textLength="13.7017" x="257.5029" y="258.6089">no</text><rect fill="#F1F1F1" height="33.9688" rx="12.5" ry="12.5" style="stroke:#181818;stroke-width:0.5;" width="180.6875" x="11" y="283.2031"/><text fill="#000000" font-family="sans-serif" font-size="12" lengthAdjust="spacing" textLength="160.6875" x="21" y="304.3418">Record notification as sent</text><rect fill="#F1F1F1" height="33.9688" rx="12.5" ry="12.5" style="stroke:#181818;stroke-width:0.5;" width="228.6758" x="211.6875" y="283.2031"/><text fill="#000000" font-family="sans-serif" font-size="12" lengthAdjust="spacing" textLength="208.6758" x="221.6875" y="304.3418">Record notification failure for retry</text><polygon fill="#F1F1F1" points="213.6846,323.1719,225.6846,335.1719,213.6846,347.1719,201.6846,335.1719,213.6846,323.1719" style="stroke:#181818;stroke-width:0.5;"/><ellipse cx="213.6846" cy="378.1719" fill="none" rx="11" ry="11" style="stroke:#222222;stroke-width:1;"/><ellipse cx="213.6846" cy="378.1719" fill="#222222" rx="6" ry="6" style="stroke:#222222;stroke-width:1;"/><line style="stroke:#181818;stroke-width:1;" x1="213.6846" x2="213.6846" y1="67.2969" y2="87.2969"/><polygon fill="#181818" points="209.6846,77.2969,213.6846,87.2969,217.6846,77.2969,213.6846,81.2969" style="stroke:#181818;stroke-width:1;"/><line style="stroke:#181818;stroke-width:1;" x1="213.6846" x2="213.6846" y1="121.2656" y2="141.2656"/><polygon fill="#181818" points="209.6846,131.2656,213.6846,141.2656,217.6846,131.2656,213.6846,135.2656" style="stroke:#181818;stroke-width:1;"/><line style="stroke:#181818;stroke-width:1;" x1="213.6846" x2="213.6846" y1="175.2344" y2="195.2344"/><polygon fill="#181818" points="209.6846,185.2344,213.6846,195.2344,217.6846,185.2344,213.6846,189.2344" style="stroke:#181818;stroke-width:1;"/><line style="stroke:#181818;stroke-width:1;" x1="169.8662" x2="101.3438" y1="261.2031" y2="261.2031"/><line style="stroke:#181818;stroke-width:1;" x1="101.3438" x2="101.3438" y1="261.2031" y2="283.2031"/><polygon fill="#181818" points="97.3438,273.2031,101.3438,283.2031,105.3438,273.2031,101.3438,277.2031" style="stroke:#181818;stroke-width:1;"/><line style="stroke:#181818;stroke-width:1;" x1="257.5029" x2="326.0254" y1="261.2031" y2="261.2031"/><line style="stroke:#181818;stroke-width:1;" x1="326.0254" x2="326.0254" y1="261.2031" y2="283.2031"/><polygon fill="#181818" points="322.0254,273.2031,326.0254,283.2031,330.0254,273.2031,326.0254,277.2031" style="stroke:#181818;stroke-width:1;"/><line style="stroke:#181818;stroke-width:1;" x1="101.3438" x2="101.3438" y1="317.1719" y2="335.1719"/><line style="stroke:#181818;stroke-width:1;" x1="101.3438" x2="201.6846" y1="335.1719" y2="335.1719"/><polygon fill="#181818" points="191.6846,331.1719,201.6846,335.1719,191.6846,339.1719,195.6846,335.1719" style="stroke:#181818;stroke-width:1;"/><line style="stroke:#181818;stroke-width:1;" x1="326.0254" x2="326.0254" y1="317.1719" y2="335.1719"/><line style="stroke:#181818;stroke-width:1;" x1="326.0254" x2="225.6846" y1="335.1719" y2="335.1719"/><polygon fill="#181818" points="235.6846,331.1719,225.6846,335.1719,235.6846,339.1719,231.6846,335.1719" style="stroke:#181818;stroke-width:1;"/><line style="stroke:#181818;stroke-width:1;" x1="213.6846" x2="213.6846" y1="229.2031" y2="249.2031"/><polygon fill="#181818" points="209.6846,239.2031,213.6846,249.2031,217.6846,239.2031,213.6846,243.2031" style="stroke:#181818;stroke-width:1;"/><line style="stroke:#181818;stroke-width:1;" x1="213.6846" x2="213.6846" y1="347.1719" y2="367.1719"/><polygon fill="#181818" points="209.6846,357.1719,213.6846,367.1719,217.6846,357.1719,213.6846,361.1719" style="stroke:#181818;stroke-width:1;"/><?plantuml-src VO-nQWCn44HxVSMKvy9W26dk2eD3Ye09nlS5Gbeb2xfT8-qLz_VMsTYTtUt0UyEiiMN2uRJxn1RZp-vZ-wl6QS6Nbq0POrP3K4bS9ehELVF5N7zK7n5kIAQ8oRCOoPfHcp6u_Z1pVYBUMELHSmyJrUh_g94ZoJkGMdaU72Tqt-k9IcBx3UoV1Dr2TUE0_an1IuIiupdSJLzlxE0eLq8d-f9ChNSkXAG5XQmipP78gRsh5tS5?></g></svg>