<?plantuml 1.2026.2?><svg xmlns="http://www.w3.org/2000/svg" xmlns:xlink="http://www.w3.org/1999/xlink" contentStyleType="text/css" data-diagram-type="ACTIVITY" height="405px" preserveAspectRatio="none" style="width:451px;height:405px;background:#FFFFFF;" version="1.1" viewBox="0 0 451 405" width="451px" zoomAndPan="magnify"><defs/><g><rect fill="none" height="383.1719" style="stroke:#000000;stroke-width:1.5;" width="429.5098" x="11" y="11"/><path d="M371.0957,11 L371.0957,20.2969 L361.0957,30.2969 L11,30.2969" fill="none" style="stroke:#000000;stroke-width:1.5;"/><text fill="#000000" font-family="sans-serif" font-size="14" lengthAdjust="spacing" textLength="350.0957" x="14" y="24.9951">BP06 - SI02-Send Welcome Message To Customer</text><ellipse cx="244.0347" cy="50.2969" fill="#222222" rx="10" ry="10" style="stroke:#222222;stroke-width:1;"/><rect fill="#F1F1F1" height="33.9688" rx="12.5" ry="12.5" style="stroke:#181818;stroke-width:0.5;" width="206.5977" x="140.7358" y="80.2969"/><text fill="#000000" font-family="sans-serif" font-size="12" lengthAdjust="spacing" textLength="186.5977" x="150.7358" y="101.4355">Receive channel created event</text><rect fill="#F1F1F1" height="33.9688" rx="12.5" ry="12.5" style="stroke:#181818;stroke-width:0.5;" width="181.9414" x="153.064" y="134.2656"/><text fill="#000000" font-family="sans-serif" font-size="12" lengthAdjust="spacing" textLength="161.9414" x="163.064" y="155.4043">Prepare welcome message</text><rect fill="#F1F1F1" height="33.9688" rx="12.5" ry="12.5" style="stroke:#181818;stroke-width:0.5;" width="357.7754" x="65.147" y="188.2344"/><text fill="#000000" font-family="sans-serif" font-size="12" lengthAdjust="spacing" textLength="337.7754" x="75.147" y="209.373">Send welcome message to customer through WhatsApp</text><polygon fill="#F1F1F1" points="200.1475,242.2031,287.9219,242.2031,299.9219,254.2031,287.9219,266.2031,200.1475,266.2031,188.1475,254.2031,200.1475,242.2031" style="stroke:#181818;stroke-width:0.5;"/><text fill="#000000" font-family="sans-serif" font-size="11" lengthAdjust="spacing" textLength="87.7744" x="200.1475" y="258.0112">Message is sent</text><text fill="#000000" font-family="sans-serif" font-size="11" lengthAdjust="spacing" textLength="19.0083" x="169.1392" y="251.6089">yes</text><text fill="#000000" font-family="sans-serif" font-size="11" lengthAdjust="spacing" textLength="13.7017" x="299.9219" y="251.6089">no</text><rect fill="#F1F1F1" height="33.9688" rx="12.5" ry="12.5" style="stroke:#181818;stroke-width:0.5;" width="229.3145" x="23" y="276.2031"/><text fill="#000000" font-family="sans-serif" font-size="12" lengthAdjust="spacing" textLength="209.3145" x="33" y="297.3418">Record welcome message delivery</text><rect fill="#F1F1F1" height="33.9688" rx="12.5" ry="12.5" style="stroke:#181818;stroke-width:0.5;" width="156.1953" x="272.3145" y="276.2031"/><text fill="#000000" font-family="sans-serif" font-size="12" lengthAdjust="spacing" textLength="136.1953" x="282.3145" y="297.3418">Record delivery failure</text><polygon fill="#F1F1F1" points="244.0347,316.1719,256.0347,328.1719,244.0347,340.1719,232.0347,328.1719,244.0347,316.1719" style="stroke:#181818;stroke-width:0.5;"/><ellipse cx="244.0347" cy="371.1719" fill="none" rx="11" ry="11" style="stroke:#222222;stroke-width:1;"/><ellipse cx="244.0347" cy="371.1719" fill="#222222" rx="6" ry="6" style="stroke:#222222;stroke-width:1;"/><line style="stroke:#181818;stroke-width:1;" x1="244.0347" x2="244.0347" y1="60.2969" y2="80.2969"/><polygon fill="#181818" points="240.0347,70.2969,244.0347,80.2969,248.0347,70.2969,244.0347,74.2969" style="stroke:#181818;stroke-width:1;"/><line style="stroke:#181818;stroke-width:1;" x1="244.0347" x2="244.0347" y1="114.2656" y2="134.2656"/><polygon fill="#181818" points="240.0347,124.2656,244.0347,134.2656,248.0347,124.2656,244.0347,128.2656" style="stroke:#181818;stroke-width:1;"/><line style="stroke:#181818;stroke-width:1;" x1="244.0347" x2="244.0347" y1="168.2344" y2="188.2344"/><polygon fill="#181818" points="240.0347,178.2344,244.0347,188.2344,248.0347,178.2344,244.0347,182.2344" style="stroke:#181818;stroke-width:1;"/><line style="stroke:#181818;stroke-width:1;" x1="188.1475" x2="137.6572" y1="254.2031" y2="254.2031"/><line style="stroke:#181818;stroke-width:1;" x1="137.6572" x2="137.6572" y1="254.2031" y2="276.2031"/><polygon fill="#181818" points="133.6572,266.2031,137.6572,276.2031,141.6572,266.2031,137.6572,270.2031" style="stroke:#181818;stroke-width:1;"/><line style="stroke:#181818;stroke-width:1;" x1="299.9219" x2="350.4121" y1="254.2031" y2="254.2031"/><line style="stroke:#181818;stroke-width:1;" x1="350.4121" x2="350.4121" y1="254.2031" y2="276.2031"/><polygon fill="#181818" points="346.4121,266.2031,350.4121,276.2031,354.4121,266.2031,350.4121,270.2031" style="stroke:#181818;stroke-width:1;"/><line style="stroke:#181818;stroke-width:1;" x1="137.6572" x2="137.6572" y1="310.1719" y2="328.1719"/><line style="stroke:#181818;stroke-width:1;" x1="137.6572" x2="232.0347" y1="328.1719" y2="328.1719"/><polygon fill="#181818" points="222.0347,324.1719,232.0347,328.1719,222.0347,332.1719,226.0347,328.1719" style="stroke:#181818;stroke-width:1;"/><line style="stroke:#181818;stroke-width:1;" x1="350.4121" x2="350.4121" y1="310.1719" y2="328.1719"/><line style="stroke:#181818;stroke-width:1;" x1="350.4121" x2="256.0347" y1="328.1719" y2="328.1719"/><polygon fill="#181818" points="266.0347,324.1719,256.0347,328.1719,266.0347,332.1719,262.0347,328.1719" style="stroke:#181818;stroke-width:1;"/><line style="stroke:#181818;stroke-width:1;" x1="244.0347" x2="244.0347" y1="222.2031" y2="242.2031"/><polygon fill="#181818" points="240.0347,232.2031,244.0347,242.2031,248.0347,232.2031,244.0347,236.2031" style="stroke:#181818;stroke-width:1;"/><line style="stroke:#181818;stroke-width:1;" x1="244.0347" x2="244.0347" y1="340.1719" y2="360.1719"/><polygon fill="#181818" points="240.0347,350.1719,244.0347,360.1719,248.0347,350.1719,244.0347,354.1719" style="stroke:#181818;stroke-width:1;"/><?plantuml-src POy_QyCm4CLtVuf79cS8X0uTsgdjrA4Gca1c8J_70aKIT-U4KFhTApl9q7Owk7j_VbUSMB2G4nQlc_KZLjY-hnzMMwOEUqQVZyG7LTs1s6MyZMfr9GjyDO1QTTVvz4dFS2Byu59YX1SwOmUUcEnvKco4nGbnlcKUhvdpRIxxSu1b-5iPR90y7WRi1sVwKiha2ZtQErXGQ2rQLY4JsWjrMHLNhYp_ipl6IYkNAOTHYJRbtuwx0hqBSPIPirA6Vluwb-Qx-G40?></g></svg>