<?plantuml 1.2026.2?><svg xmlns="http://www.w3.org/2000/svg" xmlns:xlink="http://www.w3.org/1999/xlink" contentStyleType="text/css" data-diagram-type="ACTIVITY" height="405px" preserveAspectRatio="none" style="width:477px;height:405px;background:#FFFFFF;" version="1.1" viewBox="0 0 477 405" width="477px" zoomAndPan="magnify"><defs/><g><rect fill="none" height="383.1719" style="stroke:#000000;stroke-width:1.5;" width="455.8477" x="11" y="11"/><path d="M229.5508,11 L229.5508,20.2969 L219.5508,30.2969 L11,30.2969" fill="none" style="stroke:#000000;stroke-width:1.5;"/><text fill="#000000" font-family="sans-serif" font-size="14" lengthAdjust="spacing" textLength="208.5508" x="14" y="24.9951">BP06 - SI03-Forward Message</text><ellipse cx="255.4941" cy="50.2969" fill="#222222" rx="10" ry="10" style="stroke:#222222;stroke-width:1;"/><rect fill="#F1F1F1" height="33.9688" rx="12.5" ry="12.5" style="stroke:#181818;stroke-width:0.5;" width="327.6816" x="91.6533" y="80.2969"/><text fill="#000000" font-family="sans-serif" font-size="12" lengthAdjust="spacing" textLength="307.6816" x="101.6533" y="101.4355">Receive provider message from WhatsApp channel</text><rect fill="#F1F1F1" height="33.9688" rx="12.5" ry="12.5" style="stroke:#181818;stroke-width:0.5;" width="264.0078" x="123.4902" y="134.2656"/><text fill="#000000" font-family="sans-serif" font-size="12" lengthAdjust="spacing" textLength="244.0078" x="133.4902" y="155.4043">Validate channel and recipient customer</text><rect fill="#F1F1F1" height="33.9688" rx="12.5" ry="12.5" style="stroke:#181818;stroke-width:0.5;" width="202.8242" x="154.082" y="188.2344"/><text fill="#000000" font-family="sans-serif" font-size="12" lengthAdjust="spacing" textLength="182.8242" x="164.082" y="209.373">Forward message to customer</text><polygon fill="#F1F1F1" points="197.3064,242.2031,313.6819,242.2031,325.6819,254.2031,313.6819,266.2031,197.3064,266.2031,185.3064,254.2031,197.3064,242.2031" style="stroke:#181818;stroke-width:0.5;"/><text fill="#000000" font-family="sans-serif" font-size="11" lengthAdjust="spacing" textLength="116.3755" x="197.3064" y="258.0112">Forwarding succeeds</text><text fill="#000000" font-family="sans-serif" font-size="11" lengthAdjust="spacing" textLength="19.0083" x="166.2981" y="251.6089">yes</text><text fill="#000000" font-family="sans-serif" font-size="11" lengthAdjust="spacing" textLength="13.7017" x="325.6819" y="251.6089">no</text><rect fill="#F1F1F1" height="33.9688" rx="12.5" ry="12.5" style="stroke:#181818;stroke-width:0.5;" width="239.0645" x="23" y="276.2031"/><text fill="#000000" font-family="sans-serif" font-size="12" lengthAdjust="spacing" textLength="219.0645" x="33" y="297.3418">Record forwarded provider message</text><rect fill="#F1F1F1" height="33.9688" rx="12.5" ry="12.5" style="stroke:#181818;stroke-width:0.5;" width="172.7832" x="282.0645" y="276.2031"/><text fill="#000000" font-family="sans-serif" font-size="12" lengthAdjust="spacing" textLength="152.7832" x="292.0645" y="297.3418">Record forwarding failure</text><polygon fill="#F1F1F1" points="255.4941,316.1719,267.4941,328.1719,255.4941,340.1719,243.4941,328.1719,255.4941,316.1719" style="stroke:#181818;stroke-width:0.5;"/><ellipse cx="255.4941" cy="371.1719" fill="none" rx="11" ry="11" style="stroke:#222222;stroke-width:1;"/><ellipse cx="255.4941" cy="371.1719" fill="#222222" rx="6" ry="6" style="stroke:#222222;stroke-width:1;"/><line style="stroke:#181818;stroke-width:1;" x1="255.4941" x2="255.4941" y1="60.2969" y2="80.2969"/><polygon fill="#181818" points="251.4941,70.2969,255.4941,80.2969,259.4941,70.2969,255.4941,74.2969" style="stroke:#181818;stroke-width:1;"/><line style="stroke:#181818;stroke-width:1;" x1="255.4941" x2="255.4941" y1="114.2656" y2="134.2656"/><polygon fill="#181818" points="251.4941,124.2656,255.4941,134.2656,259.4941,124.2656,255.4941,128.2656" style="stroke:#181818;stroke-width:1;"/><line style="stroke:#181818;stroke-width:1;" x1="255.4941" x2="255.4941" y1="168.2344" y2="188.2344"/><polygon fill="#181818" points="251.4941,178.2344,255.4941,188.2344,259.4941,178.2344,255.4941,182.2344" style="stroke:#181818;stroke-width:1;"/><line style="stroke:#181818;stroke-width:1;" x1="185.3064" x2="142.5322" y1="254.2031" y2="254.2031"/><line style="stroke:#181818;stroke-width:1;" x1="142.5322" x2="142.5322" y1="254.2031" y2="276.2031"/><polygon fill="#181818" points="138.5322,266.2031,142.5322,276.2031,146.5322,266.2031,142.5322,270.2031" style="stroke:#181818;stroke-width:1;"/><line style="stroke:#181818;stroke-width:1;" x1="325.6819" x2="368.4561" y1="254.2031" y2="254.2031"/><line style="stroke:#181818;stroke-width:1;" x1="368.4561" x2="368.4561" y1="254.2031" y2="276.2031"/><polygon fill="#181818" points="364.4561,266.2031,368.4561,276.2031,372.4561,266.2031,368.4561,270.2031" style="stroke:#181818;stroke-width:1;"/><line style="stroke:#181818;stroke-width:1;" x1="142.5322" x2="142.5322" y1="310.1719" y2="328.1719"/><line style="stroke:#181818;stroke-width:1;" x1="142.5322" x2="243.4941" y1="328.1719" y2="328.1719"/><polygon fill="#181818" points="233.4941,324.1719,243.4941,328.1719,233.4941,332.1719,237.4941,328.1719" style="stroke:#181818;stroke-width:1;"/><line style="stroke:#181818;stroke-width:1;" x1="368.4561" x2="368.4561" y1="310.1719" y2="328.1719"/><line style="stroke:#181818;stroke-width:1;" x1="368.4561" x2="267.4941" y1="328.1719" y2="328.1719"/><polygon fill="#181818" points="277.4941,324.1719,267.4941,328.1719,277.4941,332.1719,273.4941,328.1719" style="stroke:#181818;stroke-width:1;"/><line style="stroke:#181818;stroke-width:1;" x1="255.4941" x2="255.4941" y1="222.2031" y2="242.2031"/><polygon fill="#181818" points="251.4941,232.2031,255.4941,242.2031,259.4941,232.2031,255.4941,236.2031" style="stroke:#181818;stroke-width:1;"/><line style="stroke:#181818;stroke-width:1;" x1="255.4941" x2="255.4941" y1="340.1719" y2="360.1719"/><polygon fill="#181818" points="251.4941,350.1719,255.4941,360.1719,259.4941,350.1719,255.4941,354.1719" style="stroke:#181818;stroke-width:1;"/><?plantuml-src RP0nIyH048Nx_8h7LRdYu42uGYij18i3KT1wsNrx6KXsbftD7IB-TvEBAKIhWPblldbCTgLA5KtOF3pl3zZXzMb_itlKSd4bu4WpT-86dmrWTOAdUlj2JpaJkUXP0Wk61KCiEk2zSzNkSuRlN4hix-QLDzTBS9Lh4ou557h9mbJXHwiwi5pPzVXghVfhBX7j3oBf11kz9uDjKJicj1-qxKGjCNNIn8Lb-9Dtjh4teatwxyxiZqxwiIni2XAlZz3SV3NV?></g></svg>