<?plantuml 1.2026.2?><svg xmlns="http://www.w3.org/2000/svg" xmlns:xlink="http://www.w3.org/1999/xlink" contentStyleType="text/css" data-diagram-type="ACTIVITY" height="459px" preserveAspectRatio="none" style="width:448px;height:459px;background:#FFFFFF;" version="1.1" viewBox="0 0 448 459" width="448px" zoomAndPan="magnify"><defs/><g><rect fill="none" height="437.1406" style="stroke:#000000;stroke-width:1.5;" width="426.2695" x="11" y="11"/><path d="M308.916,11 L308.916,20.2969 L298.916,30.2969 L11,30.2969" fill="none" style="stroke:#000000;stroke-width:1.5;"/><text fill="#000000" font-family="sans-serif" font-size="14" lengthAdjust="spacing" textLength="287.916" x="14" y="24.9951">BP06 - SI01-Setup Direct Communication</text><ellipse cx="228.4092" cy="50.2969" fill="#222222" rx="10" ry="10" style="stroke:#222222;stroke-width:1;"/><rect fill="#F1F1F1" height="33.9688" rx="12.5" ry="12.5" style="stroke:#181818;stroke-width:0.5;" width="289.5898" x="83.6143" y="80.2969"/><text fill="#000000" font-family="sans-serif" font-size="12" lengthAdjust="spacing" textLength="269.5898" x="93.6143" y="101.4355">Receive direct communication setup request</text><rect fill="#F1F1F1" height="33.9688" rx="12.5" ry="12.5" style="stroke:#181818;stroke-width:0.5;" width="259.332" x="98.7432" y="134.2656"/><text fill="#000000" font-family="sans-serif" font-size="12" lengthAdjust="spacing" textLength="239.332" x="108.7432" y="155.4043">Validate customer and provider context</text><rect fill="#F1F1F1" height="33.9688" rx="12.5" ry="12.5" style="stroke:#181818;stroke-width:0.5;" width="273.0898" x="91.8643" y="188.2344"/><text fill="#000000" font-family="sans-serif" font-size="12" lengthAdjust="spacing" textLength="253.0898" x="101.8643" y="209.373">Create WhatsApp communication channel</text><polygon fill="#F1F1F1" points="176.8682,242.2031,279.9502,242.2031,291.9502,254.2031,279.9502,266.2031,176.8682,266.2031,164.8682,254.2031,176.8682,242.2031" style="stroke:#181818;stroke-width:0.5;"/><text fill="#000000" font-family="sans-serif" font-size="11" lengthAdjust="spacing" textLength="103.082" x="176.8682" y="258.0112">Channel is created</text><text fill="#000000" font-family="sans-serif" font-size="11" lengthAdjust="spacing" textLength="19.0083" x="145.8599" y="251.6089">yes</text><text fill="#000000" font-family="sans-serif" font-size="11" lengthAdjust="spacing" textLength="13.7017" x="291.9502" y="251.6089">no</text><rect fill="#F1F1F1" height="33.9688" rx="12.5" ry="12.5" style="stroke:#181818;stroke-width:0.5;" width="164.9199" x="40.3818" y="276.2031"/><text fill="#000000" font-family="sans-serif" font-size="12" lengthAdjust="spacing" textLength="144.9199" x="50.3818" y="297.3418">Store channel reference</text><rect fill="#F1F1F1" height="33.9688" rx="12.5" ry="12.5" style="stroke:#181818;stroke-width:0.5;" width="199.6836" x="23" y="330.1719"/><text fill="#000000" font-family="sans-serif" font-size="12" lengthAdjust="spacing" textLength="179.6836" x="33" y="351.3105">Return channel created result</text><rect fill="#F1F1F1" height="33.9688" rx="12.5" ry="12.5" style="stroke:#181818;stroke-width:0.5;" width="182.5859" x="242.6836" y="276.2031"/><text fill="#000000" font-family="sans-serif" font-size="12" lengthAdjust="spacing" textLength="162.5859" x="252.6836" y="297.3418">Return channel setup error</text><polygon fill="#F1F1F1" points="228.4092,370.1406,240.4092,382.1406,228.4092,394.1406,216.4092,382.1406,228.4092,370.1406" style="stroke:#181818;stroke-width:0.5;"/><ellipse cx="228.4092" cy="425.1406" fill="none" rx="11" ry="11" style="stroke:#222222;stroke-width:1;"/><ellipse cx="228.4092" cy="425.1406" fill="#222222" rx="6" ry="6" style="stroke:#222222;stroke-width:1;"/><line style="stroke:#181818;stroke-width:1;" x1="228.4092" x2="228.4092" y1="60.2969" y2="80.2969"/><polygon fill="#181818" points="224.4092,70.2969,228.4092,80.2969,232.4092,70.2969,228.4092,74.2969" style="stroke:#181818;stroke-width:1;"/><line style="stroke:#181818;stroke-width:1;" x1="228.4092" x2="228.4092" y1="114.2656" y2="134.2656"/><polygon fill="#181818" points="224.4092,124.2656,228.4092,134.2656,232.4092,124.2656,228.4092,128.2656" style="stroke:#181818;stroke-width:1;"/><line style="stroke:#181818;stroke-width:1;" x1="228.4092" x2="228.4092" y1="168.2344" y2="188.2344"/><polygon fill="#181818" points="224.4092,178.2344,228.4092,188.2344,232.4092,178.2344,228.4092,182.2344" style="stroke:#181818;stroke-width:1;"/><line style="stroke:#181818;stroke-width:1;" x1="122.8418" x2="122.8418" y1="310.1719" y2="330.1719"/><polygon fill="#181818" points="118.8418,320.1719,122.8418,330.1719,126.8418,320.1719,122.8418,324.1719" style="stroke:#181818;stroke-width:1;"/><line style="stroke:#181818;stroke-width:1;" x1="164.8682" x2="122.8418" y1="254.2031" y2="254.2031"/><line style="stroke:#181818;stroke-width:1;" x1="122.8418" x2="122.8418" y1="254.2031" y2="276.2031"/><polygon fill="#181818" points="118.8418,266.2031,122.8418,276.2031,126.8418,266.2031,122.8418,270.2031" style="stroke:#181818;stroke-width:1;"/><line style="stroke:#181818;stroke-width:1;" x1="291.9502" x2="333.9766" y1="254.2031" y2="254.2031"/><line style="stroke:#181818;stroke-width:1;" x1="333.9766" x2="333.9766" y1="254.2031" y2="276.2031"/><polygon fill="#181818" points="329.9766,266.2031,333.9766,276.2031,337.9766,266.2031,333.9766,270.2031" style="stroke:#181818;stroke-width:1;"/><line style="stroke:#181818;stroke-width:1;" x1="122.8418" x2="122.8418" y1="364.1406" y2="382.1406"/><line style="stroke:#181818;stroke-width:1;" x1="122.8418" x2="216.4092" y1="382.1406" y2="382.1406"/><polygon fill="#181818" points="206.4092,378.1406,216.4092,382.1406,206.4092,386.1406,210.4092,382.1406" style="stroke:#181818;stroke-width:1;"/><line style="stroke:#181818;stroke-width:1;" x1="333.9766" x2="333.9766" y1="310.1719" y2="382.1406"/><line style="stroke:#181818;stroke-width:1;" x1="333.9766" x2="240.4092" y1="382.1406" y2="382.1406"/><polygon fill="#181818" points="250.4092,378.1406,240.4092,382.1406,250.4092,386.1406,246.4092,382.1406" style="stroke:#181818;stroke-width:1;"/><line style="stroke:#181818;stroke-width:1;" x1="228.4092" x2="228.4092" y1="222.2031" y2="242.2031"/><polygon fill="#181818" points="224.4092,232.2031,228.4092,242.2031,232.4092,232.2031,228.4092,236.2031" style="stroke:#181818;stroke-width:1;"/><line style="stroke:#181818;stroke-width:1;" x1="228.4092" x2="228.4092" y1="394.1406" y2="414.1406"/><polygon fill="#181818" points="224.4092,404.1406,228.4092,414.1406,232.4092,404.1406,228.4092,408.1406" style="stroke:#181818;stroke-width:1;"/><?plantuml-src RT0nQyCm40NWtR_Yo6GFWNJ9q4ojktGhCRIpa9xnWIsffrD8AVtlbMLIIkaa3dtlSL8qegmSFEqUNmv7sjFmVBZR3z0SwOa5LgaFov8zMxEw7NqsH4bBhfptPrZm1UGsQdzJIhL5y9wHzBJoLpEpCmgoEMbO86IyeoZXmguCDdZ5TQEzO8Llaz7q4EEVQZiPxp6laaTg-sqaJcHhpdMa4por7qXTGQLmq22u1SjM8mJUuhJTdikkyjDxQoaivRakX3c1MX-wV_tsL8W4gTWx7ki_XTXyDTy0?></g></svg>